<?xml version="1.0" encoding="utf-8"?>
<!-- Generator: Adobe Illustrator 27.2.0, SVG Export Plug-In . SVG Version: 6.00 Build 0)  -->
<svg version="1.1" id="Capa_2_00000162316771688210283600000015347555706573321099_"
	 xmlns="http://www.w3.org/2000/svg" xmlns:xlink="http://www.w3.org/1999/xlink" x="0px" y="0px" viewBox="0 0 897.9 241.9"
	 style="enable-background:new 0 0 897.9 241.9;" xml:space="preserve">
<style type="text/css">
	.st0{fill:#1F1E59;}
	.st1{fill:#E71884;}
	.st2{fill:#C014C3;}
	.st3{fill:#F7931E;}
	.st4{fill:#7B18E7;}
</style>
<g id="Capa_1-2">
	<g>
		<path class="st0" d="M255.7,171.6c5.2,20.7,22,32.2,45.7,32.2c16.1,0,31.2-5.6,45.3-16.4l18.4,30.2c-19.4,16.1-41,24.3-65,24.3
			c-50.2,1-90-38.1-89-85.1c-1-47,38.1-86,85.1-85.1c45,0,76.5,33.2,76.5,75.5c0,7.9-1,16.1-3,24.3L255.7,171.6L255.7,171.6z
			 M329.6,140.4c-0.3-20-15.8-32.8-35.1-32.8s-33.8,12.8-38.8,32.8H329.6z"/>
		<rect x="398.7" y="75.3" class="st0" width="44.3" height="162.6"/>
		<path class="st0" d="M486.2,183.4c14.1,14.8,29.6,22,45.7,22c11.8,0,20.7-4.6,20.7-13.5c0-6.9-4.6-9.5-16.8-14.8l-17.4-7.2
			c-29.9-12.1-44.3-25.6-44.3-49.6c0-30.5,24.3-48.6,59.8-48.6c24.3,0,43.7,8.2,58.5,24.3L570,123.3c-10.8-10.2-23-15.4-36.5-15.4
			c-10.8,0-17.4,3.9-17.4,11.5c0,6.2,4.3,9.2,17.1,14.5l15.8,6.6c31.5,12.8,45.7,25.6,45.7,49.6c0,16.1-5.9,28.9-18.1,38.1
			c-11.8,9.2-26.9,13.8-45.3,13.8c-28.6,0-52.5-11.8-67.3-31.5L486.2,183.4L486.2,183.4z"/>
		<path class="st0" d="M654.3,171.6c5.2,20.7,22,32.2,45.7,32.2c16.1,0,31.2-5.6,45.3-16.4l18.4,30.2c-19.4,16.1-41,24.3-65,24.3
			c-50.2,1-90-38.1-89-85.1c-1-47,38.1-86,85.1-85.1c45,0,76.5,33.2,76.5,75.5c0,7.9-1,16.1-3,24.3L654.3,171.6L654.3,171.6z
			 M728.2,140.4c-0.3-20-15.8-32.8-35.1-32.8s-33.8,12.8-38.8,32.8H728.2z"/>
		<path class="st0" d="M897.9,114.4H886c-26.6,0-43.7,14.4-43.7,42.4v81.1H798V75.3h40.7v19.4c10.8-13.5,26.6-21.3,44.7-21.3
			c5.6,0,10.2,0.7,14.5,2L897.9,114.4L897.9,114.4z"/>
		<path class="st1" d="M398.7,40.8v3.4H423c5.2-0.5,10-2.9,13.5-6.4c4-4,6.5-9.6,6.5-15.6s-2.5-11.6-6.5-15.6c-4-4-9.5-6.5-15.6-6.5
			h-22.2L398.7,40.8L398.7,40.8z"/>
		<g>
			<path class="st2" d="M140.4,144V75.6H90.4c-5.1,0-10,0.3-14.8,0.9V144H140.4L140.4,144z"/>
			<path class="st3" d="M0,156.9c0,43.6,31,74.5,75.6,80V76.5C31,82.2,0,113.7,0,156.9z"/>
			<rect x="140.4" class="st4" width="44.3" height="144"/>
			<path class="st1" d="M184.7,237.9V144H75.6V237c4.8,0.6,9.7,0.9,14.8,0.9H184.7z"/>
		</g>
	</g>
</g>
</svg>
