<?xml version="1.0" encoding="UTF-8"?><svg id="Capa_2" xmlns="http://www.w3.org/2000/svg" viewBox="0 0 897.86 241.86"><defs><style>.cls-1{fill:#f7931e;}.cls-2{fill:#e71884;}.cls-3{fill:#c014c3;}.cls-4{fill:#df0084;}.cls-5{fill:#1f1e59;}.cls-6{fill:#7b18e7;}</style></defs><g id="Capa_1_copia"><path class="cls-5" d="m255.67,171.56c5.25,20.69,22,32.18,45.65,32.18,16.09,0,31.2-5.58,45.32-16.42l18.39,30.21c-19.38,16.09-41.05,24.3-65.03,24.3-50.25.99-89.99-38.1-89-85.06-.99-46.96,38.1-86.04,85.06-85.06,44.99,0,76.52,33.17,76.52,75.54,0,7.88-.99,16.09-2.96,24.3h-113.96Zm73.89-31.2c-.33-20.03-15.76-32.84-35.14-32.84s-33.83,12.81-38.75,32.84h73.89Z"/><rect class="cls-5" x="398.72" y="75.33" width="44.34" height="162.56"/><path class="cls-5" d="m486.24,183.38c14.12,14.78,29.56,22,45.65,22,11.82,0,20.69-4.6,20.69-13.46,0-6.9-4.6-9.52-16.75-14.78l-17.41-7.22c-29.89-12.15-44.34-25.62-44.34-49.59,0-30.54,24.3-48.61,59.77-48.61,24.3,0,43.68,8.21,58.46,24.3l-22.33,27.26c-10.84-10.18-22.99-15.43-36.45-15.43-10.84,0-17.41,3.94-17.41,11.49,0,6.24,4.27,9.19,17.08,14.45l15.76,6.57c31.53,12.81,45.65,25.62,45.65,49.59,0,16.09-5.91,28.9-18.06,38.1-11.82,9.2-26.93,13.79-45.32,13.79-28.57,0-52.55-11.82-67.32-31.53l22.33-26.93Z"/><path class="cls-5" d="m654.28,171.56c5.25,20.69,22,32.18,45.65,32.18,16.09,0,31.2-5.58,45.32-16.42l18.39,30.21c-19.38,16.09-41.05,24.3-65.03,24.3-50.25.99-89.99-38.1-89-85.06-.99-46.96,38.1-86.04,85.06-85.06,44.99,0,76.52,33.17,76.52,75.54,0,7.88-.99,16.09-2.96,24.3h-113.96Zm73.89-31.2c-.33-20.03-15.76-32.84-35.14-32.84s-33.83,12.81-38.75,32.84h73.89Z"/><path class="cls-5" d="m897.86,114.42h-11.82c-26.6,0-43.68,14.45-43.68,42.37v81.12h-44.34V75.33h40.72v19.38c10.84-13.46,26.6-21.35,44.66-21.35,5.58,0,10.18.66,14.45,1.97v39.08Z"/><path class="cls-4" d="m398.72,40.83v3.4h24.3c5.24-.51,9.97-2.87,13.52-6.42,4.02-4.02,6.52-9.56,6.52-15.65s-2.5-11.63-6.52-15.65C432.52,2.51,426.99,0,420.92,0h-22.19v40.83Z"/><path class="cls-3" d="m140.37,144.04v-68.42h-49.92c-5.09,0-10.03.32-14.83.93v67.49h64.74Z"/><path class="cls-1" d="m0,156.95c0,43.59,31,74.46,75.63,80.04V76.55C31,82.24,0,113.7,0,156.95Z"/><rect class="cls-6" x="140.37" width="44.34" height="237.9"/><path class="cls-2" d="m184.71,237.9v-93.86h-109.08v92.95c4.79.6,9.74.91,14.83.91h94.25Z"/><path class="cls-5" d="m255.67,171.56c5.25,20.69,22,32.18,45.65,32.18,16.09,0,31.2-5.58,45.32-16.42l18.39,30.21c-19.38,16.09-41.05,24.3-65.03,24.3-50.25.99-89.99-38.1-89-85.06-.99-46.96,38.1-86.04,85.06-85.06,44.99,0,76.52,33.17,76.52,75.54,0,7.88-.99,16.09-2.96,24.3h-113.96Zm73.89-31.2c-.33-20.03-15.76-32.84-35.14-32.84s-33.83,12.81-38.75,32.84h73.89Z"/><rect class="cls-5" x="398.72" y="75.33" width="44.34" height="162.56"/><path class="cls-5" d="m486.24,183.38c14.12,14.78,29.56,22,45.65,22,11.82,0,20.69-4.6,20.69-13.46,0-6.9-4.6-9.52-16.75-14.78l-17.41-7.22c-29.89-12.15-44.34-25.62-44.34-49.59,0-30.54,24.3-48.61,59.77-48.61,24.3,0,43.68,8.21,58.46,24.3l-22.33,27.26c-10.84-10.18-22.99-15.43-36.45-15.43-10.84,0-17.41,3.94-17.41,11.49,0,6.24,4.27,9.19,17.08,14.45l15.76,6.57c31.53,12.81,45.65,25.62,45.65,49.59,0,16.09-5.91,28.9-18.06,38.1-11.82,9.2-26.93,13.79-45.32,13.79-28.57,0-52.55-11.82-67.32-31.53l22.33-26.93Z"/><path class="cls-5" d="m654.28,171.56c5.25,20.69,22,32.18,45.65,32.18,16.09,0,31.2-5.58,45.32-16.42l18.39,30.21c-19.38,16.09-41.05,24.3-65.03,24.3-50.25.99-89.99-38.1-89-85.06-.99-46.96,38.1-86.04,85.06-85.06,44.99,0,76.52,33.17,76.52,75.54,0,7.88-.99,16.09-2.96,24.3h-113.96Zm73.89-31.2c-.33-20.03-15.76-32.84-35.14-32.84s-33.83,12.81-38.75,32.84h73.89Z"/><path class="cls-5" d="m897.86,114.42h-11.82c-26.6,0-43.68,14.45-43.68,42.37v81.12h-44.34V75.33h40.72v19.38c10.84-13.46,26.6-21.35,44.66-21.35,5.58,0,10.18.66,14.45,1.97v39.08Z"/><path class="cls-2" d="m184.71,237.9v-98.51h-109.08v97.56c4.79.63,9.74.96,14.83.96h94.25Z"/><path class="cls-3" d="m144.39,144.04v-68.42h-53.02c-5.4,0-10.66.32-15.75.93v67.49h68.77Z"/><path class="cls-4" d="m398.72,40.83v3.4h24.3c5.24-.51,9.97-2.87,13.52-6.42,4.02-4.02,6.52-9.56,6.52-15.65s-2.5-11.63-6.52-15.65C432.52,2.51,426.99,0,420.92,0h-22.19v40.83Z"/><path class="cls-3" d="m140.37,144.04v-68.42h-49.92c-5.09,0-10.03.32-14.83.93v67.49h64.74Z"/><path class="cls-1" d="m0,156.95c0,43.59,31,74.46,75.63,80.04V76.55C31,82.24,0,113.7,0,156.95Z"/><rect class="cls-6" x="140.37" width="44.34" height="237.9"/><path class="cls-2" d="m184.71,237.9v-93.86h-109.08v92.95c4.79.6,9.74.91,14.83.91h94.25Z"/></g></svg>