<svg width="96" height="25" viewBox="0 0 96 25" fill="none" xmlns="http://www.w3.org/2000/svg">
<g clip-path="url(#clip0_13955_16071)">
<path d="M64.6872 24.221C62.3013 24.221 60.3683 23.4697 58.886 21.9673C57.4045 20.4648 56.6634 18.4639 56.6634 15.9653V15.5001C56.6634 13.8271 56.9863 12.3326 57.6313 11.0157C58.2771 9.69963 59.1829 8.67462 60.3495 7.94143C61.5168 7.20825 62.8178 6.8413 64.2531 6.8413C66.5357 6.8413 68.2989 7.56943 69.5428 9.02568C70.7874 10.4819 71.4093 12.5421 71.4093 15.2061V16.7237H60.4586C60.572 18.1078 61.0343 19.2021 61.8448 20.0075C62.6552 20.8137 63.6752 21.216 64.9039 21.216C66.6281 21.216 68.0331 20.519 69.1173 19.1248L71.1464 21.0614C70.4754 22.0626 69.5789 22.8399 68.4586 23.3924C67.3382 23.945 66.0813 24.221 64.6872 24.221ZM23.8234 24.221C21.4375 24.221 19.5045 23.4697 18.0223 21.9673C16.5407 20.4648 15.7996 18.4639 15.7996 15.9653V15.5001C15.7996 13.8271 16.1225 12.3326 16.7675 11.0157C17.4133 9.69963 18.3191 8.67462 19.4857 7.94143C20.653 7.20825 21.954 6.8413 23.3893 6.8413C25.6719 6.8413 27.4351 7.56943 28.679 9.02568C29.9236 10.4819 30.5456 12.5421 30.5456 15.2061V16.7237H19.5948C19.7082 18.1078 20.1705 19.2021 20.981 20.0075C21.7915 20.8137 22.8114 21.216 24.0401 21.216C25.7644 21.216 27.1693 20.519 28.2535 19.1248L30.2826 21.0614C29.6116 22.0626 28.7151 22.8399 27.5948 23.3924C26.4744 23.945 25.2175 24.221 23.8234 24.221ZM72.9898 15.3766C72.9898 13.7347 73.3156 12.2553 73.9657 10.9385C74.6165 9.62161 75.5303 8.60961 76.7078 7.90243C77.8852 7.19526 79.2374 6.8413 80.7659 6.8413C83.0275 6.8413 84.863 7.56943 86.2723 9.02568C87.6823 10.4819 88.4437 12.4128 88.5571 14.8189L88.573 15.7016C88.573 17.3536 88.2551 18.8308 87.6202 20.1318C86.9853 21.4327 86.0766 22.4397 84.8941 23.1519C83.7116 23.8649 82.3456 24.221 80.7969 24.221C78.432 24.221 76.5402 23.4336 75.12 21.8589C73.6999 20.2842 72.9898 18.185 72.9898 15.5622V15.3766ZM7.49624 19.1407L11.0437 7.15119H14.9313L9.12296 23.9111H5.85435L-0.000976562 7.15119H3.90257L7.49624 19.1407ZM36.835 23.9111H33.0716V0.119141H36.835V23.9111ZM43.7905 7.15119L43.8988 9.0878C45.1384 7.59037 46.7651 6.8413 48.7783 6.8413C52.2686 6.8413 54.0449 8.84004 54.107 12.8361V23.9111H50.3429V13.0528C50.3429 11.9895 50.1132 11.2021 49.6537 10.6907C49.1943 10.1793 48.4431 9.92428 47.4 9.92428C45.8817 9.92428 44.7512 10.6105 44.0079 11.9844V23.9111H40.2438V7.15119H43.7905ZM76.754 15.7016C76.754 17.4259 77.1101 18.7766 77.8231 19.7525C78.5353 20.7284 79.5271 21.216 80.7969 21.216C82.0668 21.216 83.0557 20.7205 83.7629 19.7287C84.4708 18.7376 84.824 17.2864 84.824 15.3766C84.824 13.6827 84.46 12.3405 83.7326 11.3488C83.0044 10.3577 82.0155 9.86216 80.7659 9.86216C79.5372 9.86216 78.5613 10.3497 77.8382 11.3256C77.1159 12.3015 76.754 13.7599 76.754 15.7016ZM64.2379 9.86216C63.2049 9.86216 62.3714 10.2233 61.7364 10.9464C61.1015 11.6695 60.6955 12.6757 60.52 13.9665H67.6922V13.6877C67.6091 12.4279 67.2739 11.4759 66.6852 10.8301C66.0965 10.1843 65.281 9.86216 64.2379 9.86216ZM23.3741 9.86216C22.3412 9.86216 21.5076 10.2233 20.8726 10.9464C20.2377 11.6695 19.8317 12.6757 19.6562 13.9665H26.8284V13.6877C26.7453 12.4279 26.4101 11.4759 25.8214 10.8301C25.2327 10.1843 24.4172 9.86216 23.3741 9.86216ZM90.1802 7.43579C90.1304 7.29999 90.1506 7.14902 90.2337 7.03056C90.3167 6.91209 90.4525 6.8413 90.597 6.8413C91.713 6.8413 94.4001 6.8413 95.5154 6.8413C95.6606 6.8413 95.7964 6.91209 95.8795 7.03056C95.9626 7.14902 95.9828 7.29999 95.933 7.43579C95.4873 8.66306 94.4796 11.4369 94.1509 12.3427C94.0867 12.5182 93.9198 12.6345 93.7334 12.6345C93.4532 12.6345 92.66 12.6345 92.3798 12.6345C92.1934 12.6345 92.0265 12.5182 91.963 12.3427C91.6336 11.4369 90.6259 8.66306 90.1802 7.43579Z" fill="#F94339"/>
</g>
<defs>
<clipPath id="clip0_13955_16071">
<rect width="96" height="24.1218" fill="white"/>
</clipPath>
</defs>
</svg>
