<svg width="32" height="32" viewBox="0 0 32 32" fill="none" xmlns="http://www.w3.org/2000/svg">
<path fill-rule="evenodd" clip-rule="evenodd" d="M6.19765 6.66267C6.0249 6.54842 5.84243 6.44774 5.65217 6.36091L5.64455 6.35669L5.64345 6.35705C5.13914 6.12846 4.57899 6 3.9883 6C1.78564 6 0 7.77152 0 9.95676C0 9.97693 0.000683321 9.99692 0.001366 10.0169C0.00174422 10.028 0.00212225 10.039 0.00238377 10.0501C0.00119175 10.0874 0 10.1247 0 10.1629V22.1413C0 22.1733 0.000930749 22.205 0.00186129 22.2368C0.00220368 22.2485 0.00254603 22.2601 0.00284198 22.2718C0.00254529 22.2819 0.00220196 22.292 0.00185872 22.3021C0.000929036 22.3293 0 22.3566 0 22.3841C0 23.228 0.267195 24.0097 0.721077 24.652C1.38393 25.6771 2.44262 26.3408 3.63546 26.3408H28.1706C28.1788 26.3408 28.1868 26.3395 28.195 26.339C28.2196 26.3394 28.244 26.3408 28.2687 26.3408C30.2094 26.3408 31.7827 24.78 31.7827 22.8547C31.7825 21.6275 31.1428 20.5491 30.1766 19.928L29.6664 19.6388C29.6419 19.6239 6.19765 6.66267 6.19765 6.66267ZM29.1321 21.6349L28.652 21.3628L28.6243 21.3459C28.6522 21.3629 25.3238 19.5226 21.1325 17.2052C19.8005 16.4687 18.3814 15.684 16.9551 14.8954L5.23105 8.41358C5.231 8.41355 5.23016 8.41308 5.25112 8.37508L5.22998 8.41299L5.16055 8.3746L5.09439 8.33084C5.01518 8.27846 4.92892 8.23015 4.83581 8.18684L4.81777 8.17866C4.56542 8.06428 4.28616 8 3.9883 8C2.87967 8 2.00702 8.8839 2.00004 9.94394L2.0006 9.96037L2.00183 10.0029L2.00314 10.0584L2.00136 10.1139L2.00018 10.1538C2.00003 10.16 2 10.1628 2 10.1632V22.14C2 22.1402 2.00001 22.1405 2.00002 22.141C2.00005 22.1429 2.00013 22.1469 2.00031 22.154L2.0022 22.2212L2.00359 22.2759L2.00198 22.3306L2.00077 22.3679L2.00007 22.3892C2.00005 22.3899 2.00003 22.3905 2.00001 22.3911C2.00146 22.8028 2.13092 23.1815 2.35443 23.4978L2.3782 23.5315L2.40057 23.566C2.75655 24.1166 3.22746 24.3408 3.63546 24.3408H28.1005L28.1463 24.3377L28.2323 24.3393C28.2505 24.3397 28.266 24.3401 28.2764 24.3405L28.2849 24.3407C29.1282 24.3322 29.7825 23.6555 29.7827 22.855M27.9917 24.3493C27.9886 24.3496 27.986 24.3498 27.9856 24.3499L27.9886 24.3496L27.9917 24.3493ZM29.1321 21.6349C29.5332 21.9093 29.7825 22.3573 29.7827 22.855Z" fill="black"/>
<path d="M27.0034 8.24665C27.0472 8.22259 27.0968 8.19794 27.1531 8.17291L27.1656 8.16731L27.1741 8.16354C27.4173 8.0587 27.6848 8 27.9697 8C29.0799 8 29.9533 8.88707 29.9581 9.94892L29.9573 9.97314L29.956 10.0163L29.9538 10.1054L29.9582 10.1748V21.9022L31 22.5V24.9727C31.595 24.2249 31.9582 23.2272 31.9582 22.1315V10.1532C31.9582 10.1239 31.9572 10.095 31.9554 10.0664L31.9565 10.0298C31.9573 10.0055 31.9581 9.98125 31.9581 9.95676C31.9581 7.89383 30.3667 6.1996 28.3353 6.0164C28.2149 6.00555 28.093 6 27.9697 6C27.3972 6 26.8534 6.12058 26.3611 6.33615L26.3405 6.34541C26.2378 6.39107 26.1372 6.4405 26.0394 6.49432L13.721 12.5843L15.8096 13.7828L26.965 8.26777L27.0034 8.24665Z" fill="black"/>
<path opacity="0.2" d="M30.1766 19.928L29.6664 19.6388C29.6419 19.6239 6.19765 6.66267 6.19765 6.66267C6.0249 6.54842 5.84243 6.44774 5.65217 6.36091L5.64455 6.35669L5.64345 6.35705C5.13914 6.12846 4.57899 6 3.9883 6C1.78564 6 0 7.77152 0 9.95676C0 9.98811 0.00165022 10.019 0.00238377 10.0501C0.00119175 10.0874 0 10.1247 0 10.1629V22.1413C0 22.1851 0.00174166 22.2284 0.00284198 22.2718C0.00174166 22.3092 0 22.3465 0 22.3841C0 23.228 0.267195 24.0097 0.721077 24.652C1.38393 25.6771 2.44262 26.3408 3.63546 26.3408H28.1706C28.1788 26.3408 28.1868 26.3395 28.195 26.339C28.2196 26.3394 28.244 26.3408 28.2687 26.3408C30.2094 26.3408 31.7827 24.78 31.7827 22.8547C31.7825 21.6275 31.1428 20.5491 30.1766 19.928Z" fill="black"/>
</svg>
