<svg id="Capa_1" data-name="Capa 1" xmlns="http://www.w3.org/2000/svg" viewBox="0 0 1024 1024"><defs><style>.cls-1{fill:#fff;}.cls-2{fill:#c90606;}</style></defs><title>IMG Early Bird</title><g id="TdaPsH"><path class="cls-1" d="M723.57,913.17c9.44,1.5,17,4.31,24.26,3.58,24.06-2.43,48.66-3.64,71.85-9.82,56.46-15.07,85-75.82,63-129.76-12.44-30.48-46.56-53.12-75.64-50.85-13.25,1-20.64,8.38-24.41,20.08-3.5,10.89-3,20.92,6.49,29.49,10.79,9.69,8.72,21.47-5.3,24.41-29.47,6.18-51.51-.45-54.49-34.37-1.31-14.92-.45-30.24,1.29-45.17,3.79-32.57,7.86-65.16,13.47-97.46,9.15-52.63,16.47-105.44,20.18-158.72,4.41-63.15-8.18-122.33-42.5-176.09-25.49-39.93-60.45-66.7-107.62-76.47-81.85-17-157.92-4.38-229.57,40-75.94,47-154.13,154.39-117.86,290.87,9.82,37,18.86,74.13,28.89,111,9.47,34.83,10.64,70.2,8.56,105.88-.94,16.13-6.95,30.28-17.46,42.62-11.49,13.49-24.7,11.62-33.08-5.16,4.57-1.5,9.34-2.49,13.59-4.57,8.07-4,11.69-11,11.11-19.86-.75-11.4-13.63-27.28-24.62-29.56-30.8-6.39-60.19,12.62-67.45,35-7.36,22.64-6.66,44.68,6.47,65.28,12.37,19.42,27.91,35.58,48.74,46.13,4.23,2.14,8.31,4.58,12.24,6.75,0,7.3-.28,13.74.06,20.16.69,13,2.62,25.57,9.91,37,19.5,30.57,74.36,48.06,101.36,40.63,26.17-7.2,49.37-18.84,69-37.13,12.38-11.55,23.29-24.69,34.83-37.08,25.62,65.7,79.59,61,124.13,19.53,21.91,9,45,16.31,69.85,13C689,949,708.51,934.5,723.57,913.17ZM387,103.11c-8.23-6.31-15.88-12.09-23.43-18-13.15-10.28-25.82-21.24-39.47-30.79-12.94-9.06-17.91-6.74-21,8.26-1.87,9-3.34,18-4.52,27.07-1.93,14.77-3.48,29.59-5.35,45.81-6-1.25-11.12-2.22-16.22-3.43-9.43-2.24-18.73-5.12-28.25-6.78-8.52-1.49-12.34,2.62-10.92,11a61.6,61.6,0,0,0,4,12.27c5.78,14.5,11.14,29.21,17.73,43.34,8.86,19,18.21,37.85,28.29,56.24,9,16.35,14,17.36,31.43,9.44,1.47-.67,2.88-1.47,4.34-2.16,28.27-13.26,56.62-26.32,84.78-39.81,22.8-10.93,45.51-22.07,68-33.7,12.76-6.61,14.94-14.9,9.16-28-4.13-9.36-8-18.83-12.11-28.19C463.87,104,454.74,82.15,444.55,60.8c-6.29-13.18-12.06-13.61-21.19-2.64C411.33,72.6,399.7,87.38,387,103.11Z"/><path d="M723.57,913.17C708.51,934.5,689,949,662.85,952.47c-24.8,3.32-47.94-4-69.85-13C548.46,981,494.49,985.65,468.87,920,457.33,932.34,446.42,945.48,434,957c-19.61,18.29-42.81,29.93-69,37.13-27,7.43-81.86-10.06-101.36-40.63-7.29-11.43-9.22-24-9.91-37-.34-6.42-.06-12.86-.06-20.16-3.93-2.17-8-4.61-12.24-6.75-20.83-10.55-36.37-26.71-48.74-46.13-13.13-20.6-13.83-42.64-6.47-65.28,7.26-22.36,36.65-41.37,67.45-35,11,2.28,23.87,18.16,24.62,29.56.58,8.89-3,15.9-11.11,19.86-4.25,2.08-9,3.07-13.59,4.57,8.38,16.78,21.59,18.65,33.08,5.16,10.51-12.34,16.52-26.49,17.46-42.62,2.08-35.68.91-71-8.56-105.88-10-36.9-19.07-74.07-28.89-111C230.47,406.37,308.66,299,384.6,252c71.65-44.34,147.72-56.91,229.57-40,47.17,9.77,82.13,36.54,107.62,76.47,34.32,53.76,46.91,112.94,42.5,176.09-3.71,53.28-11,106.09-20.18,158.72-5.61,32.3-9.68,64.89-13.47,97.46-1.74,14.93-2.6,30.25-1.29,45.17,3,33.92,25,40.55,54.49,34.37,14-2.94,16.09-14.72,5.3-24.41-9.53-8.57-10-18.6-6.49-29.49,3.77-11.7,11.16-19,24.41-20.08,29.08-2.27,63.2,20.37,75.64,50.85,22,53.94-6.56,114.69-63,129.76-23.19,6.18-47.79,7.39-71.85,9.82C740.59,917.48,733,914.67,723.57,913.17ZM801.19,759.9c19.63,14.38,25.1,28.93,17,45.53-5.11,10.48-12.79,19.12-24.43,22.19-47.12,12.41-89.63-4.48-93.42-62.14-.25-3.76.07-7.55,0-11.32-.69-48.74,6.74-96.78,14.59-144.57,8.3-50.59,15.45-101.22,18.61-152.37,3.43-55.42-8.62-107.14-39.07-154-21.24-32.68-50.43-53.88-89.18-61.69-30.4-6.13-60.76-8.21-91.59-4.1-95.23,12.71-165.4,60.92-208.49,147.19-16.14,32.31-24.36,66.45-22.89,103a359.79,359.79,0,0,0,14.09,85.9c5.37,18.61,9.46,37.6,14.28,56.38,3.74,14.59,7.14,29.31,11.71,43.64a244.42,244.42,0,0,1,11.08,84.53c-1.06,27.39-12.05,50-32.66,67.9-14.67,12.77-33.09,12.82-48.62.24C234,811.47,229.78,793.92,240.58,775c2.79.56,6.32,2.41,8.76,1.45a12.67,12.67,0,0,0,6.89-7.28c.58-2-1.94-6.26-4.19-7.53-12-6.81-30.26-3.24-38,7.81-10.66,15.18-18,37.47-2.9,58.75,11.78,16.63,26.06,30,44.92,38.31,6.81,3,12.64,3.56,19.8-.28,14-7.5,29.17-8.87,43.36-.68,10.13,5.84,18.14,3.28,26.83-2.42,11.58-7.59,23.53-14.62,37.26-23.09,2.23-15.24,4.84-32.8,7.38-50.37,1.69-11.72,2.92-23.52,5.15-35.13.66-3.42,4-6.31,6.15-9.45l3.59,1c1,7.84,3.06,15.68,2.95,23.5-.32,25.29-.93,50.59-2.38,75.83C404.63,871.71,394.5,894,374.41,912,357,927.57,335.88,931.45,314.78,921c-5.66-2.79-9.77-6.41-8.47-14.87l21.52-3.1c-6.73-15.39-23.52-24.39-36.58-19.46-4.57,1.73-9.92,5.82-11.56,10.11-6.62,17.34-7.68,35.49,4.34,50.74,17.84,22.62,43.56,31,70.68,27,34.37-5,62.32-24.16,82.21-52.65a259.88,259.88,0,0,0,46.14-122.77c.54-5,1.82-10,2.9-15.82,14.92,5,14.71,16.57,13.87,25.88-2.33,26,.06,53.14-13.83,77.18-4.1,7.1-3.74,14.52-.58,21.79,3,6.9,5.83,14,9.75,20.35,12,19.4,29.9,25.45,51.6,18,27.63-9.45,46.44-39.48,43-68.67-1.63-13.84-13-26-26.9-28.89-10.5-2.15-18.64,2.4-19.9,11.13-1.17,8.05,3.9,14,14.15,15.67,4.33.72,10.15.49,9.13,6.11-.67,3.7-5.14,8.3-8.9,9.55-13,4.36-27.44-5-30.7-18.93-5.12-21.84,14.46-43.67,36.74-41.4,24,2.44,52.08,23,46.17,62.26-1.1,7.33-2.54,14.62-4.08,23.37,10.35,3.43,19.74,7.55,29.56,9.62,29.44,6.2,53.2-3.6,70.52-28,9.92-14,9.3-29.78,3.08-44.77-5.34-12.85-27.47-19.88-41.69-14.22,2.69,3.45,5.59,6.5,7.72,10,5.79,9.55,4.21,22.08-3.19,28-11.53,9.2-30,7.11-38.91-4.73A64.34,64.34,0,0,1,625.38,857c-7.84-17.68-9.6-36.39-8.08-55.41.84-10.47,4.9-15.52,10.94-15.55,6.23,0,9.42,5.05,10,15.76.5,9.14.24,18.43,1.91,27.36,1.35,7.23,4.45,14.35,7.92,20.91,3.33,6.32,8.92,8.63,17.15,3.89-2.36-3-3.87-5.65-6-7.55-10.4-9.21-10.77-16.9-1.32-27,6.42-6.84,14.36-9.05,23.41-8.68,28.64,1.16,51.06,21.94,53.76,50.57.8,8.48.12,17.09.12,26.07,4.55,1.39,8.05,3.41,11.52,3.36,24.3-.36,48.81-1.13,71.73-9.88,29.39-11.23,61.19-42.94,45-89.52-6.85-19.73-21.25-32.25-39.35-40.64C812.62,745.4,806.22,748.48,801.19,759.9ZM366.54,878c-6.12,5.42-12.35,10.74-18.21,16.44-.55.53,1.23,3.46,2,5.4C360.89,893.74,360.89,893.74,366.54,878Z"/><path d="M387,103.11c12.68-15.73,24.31-30.51,36.34-44.95,9.13-11,14.9-10.54,21.19,2.64,10.19,21.35,19.32,43.19,28.83,64.86,4.12,9.36,8,18.83,12.11,28.19,5.78,13.13,3.6,21.42-9.16,28-22.46,11.63-45.17,22.77-68,33.7-28.16,13.49-56.51,26.55-84.78,39.81-1.46.69-2.87,1.49-4.34,2.16-17.45,7.92-22.47,6.91-31.43-9.44-10.08-18.39-19.43-37.22-28.29-56.24-6.59-14.13-11.95-28.84-17.73-43.34a61.6,61.6,0,0,1-4-12.27c-1.42-8.38,2.4-12.49,10.92-11,9.52,1.66,18.82,4.54,28.25,6.78,5.1,1.21,10.26,2.18,16.22,3.43,1.87-16.22,3.42-31,5.35-45.81,1.18-9.07,2.65-18.12,4.52-27.07,3.12-15,8.09-17.32,21-8.26,13.65,9.55,26.32,20.51,39.47,30.79C371.14,91,378.79,96.8,387,103.11ZM306.18,242.29,467.89,164c-11.41-30.45-22.59-60.31-35-93.44-7.05,9.32-11.9,15.57-16.57,21.94-5.09,6.94-9.5,14.43-15.13,20.88-8.1,9.28-12.14,10.2-22.21,3.24-13.69-9.46-26.57-20.1-39.61-30.47-6.61-5.25-12.82-11-21.77-18.76-1,11.61-1.78,19.93-2.27,28.27-.89,15-.51,30.22-2.67,45.05-2,14.06-9.52,17.59-23.26,13.31-9.48-3-18.82-6.38-28.22-9.59l-2.21,2.7C274.88,179.18,290.79,211.25,306.18,242.29Z"/><path class="cls-1" d="M801.19,759.9c5-11.42,11.43-14.5,22.89-9.18,18.1,8.39,32.5,20.91,39.35,40.64,16.17,46.58-15.63,78.29-45,89.52-22.92,8.75-47.43,9.52-71.73,9.88-3.47,0-7-2-11.52-3.36,0-9,.68-17.59-.12-26.07-2.7-28.63-25.12-49.41-53.76-50.57-9-.37-17,1.84-23.41,8.68-9.45,10.08-9.08,17.77,1.32,27,2.15,1.9,3.66,4.54,6,7.55-8.23,4.74-13.82,2.43-17.15-3.89-3.47-6.56-6.57-13.68-7.92-20.91-1.67-8.93-1.41-18.22-1.91-27.36-.57-10.71-3.76-15.8-10-15.76-6,0-10.1,5.08-10.94,15.55-1.52,19,.24,37.73,8.08,55.41a64.34,64.34,0,0,0,7.21,12.59c8.93,11.84,27.38,13.93,38.91,4.73,7.4-5.92,9-18.45,3.19-28-2.13-3.51-5-6.56-7.72-10,14.22-5.66,36.35,1.37,41.69,14.22,6.22,15,6.84,30.79-3.08,44.77-17.32,24.38-41.08,34.18-70.52,28-9.82-2.07-19.21-6.19-29.56-9.62,1.54-8.75,3-16,4.08-23.37,5.91-39.27-22.15-59.82-46.17-62.26-22.28-2.27-41.86,19.56-36.74,41.4,3.26,13.91,17.67,23.29,30.7,18.93,3.76-1.25,8.23-5.85,8.9-9.55,1-5.62-4.8-5.39-9.13-6.11C546.89,871,541.82,865.09,543,857c1.26-8.73,9.4-13.28,19.9-11.13,13.9,2.84,25.27,15.05,26.9,28.89,3.42,29.19-15.39,59.22-43,68.67-21.7,7.42-39.64,1.37-51.6-18-3.92-6.37-6.75-13.45-9.75-20.35-3.16-7.27-3.52-14.69.58-21.79,13.89-24,11.5-51.13,13.83-77.18.84-9.31,1.05-20.91-13.87-25.88-1.08,5.81-2.36,10.77-2.9,15.82a259.88,259.88,0,0,1-46.14,122.77c-19.89,28.49-47.84,47.63-82.21,52.65-27.12,4-52.84-4.4-70.68-27-12-15.25-11-33.4-4.34-50.74,1.64-4.29,7-8.38,11.56-10.11,13.06-4.93,29.85,4.07,36.58,19.46l-21.52,3.1c-1.3,8.46,2.81,12.08,8.47,14.87,21.1,10.41,42.18,6.53,59.63-9.06,20.09-18,30.22-40.27,31.72-66.56,1.45-25.24,2.06-50.54,2.38-75.83.11-7.82-1.91-15.66-2.95-23.5l-3.59-1c-2.12,3.14-5.49,6-6.15,9.45-2.23,11.61-3.46,23.41-5.15,35.13-2.54,17.57-5.15,35.13-7.38,50.37-13.73,8.47-25.68,15.5-37.26,23.09-8.69,5.7-16.7,8.26-26.83,2.42-14.19-8.19-29.36-6.82-43.36.68-7.16,3.84-13,3.27-19.8.28-18.86-8.28-33.14-21.68-44.92-38.31-15.06-21.28-7.76-43.57,2.9-58.75,7.76-11,26-14.62,38-7.81,2.25,1.27,4.77,5.51,4.19,7.53a12.67,12.67,0,0,1-6.89,7.28c-2.44,1-6-.89-8.76-1.45-10.8,18.95-6.62,36.5,11.64,51.29,15.53,12.58,34,12.53,48.62-.24,20.61-17.94,31.6-40.51,32.66-67.9a244.42,244.42,0,0,0-11.08-84.53c-4.57-14.33-8-29.05-11.71-43.64-4.82-18.78-8.91-37.77-14.28-56.38a359.79,359.79,0,0,1-14.09-85.9c-1.47-36.59,6.75-70.73,22.89-103,43.09-86.27,113.26-134.48,208.49-147.19,30.83-4.11,61.19-2,91.59,4.1,38.75,7.81,67.94,29,89.18,61.69,30.45,46.85,42.5,98.57,39.07,154C730.4,508.37,723.25,559,715,609.59c-7.85,47.79-15.28,95.83-14.59,144.57.06,3.77-.26,7.56,0,11.32,3.79,57.66,46.3,74.55,93.42,62.14,11.64-3.07,19.32-11.71,24.43-22.19C826.29,788.83,820.82,774.28,801.19,759.9ZM403.37,565.8a94.26,94.26,0,0,0,71.05-29.19c38-39.61,29.86-100.05-16.58-129.24-44.44-27.93-103-7-125.6,25.94a91.49,91.49,0,0,0-11,21.44C302.3,509.27,343.17,564.33,403.37,565.8Zm217.17-7.23c31.21-1.9,60-17.27,77.78-49.86,22.94-42,5.41-93.06-38.22-112.89-31.9-14.5-62.45-8.18-90.78,9-32.92,19.93-47.39,60.18-36.48,95.44C543.68,535.25,576.85,558.75,620.54,558.57ZM513.46,742.05c17.1-1.84,34.56-2.1,51.22-5.89,26.73-6.09,52.73-14,73.91-33.87,29.33-27.53,26.09-75.33-2.51-102.48a39.3,39.3,0,0,0-26.25-11.1c-16.14-.53-32-.81-47.93,4.47a227.38,227.38,0,0,1-45.69,10c-12.62,1.44-25.68.15-38.43-1.09-10.14-1-20-4.68-30.16-5.43a221.6,221.6,0,0,0-38.64.14c-16.79,1.7-28.7,15-34,32C364.67,662,380.36,699.37,407,713,440.05,729.94,474.34,745.19,513.46,742.05Z"/><path class="cls-1" d="M366.54,878c-5.65,15.78-5.65,15.78-16.23,21.84-.75-1.94-2.53-4.87-2-5.4C354.19,888.7,360.42,883.38,366.54,878Z"/><path class="cls-2" d="M306.18,242.29c-15.39-31-31.3-63.11-47.21-95.18l2.21-2.7c9.4,3.21,18.74,6.63,28.22,9.59,13.74,4.28,21.22.75,23.26-13.31,2.16-14.83,1.78-30,2.67-45,.49-8.34,1.32-16.66,2.27-28.27,8.95,7.75,15.16,13.51,21.77,18.76,13,10.37,25.92,21,39.61,30.47,10.07,7,14.11,6,22.21-3.24,5.63-6.45,10-13.94,15.13-20.88,4.67-6.37,9.52-12.62,16.57-21.94,12.41,33.13,23.59,63,35,93.44Z"/><path d="M403.37,565.8c-60.2-1.47-101.07-56.53-82.12-111a91.49,91.49,0,0,1,11-21.44c22.57-32.92,81.16-53.87,125.6-25.94,46.44,29.19,54.57,89.63,16.58,129.24A94.26,94.26,0,0,1,403.37,565.8ZM433.3,429.1c-11.65.31-21.48,9.34-21.4,19.66.09,11.93,14,23.58,28,23.54,12.9,0,22.72-9.13,22-20.37C461.15,439.46,447.66,428.71,433.3,429.1ZM386,515.22A15.54,15.54,0,0,0,370.59,500c-8.16-.09-14.11,6-13.9,14.23a16,16,0,0,0,15.54,15.29C380.21,529.74,386.19,523.54,386,515.22Z"/><path d="M620.54,558.57c-43.69.18-76.86-23.32-87.7-58.34-10.91-35.26,3.56-75.51,36.48-95.44,28.33-17.15,58.88-23.47,90.78-9,43.63,19.83,61.16,70.85,38.22,112.89C680.54,541.3,651.75,556.67,620.54,558.57Zm19.61-98c12.62-.29,22-9.66,21.39-21.32-.6-11.19-8.25-17.18-21.3-16.68-11.94.47-22,9.19-22.19,19.3C617.83,452.29,628,460.9,640.15,460.61Zm-68,48.54c-1.19,10.16,6,19.62,15.64,20.62a18,18,0,0,0,19.4-15.17c1.45-9.34-6-18.82-16.07-20.48C581.79,492.56,573.36,499.24,572.19,509.15Z"/><path d="M513.46,742.05c-39.12,3.14-73.41-12.11-106.48-29-26.62-13.63-42.31-51-32-84.22,5.29-17,17.2-30.3,34-32a221.6,221.6,0,0,1,38.64-.14c10.13.75,20,4.45,30.16,5.43,12.75,1.24,25.81,2.53,38.43,1.09a227.38,227.38,0,0,0,45.69-10c15.91-5.28,31.79-5,47.93-4.47a39.3,39.3,0,0,1,26.25,11.1c28.6,27.15,31.84,75,2.51,102.48-21.18,19.87-47.18,27.78-73.91,33.87C548,740,530.56,740.21,513.46,742.05Zm40.61-19C551,687,548.09,653.62,545.2,620l-45.74,8v95.09ZM439.84,617c-1.83,28.1-3.76,53.7-4.93,79.33-.19,4.21,1.71,10.69,4.78,12.51,13.42,7.92,28,12.82,45.3,12V624.8Zm119.66-2c2.94,35.43,5.73,69.08,8.72,105.18l42.85-16.88c-6.82-33.53-13.2-64.91-20-98.58Zm-130.74,1.17c-4.46-.61-8.11-1.56-11.74-1.52-15.55.19-23.35,7-26.15,22.45-2.87,15.85,2,29.88,11.22,42.37,5.09,6.93,9.44,15.32,18.27,17.6C423.15,670.19,425.85,644.16,428.76,616.15ZM622.18,692.3c28.94-18.5,28.06-59.67,2.06-83.08-5.66-5.09-12.56-9.3-18.9-.86C610.93,636.2,616.4,663.51,622.18,692.3Z"/><path class="cls-1" d="M433.3,429.1c14.36-.39,27.85,10.36,28.64,22.83.72,11.24-9.1,20.33-22,20.37-14.06,0-27.95-11.61-28-23.54C411.82,438.44,421.65,429.41,433.3,429.1Z"/><path class="cls-1" d="M386,515.22c.17,8.32-5.81,14.52-13.79,14.29a16,16,0,0,1-15.54-15.29c-.21-8.23,5.74-14.32,13.9-14.23A15.54,15.54,0,0,1,386,515.22Z"/><path class="cls-1" d="M640.15,460.61c-12.15.29-22.32-8.32-22.1-18.7.21-10.11,10.25-18.83,22.19-19.3,13-.5,20.7,5.49,21.3,16.68C662.17,451,652.77,460.32,640.15,460.61Z"/><path class="cls-1" d="M572.19,509.15c1.17-9.91,9.6-16.59,19-15,10.08,1.66,17.52,11.14,16.07,20.48a18,18,0,0,1-19.4,15.17C578.17,528.77,571,519.31,572.19,509.15Z"/><path class="cls-1" d="M554.07,723.08H499.46V628l45.74-8C548.09,653.62,551,687,554.07,723.08Z"/><path class="cls-1" d="M439.84,617,485,624.8v96.07c-17.29.82-31.88-4.08-45.3-12-3.07-1.82-5-8.3-4.78-12.51C436.08,670.73,438,645.13,439.84,617Z"/><path class="cls-1" d="M559.5,615,591,604.7c6.84,33.67,13.22,65,20,98.58l-42.85,16.88C565.23,684.06,562.44,650.41,559.5,615Z"/><path class="cls-1" d="M428.76,616.15c-2.91,28-5.61,54-8.4,80.9-8.83-2.28-13.18-10.67-18.27-17.6C392.91,667,388,652.93,390.87,637.08c2.8-15.49,10.6-22.26,26.15-22.45C420.65,614.59,424.3,615.54,428.76,616.15Z"/><path class="cls-1" d="M622.18,692.3c-5.78-28.79-11.25-56.1-16.84-83.94,6.34-8.44,13.24-4.23,18.9.86C650.24,632.63,651.12,673.8,622.18,692.3Z"/></g></svg>