<svg id="Capa_1" data-name="Capa 1" xmlns="http://www.w3.org/2000/svg" viewBox="0 0 1024 1024"><defs><style>.cls-1{fill:#fff;}.cls-2{fill:#c90606;}</style></defs><title>IMG KILLER COMBO</title><path class="cls-1" d="M158.49,838.73c-1.48,8.95-3.41,17.89-4.32,26.93-.8,7.91-5.15,11.23-12.31,12.49a54.75,54.75,0,0,1-31.53-3.22c-16.88-7-26.79-.37-29.41,17.8a41.47,41.47,0,0,0,5.3,27.9c11,19,27.47,28.43,49,29.06,10.2.3,20.63.27,30.59-1.58,7.4-1.38,12.05,1.18,17.68,4.8,9,5.76,18.25,11.36,28.07,15.4,30.18,12.44,61.54,11.49,92.12,3.13,27.18-7.44,48.49-23.28,55.11-53.21.3-1.36,1.68-2.49,2.37-3.47,8,0,16.15-1.83,22.86.5,7.23,2.5,12.95,9.12,19.58,13.57,21.46,14.39,43.68,24.4,68.22,10.21,37.57,22.34,76,29.1,117.51,18.86,40.61-10,77.63-25.87,102.92-60.92,5.77,2.25,9.77,3.72,13.71,5.35,29,12,58,10.62,86.54-1.15,19.22-7.91,36.26-19.16,47.86-37,6-9.29,9.86-19.34,6-30.61-4.79-13.83-16.5-17.51-27.27-7.82C805.42,838,790,839.75,773.85,834c-9.44-3.34-18-9.41-26.56-14.92-6.78-4.37-8.88-10.3-7.81-19.27,3.59-30.1,3.1-60.08-5.56-89.71-8.12-27.81-14.75-56-21.79-83.13,3.06-7.62,6.81-14.71,8.79-22.27q42.6-162.53,84.8-325.16c9.23-35.34,18.83-70.59,28.2-105.65,9.72-2.69,19.17-4.47,22-15.23,4.49-17.2,8.83-34.43,13.36-51.61,2.12-8-.67-13.64-7.84-17.33-6-3.11-9.44-7.69-11.78-14.39-5.19-14.88-20.57-25.2-34.53-24.79-15.49.45-37.81,15.13-41.5,27.89-8.83,30.53-17.32,61.15-26.05,91.7-1.13,4-2.86,7.77-4.27,11.56-31.74-9.2-48.44-3-65,24.43-2.12-6.26-3.7-11.72-5.8-17-3.81-9.48-6.62-19.68-12.12-28.1-31.3-48-73.57-80.85-130.83-92.3-45-9-90.1-7.78-135,0C330.18,80,285.25,117.29,257.42,175.36c-20.2,42.17-19.75,86.49-9.7,131.22,1.14,5.07,2.24,10.14,3.55,16-8.38.67-15.44.53-22.17,1.93-9.41,2-19,4.1-27.66,8.12-4.64,2.16-9.88,8.08-10.55,12.9-4.35,31.59-5.51,63.34.16,95a32.68,32.68,0,0,0,17.61,23.93,124.9,124.9,0,0,0,23.91,9.43c10.27,2.88,20.89,4.53,31.75,6.79.24,4.34.9,8.09.58,11.75-2,23-3.53,46.13-6.51,69C250.38,623,225.13,677.15,184.8,724c-8.94,10.37-21.3,17.9-32.55,26.11-8.29,6-17.81,3.88-26.39.68-9.62-3.58-13.65-14.62-9.89-23.75,6.49-15.75-1.07-26.91-18-25.09-16.19,1.76-35,11-39.63,34.67-2.17,11-3.51,22.52-2.86,33.67,1.68,28.63,17.18,55.11,50.6,60.14C123.08,833,140,835.78,158.49,838.73Z"/><path d="M158.49,838.73c-18.48-3-35.41-5.78-52.38-8.34-33.42-5-48.92-31.51-50.6-60.14-.65-11.15.69-22.67,2.86-33.67C63,712.9,81.81,703.67,98,701.91c16.9-1.82,24.46,9.34,18,25.09-3.76,9.13.27,20.17,9.89,23.75,8.58,3.2,18.1,5.36,26.39-.68,11.25-8.21,23.61-15.74,32.55-26.11,40.33-46.81,65.58-100.94,73.59-162.49,3-22.9,4.5-46,6.51-69,.32-3.66-.34-7.41-.58-11.75-10.86-2.26-21.48-3.91-31.75-6.79a124.9,124.9,0,0,1-23.91-9.43,32.68,32.68,0,0,1-17.61-23.93c-5.67-31.63-4.51-63.38-.16-95,.67-4.82,5.91-10.74,10.55-12.9,8.62-4,18.25-6.15,27.66-8.12,6.73-1.4,13.79-1.26,22.17-1.93-1.31-5.9-2.41-11-3.55-16-10.05-44.73-10.5-89,9.7-131.22C285.25,117.29,330.18,80,394.57,68.81c44.9-7.79,90-9,135,0,57.26,11.45,99.53,44.32,130.83,92.3,5.5,8.42,8.31,18.62,12.12,28.1,2.1,5.24,3.68,10.7,5.8,17,16.53-27.43,33.23-33.63,65-24.43,1.41-3.79,3.14-7.59,4.27-11.56,8.73-30.55,17.22-61.17,26.05-91.7,3.69-12.76,26-27.44,41.5-27.89,14-.41,29.34,9.91,34.53,24.79,2.34,6.7,5.75,11.28,11.78,14.39,7.17,3.69,10,9.3,7.84,17.33-4.53,17.18-8.87,34.41-13.36,51.61-2.81,10.76-12.26,12.54-22,15.23-9.37,35.06-19,70.31-28.2,105.65q-42.45,162.57-84.8,325.16c-2,7.56-5.73,14.65-8.79,22.27,7,27.08,13.67,55.32,21.79,83.13,8.66,29.63,9.15,59.61,5.56,89.71-1.07,9,1,14.9,7.81,19.27,8.54,5.51,17.12,11.58,26.56,14.92,16.12,5.71,31.57,4,45.18-8.31,10.77-9.69,22.48-6,27.27,7.82,3.89,11.27.07,21.32-6,30.61-11.6,17.86-28.64,29.11-47.86,37C763.89,913,735,914.33,705.93,902.33c-3.94-1.63-7.94-3.1-13.71-5.35-25.29,35-62.31,50.89-102.92,60.92-41.48,10.24-79.94,3.48-117.51-18.86-24.54,14.19-46.76,4.18-68.22-10.21-6.63-4.45-12.35-11.07-19.58-13.57-6.71-2.33-14.86-.5-22.86-.5-.69,1-2.07,2.11-2.37,3.47-6.62,29.93-27.93,45.77-55.11,53.21-30.58,8.36-61.94,9.31-92.12-3.13-9.82-4-19.1-9.64-28.07-15.4-5.63-3.62-10.28-6.18-17.68-4.8-10,1.85-20.39,1.88-30.59,1.58-21.5-.63-37.95-10.05-49-29.06a41.47,41.47,0,0,1-5.3-27.9c2.62-18.17,12.53-24.79,29.41-17.8a54.75,54.75,0,0,0,31.53,3.22c7.16-1.26,11.51-4.58,12.31-12.49C155.08,856.62,157,847.68,158.49,838.73ZM395.72,625.59l3.37,1.09c0,4,.67,8.12-.13,12-2.21,10.53-4.39,21.14-7.72,31.35-13.33,40.86-18.84,83-20.82,125.65C369.28,820,371,844,381.09,867c10.79,24.61,25.8,44.77,51.8,54.77,7.43,2.85,14.89,5.79,22.47,1.79-29.82-75.24-20.4-141.09,42.4-196.88-14-13.53-10.32-29.52-5.6-45.26,7-23.2,15.22-46,21.63-69.39,3.49-12.71,10.47-21,22.29-25.54,6.91-2.65,11.14-7,14.7-13.69,6.84-12.77,17.82-19.58,33.7-16.95,1.62-5.2,3.31-10.26,4.78-15.38C612,461.18,634.32,381.8,657.67,302.71c4.87-16.5,5.7-32.71,4.69-49.41-.4-6.44-1.11-12.87-1.7-19.3-4.69-51.41-29-90.27-73.5-116.85-32.78-19.6-68.26-28-106.08-30.38a288,288,0,0,0-137,24.74c-23.2,10.31-42.52,25.46-54.95,48.2-21.24,38.86-26.49,80.44-19.73,123.65,2.15,13.72,6.79,27.05,10.56,41.57,5.54,1,11.35,1.9,17.06,3.23,13.08,3,26.21,6,39.14,9.6,12.18,3.42,18.17,12.05,20.09,24.62,4.49,29.39,1.6,58-7.18,86.22-6.79,21.85-16.52,29.55-39.51,31.58-6.8.6-13.62,1-20.42,1.53-.45,3.91-.91,6-.9,8.11.17,41.88-7.9,82.42-18.76,122.67-14.15,52.46-43.14,95.9-79.4,135.25-13,14.15-29.41,21.35-48.1,24.17-23,3.48-40.22-9.66-42.48-32.89-.61-6.22-.09-12.56-.09-18.95-14.66,1.88-21.22,7.3-23.76,20.66-3.54,18.58-.06,35.54,14.6,48.74,19.29,17.38,42,22.84,67.47,19.26,12.58-1.77,21.15-6.82,27.26-18.88,16.84-33.29,38-63.85,62-92.49,13.49-16.12,26.26-32.84,39.49-49.18,1.71-2.11,4.21-3.59,6.35-5.36l3,2c-4.51,8.89-8.33,18.22-13.7,26.55-10.21,15.86-20.71,31.6-32.17,46.57-25.06,32.75-43.43,69.35-62.82,105.44-12.2,22.7-15.57,46.87-14.79,72,.73,23.63,18.24,47.41,41.34,51.94,20.45,4,41.82,6.5,62.5,5.2,21.47-1.35,42.26-8.75,56.44-27.4,9.46-12.43,10.24-21.45.58-33.64-16.64-21-38.41-30.93-65.44-26.37-3.48.59-7.64,3.89-9.35,7.07-7.91,14.75-8.24,29.78.25,44.68,1.8,3.16,2.84,6.75,5.06,12.17-13.18-2.34-19.47-8.37-22.91-17.52-4.86-12.95-6.21-26-1.64-39.53,6.11-18.11,15.41-34.4,26.88-49.52,16.62-21.91,33.05-44,50.24-65.43,28.11-35.1,53.28-71.86,69.62-114.13C388.24,636.72,392.39,631.32,395.72,625.59ZM733.57,477.34c1.56-5.28,3-9.86,4.27-14.5,19.36-72.36,38.53-144.77,58.08-217.07,12.94-47.85,26.49-95.54,39.55-143.37,1.37-5,2.71-10.79,1.51-15.58-2.22-8.89-16-15.55-28.13-15.06-12.53.51-19.92,6.17-23,17.86C776.78,124,768.12,158.5,758.7,192.79Q708.81,374.4,658.52,555.89c-3.95,14.31-8,17.08-23.54,13.8-12.8-2.69-25.41-4-38.78-1.11-1.55,5.32-3.49,10.39-4.39,15.64-.48,2.84-.24,7.1,1.53,8.79,10.63,10.21,9.31,22.38,6.3,34.7-4.73,19.34-9.92,38.58-15,57.85-3.15,12-6.25,24-9.76,35.86-2.8,9.49-7.18,17.78-16.67,22.82-3.31,1.76-6.37,5.89-7.49,9.56C543.09,779,536,804.26,528,832.09c4.18,2.87,9.19,8.59,15.24,10.1,29.09,7.26,56.68,4,81.1-15.06,12.74-10,19.41-22.36,18.26-39.12q-2.22-32.25-2.66-64.63c-.59-43.82,12.85-82,48.77-109.21,8.63-6.54,12.7-13.9,15.2-23.42,2.94-11.14-1.89-20.11-13-23.29-2.55-.73-5.34-.56-8-.88-12.82-1.57-14.07-2.82-10.82-15.24,5-19.28,10.73-38.4,16.2-57.57,4.39-15.41,8.92-19.28,24.9-19.45C719.47,474.26,725.79,476.12,733.57,477.34ZM535.17,710.52c-11.43,9.91-22,18.23-31.63,27.59-32.22,31.4-52.12,68.48-49.71,114.81,1.6,30.89,10.77,58.54,39.09,75.55,18.87,11.32,40.63,17.42,61.76,16.11,60.54-3.76,109.42-29.05,140.14-84.17,19.12-34.3,31.91-69.71,24.15-109.54-4.63-23.75-10-47.4-16.32-70.76-3.85-14.27-10-27.9-16.36-45.05-6,7.46-10.37,11.93-13.55,17.15C659.64,673.64,655.4,697.4,657,722c1.45,22.47,4.67,44.82,6.55,67.27.48,5.75.49,12.6-2.17,17.33-6.79,12.07-13.62,24.81-23.27,34.45-24.91,24.86-56.56,29.39-90,24.61-32.75-4.68-46.29-27.51-36-59.44l7.35.81c4.89-15.36,9.79-30.18,14.32-45.12A78.71,78.71,0,0,1,560,722.58ZM644.32,556.74q48.31-177.3,96.7-354.81a54.66,54.66,0,0,0-5.53-4.58c-17.57-10.75-33.93-4.11-38.76,15.66-1,4.19-1.94,8.41-3.11,12.55Q650.3,377.85,606.93,530.15c-2,7.08-3.95,14.19-6.17,22.2Zm86.52,271.73-26.12,53.82C747.61,905.09,789,890,816,869c6.85-5.34,11.38-14,15.92-21.79,1.62-2.78.11-7.4,0-13.32C800,866,764,856.53,730.84,828.47Zm-371.4-88.92-3.07-.54q-15.92,20.22-31.8,40.48c-1.31,1.68-2.89,3.64-3.09,5.6-1.73,17.61-4,35.23-4.25,52.88-.1,5.47,4.51,11.62,8.28,16.43,8.61,11,18.14,21.17,27.07,31.89,4.85,5.82,10.29,9.07,19.34,6.63C342.85,843.6,351.64,791.53,359.44,739.55Zm184.38-137.9c-10.06.19-13.59,5.88-16,12.79-4.27,12.15-9,24.17-12.65,36.5-4.13,13.87-7.58,28-10.74,42.1-1.78,8-1.62,15.83,8.44,20.34l10.68-11.78c-10.77-27-8.14-28.83,15.69-29C557.39,649.84,542.36,625.49,543.82,601.65Zm-336.29-250,.29,4.58c2.74,1.39,5.34,3.4,8.25,4,14.66,3.3,29.28,7.58,44.16,9,19.69,1.83,39.61,1.59,59.43,1.61,5.45,0,12-.42,14.18-8.57-3.15-1.48-5.89-3-8.79-4.08C292.63,346,258.68,346,224.81,346.38,219,346.44,213.29,349.81,207.53,351.65Zm366,322.55c4.81-19,9.42-36.69,13.66-54.44,1.55-6.45,1.69-13.09-4.31-17.78-6.84-5.36-6.68-13.14-7.44-20.55-.43-4.17-.08-8.42-.08-13.34-8,.72-12.08,5.74-13.24,12.28-1.76,10-3.26,20.15-3,30.2.27,10.7,4,21.37,3.83,32-.22,10.34-3.56,20.62-5.67,31.63Zm138-113.89c5.38-19.81,10.77-39.46,16-59.15,2-7.52-2.38-10.86-8.83-12.7-9.86-2.83-15.9-1-18.23,7.13-5.18,18-9.62,36.13-14.34,54.12ZM151,892.86c-9.91,1-18.5,3.08-26.92,2.51-8.69-.58-17.19-3.71-25.8-5.73-2.39,15.08,1.3,24.38,13,29.45,14.36,6.19,29.37,9.73,45.59,6.49C154.94,914.58,153.06,904.16,151,892.86Zm145.89-48.05v-28.7c-9,9.94-17.32,16.84-20.86,28.7Zm240.92-157c6.24,9.87,15,15.48,27.47,15.69,1.08-4.39,2-8.18,3.09-12.53Zm298.74-536c8.28-11.36,14.37-40.54,11.65-51.12C841.78,118.39,837.52,134.8,836.57,151.83Z"/><path class="cls-1" d="M395.72,625.59c-3.33,5.73-7.48,11.13-9.84,17.23-16.34,42.27-41.51,79-69.62,114.13-17.19,21.45-33.62,43.52-50.24,65.43-11.47,15.12-20.77,31.41-26.88,49.52-4.57,13.53-3.22,26.58,1.64,39.53,3.44,9.15,9.73,15.18,22.91,17.52-2.22-5.42-3.26-9-5.06-12.17-8.49-14.9-8.16-29.93-.25-44.68,1.71-3.18,5.87-6.48,9.35-7.07,27-4.56,48.8,5.37,65.44,26.37,9.66,12.19,8.88,21.21-.58,33.64-14.18,18.65-35,26.05-56.44,27.4-20.68,1.3-42-1.2-62.5-5.2-23.1-4.53-40.61-28.31-41.34-51.94-.78-25.09,2.59-49.26,14.79-72,19.39-36.09,37.76-72.69,62.82-105.44,11.46-15,22-30.71,32.17-46.57,5.37-8.33,9.19-17.66,13.7-26.55l-3-2c-2.14,1.77-4.64,3.25-6.35,5.36-13.23,16.34-26,33.06-39.49,49.18-24,28.64-45.16,59.2-62,92.49-6.11,12.06-14.68,17.11-27.26,18.88-25.49,3.58-48.18-1.88-67.47-19.26-14.66-13.2-18.14-30.16-14.6-48.74,2.54-13.36,9.1-18.78,23.76-20.66,0,6.39-.52,12.73.09,18.95,2.26,23.23,19.49,36.37,42.48,32.89,18.69-2.82,35.07-10,48.1-24.17,36.26-39.35,65.25-82.79,79.4-135.25,10.86-40.25,18.93-80.79,18.76-122.67,0-2.1.45-4.2.9-8.11,6.8-.5,13.62-.93,20.42-1.53,23-2,32.72-9.73,39.51-31.58,8.78-28.19,11.67-56.83,7.18-86.22-1.92-12.57-7.91-21.2-20.09-24.62-12.93-3.63-26.06-6.55-39.14-9.6-5.71-1.33-11.52-2.2-17.06-3.23-3.77-14.52-8.41-27.85-10.56-41.57-6.76-43.21-1.51-84.79,19.73-123.65,12.43-22.74,31.75-37.89,54.95-48.2a288,288,0,0,1,137-24.74c37.82,2.36,73.3,10.78,106.08,30.38C631.62,143.73,656,182.59,660.66,234c.59,6.43,1.3,12.86,1.7,19.3,1,16.7.18,32.91-4.69,49.41C634.32,381.8,612,461.18,589.26,540.45c-1.47,5.12-3.16,10.18-4.78,15.38-15.88-2.63-26.86,4.18-33.7,16.95-3.56,6.65-7.79,11-14.7,13.69C524.26,591,517.28,599.3,513.79,612c-6.41,23.35-14.67,46.19-21.63,69.39-4.72,15.74-8.44,31.73,5.6,45.26-62.8,55.79-72.22,121.64-42.4,196.88-7.58,4-15,1.06-22.47-1.79-26-10-41-30.16-51.8-54.77-10-22.94-11.81-47-10.67-71.35,2-42.64,7.49-84.79,20.82-125.65,3.33-10.21,5.51-20.82,7.72-31.35.8-3.83.13-8,.13-12Zm53.55-290.27c-18.09.89-31,1-43.86,2.32s-18.87,6.71-20.83,18.91c-4.2,26-8,52.24-4.09,78.7,4.74,31.72,7.64,38.73,44.92,44.13,24.3,3.51,49.32,2,74,3,24.52,1,35.69-12.73,41.64-32.76,6.54-22,7.13-44.72,5.06-67.24-2.19-23.81-9.64-32.27-33.32-37.26C490.24,340.36,467.18,338,449.27,335.32ZM361.4,525.88l-.15.93c-5.37,0-10.76-.26-16.11.08-5,.32-10.75,1.62-9.84,7.8.42,2.85,5.51,5.17,8.74,7.34,1.19.81,3.12.61,4.73.72,17.15,1.16,34.29,2.61,51.47,3.13,3.35.11,8.7-2.64,9.81-5.4,2.13-5.29-3-7.4-7.34-8.14C389,530,375.17,528,361.4,525.88Z"/><path class="cls-2" d="M733.57,477.34c-7.78-1.22-14.1-3.08-20.4-3-16,.17-20.51,4-24.9,19.45-5.47,19.17-11.16,38.29-16.2,57.57-3.25,12.42-2,13.67,10.82,15.24,2.66.32,5.45.15,8,.88,11.11,3.18,15.94,12.15,13,23.29-2.5,9.52-6.57,16.88-15.2,23.42-35.92,27.21-49.36,65.39-48.77,109.21q.44,32.34,2.66,64.63c1.15,16.76-5.52,29.16-18.26,39.12-24.42,19.09-52,22.32-81.1,15.06-6.05-1.51-11.06-7.23-15.24-10.1,8-27.83,15.11-53.14,22.75-78.29,1.12-3.67,4.18-7.8,7.49-9.56,9.49-5,13.87-13.33,16.67-22.82,3.51-11.88,6.61-23.88,9.76-35.86,5.07-19.27,10.26-38.51,15-57.85,3-12.32,4.33-24.49-6.3-34.7-1.77-1.69-2-6-1.53-8.79.9-5.25,2.84-10.32,4.39-15.64,13.37-2.88,26-1.58,38.78,1.11,15.55,3.28,19.59.51,23.54-13.8q50.13-181.53,100.18-363.1c9.42-34.29,18.08-68.78,27.15-103.17,3.08-11.69,10.47-17.35,23-17.86,12.1-.49,25.91,6.17,28.13,15.06,1.2,4.79-.14,10.57-1.51,15.58-13.06,47.83-26.61,95.52-39.55,143.37-19.55,72.3-38.72,144.71-58.08,217.07C736.59,467.48,735.13,472.06,733.57,477.34Z"/><path class="cls-1" d="M535.17,710.52,560,722.58a78.71,78.71,0,0,0-26.15,39.35c-4.53,14.94-9.43,29.76-14.32,45.12l-7.35-.8c-10.33,31.92,3.21,54.75,36,59.43,33.41,4.78,65.06.25,90-24.61,9.65-9.64,16.48-22.38,23.27-34.45,2.66-4.73,2.65-11.58,2.17-17.33-1.88-22.45-5.1-44.8-6.55-67.27-1.6-24.62,2.64-48.38,15.74-69.81,3.18-5.22,7.59-9.69,13.55-17.15,6.33,17.15,12.51,30.78,16.36,45.05,6.29,23.36,11.69,47,16.32,70.76,7.76,39.83-5,75.24-24.15,109.54-30.72,55.12-79.6,80.41-140.14,84.17-21.13,1.31-42.89-4.79-61.76-16.11-28.32-17-37.49-44.66-39.09-75.55-2.41-46.33,17.49-83.41,49.71-114.81C513.13,728.75,523.74,720.43,535.17,710.52Z"/><path class="cls-2" d="M644.32,556.74l-43.56-4.39c2.22-8,4.15-15.12,6.17-22.2q43.34-152.29,86.69-304.59c1.17-4.14,2.08-8.36,3.11-12.55,4.83-19.77,21.19-26.41,38.76-15.66a54.66,54.66,0,0,1,5.53,4.58Q692.63,379.44,644.32,556.74Z"/><path class="cls-1" d="M730.84,828.47C764,856.53,800,866,831.89,833.84c.13,5.92,1.64,10.54,0,13.32-4.54,7.76-9.07,16.45-15.92,21.79-27,21-68.38,36.14-111.27,13.34Z"/><path class="cls-1" d="M359.44,739.55c-7.8,52-16.59,104.05,12.48,153.37-9.05,2.44-14.49-.81-19.34-6.63-8.93-10.72-18.46-20.94-27.07-31.89-3.77-4.81-8.38-11-8.28-16.43.3-17.65,2.52-35.27,4.25-52.88.2-2,1.78-3.92,3.09-5.6Q340.4,759.2,356.37,739Z"/><path class="cls-1" d="M543.82,601.65c-1.46,23.84,13.57,48.19-4.61,70.93-23.83.19-26.46,2-15.69,29l-10.68,11.78C502.78,708.87,502.62,701,504.4,693c3.16-14.13,6.61-28.23,10.74-42.1,3.66-12.33,8.38-24.35,12.65-36.5C530.23,607.53,533.76,601.84,543.82,601.65Z"/><path class="cls-1" d="M207.53,351.65c5.76-1.84,11.5-5.21,17.28-5.27,33.87-.37,67.82-.38,100.24,11.83,2.9,1.09,5.64,2.6,8.79,4.08-2.19,8.15-8.73,8.58-14.18,8.57-19.82,0-39.74.22-59.43-1.61-14.88-1.39-29.5-5.67-44.16-9-2.91-.65-5.51-2.66-8.25-4Z"/><path class="cls-1" d="M573.54,674.2H557.29c2.11-11,5.45-21.29,5.67-31.63.22-10.63-3.56-21.3-3.83-32-.26-10.05,1.24-20.25,3-30.2,1.16-6.54,5.21-11.56,13.24-12.28,0,4.92-.35,9.17.08,13.34.76,7.41.6,15.19,7.44,20.55,6,4.69,5.86,11.33,4.31,17.78C583,637.51,578.35,655.17,573.54,674.2Z"/><path class="cls-1" d="M711.49,560.31l-25.39-10.6c4.72-18,9.16-36.16,14.34-54.12,2.33-8.1,8.37-10,18.23-7.13,6.45,1.84,10.84,5.18,8.83,12.7C722.26,520.85,716.87,540.5,711.49,560.31Z"/><path class="cls-1" d="M151,892.86c2,11.3,3.92,21.72,5.91,32.72-16.22,3.24-31.23-.3-45.59-6.49-11.74-5.07-15.43-14.37-13-29.45,8.61,2,17.11,5.15,25.8,5.73C132.52,895.94,141.11,893.9,151,892.86Z"/><path class="cls-1" d="M296.91,844.81H276.05c3.54-11.86,11.87-18.76,20.86-28.7Z"/><path class="cls-2" d="M537.83,687.81,568.39,691c-1.08,4.35-2,8.14-3.09,12.53C552.79,703.29,544.07,697.68,537.83,687.81Z"/><path class="cls-1" d="M836.57,151.83c.95-17,5.21-33.44,11.65-51.12C850.94,111.29,844.85,140.47,836.57,151.83Z"/><path d="M449.27,335.32c17.91,2.68,41,5,63.52,9.79,23.68,5,31.13,13.45,33.32,37.26,2.07,22.52,1.48,45.22-5.06,67.24-5.95,20-17.12,33.78-41.64,32.76-24.68-1-49.7.52-74-3-37.28-5.4-40.18-12.41-44.92-44.13-3.95-26.46-.11-52.66,4.09-78.7,2-12.2,8.13-17.59,20.83-18.91S431.18,336.21,449.27,335.32Zm-40,26.86c11.11,3,22.05,7,33.35,8.89,18.46,3.1,37.11,5.33,55.76,6.93,6.3.54,13.88.79,18.56-6.16C496.27,358.77,438.36,351.83,409.31,362.18Z"/><path d="M361.4,525.88c13.77,2.12,27.57,4.1,41.31,6.46,4.3.74,9.47,2.85,7.34,8.14-1.11,2.76-6.46,5.51-9.81,5.4-17.18-.52-34.32-2-51.47-3.13-1.61-.11-3.54.09-4.73-.72-3.23-2.17-8.32-4.49-8.74-7.34-.91-6.18,4.87-7.48,9.84-7.8,5.35-.34,10.74-.08,16.11-.08Z"/><path class="cls-1" d="M409.31,362.18c29.05-10.35,87-3.41,107.67,9.66-4.68,7-12.26,6.7-18.56,6.16-18.65-1.6-37.3-3.83-55.76-6.93C431.36,369.17,420.42,365.21,409.31,362.18Z"/></svg>