<svg id="Capa_1" data-name="Capa 1" xmlns="http://www.w3.org/2000/svg" viewBox="0 0 1024 1024"><defs><style>.cls-1{fill:#fff;}.cls-2{fill:#c90606;}</style></defs><title>IMG MECENAS</title><path class="cls-1" d="M647.3,251c-1.63-4.34-2.7-6.4-3.17-8.59C632.91,191,621.57,139.66,610.74,88.21a57.05,57.05,0,0,0-13.6-27c-17.52-19.88-40.74-26.7-65.56-29.79-45.76-5.7-90.12,1.45-133.38,16.24-39.32,13.45-76.32,31.51-106,61.35a134.4,134.4,0,0,0-24.92,34.46c-7.4,15-9.34,31.66-1.92,48,16.1,35.37,32.4,70.65,48.21,106.14,4.59,10.28,7.82,21.17,11.89,32.4-10.43,6.69-19.71,12.24-28.57,18.39-17.68,12.27-32.4,27.39-41.2,47.29-10.32,23.35-4.1,45.63,16.39,60.85,13.14,9.77,28.36,14.55,44.1,18.1,4.75,1.07,9.35,2.77,14.18,4.22-7.42,28-5.86,54.21,4.84,79,12,27.77,25.89,54.73,39,82,10.41,21.62,22.14,42.71,31.11,64.91a146.14,146.14,0,0,1,8.22,82.58c-6.71,36.17-33.61,64.3-69.43,72.05-17.16,3.72-29.72-1.27-38.3-15.23-9.34-15.18-8.39-28.72,3-42.39,1.46-1.75,3.24-3.25,4.62-5.06,6.43-8.47,5.07-17.89-4-23.37-10.1-6.11-21.33-6.7-30.79.12-9.13,6.58-18.13,14.36-24.56,23.47-41.5,58.73-15.7,158.35,72.26,172.52,6.71,1.08,13.4,2.31,19.7,3.4,11.75,26.1,30.82,38.92,58.25,37.14,40.6-2.65,77.43-15.87,106.42-45.43,19.83-20.23,38-42,57.91-64.2,5.14,8.54,10.63,17.74,16.2,26.9,12.68,20.84,27.44,40,51,49.07,40.17,15.51,79.5,14.2,116.58-9.46,16.75-10.69,26.43-26.66,30.69-45.84,1.19-5.35,1.06-11,1.56-16.8,14.83.9,25.58-5.5,34-15.32,9.67-11.25,18.73-23.07,27.33-35.16,25-35.2,11.55-92.17-10.72-115.18a101.9,101.9,0,0,0-17.22-13.94c-15.75-10.41-31.31-8.74-46.34,1.95-16.94,12.05-18.94,30.4-3.93,44.93,5,4.81,6.3,9.27,4.36,15.09-1.8,5.39-3.61,11-6.65,15.71a25.9,25.9,0,0,1-42.35,2.45C719,799.49,715.78,793.17,713,787c-10.35-23.29-10.36-48-7.83-72.57,6-58.59,14.35-117,18.82-175.69,4.23-55.45,5.51-111.34-32.39-159.09,6-5.23,12.39-9.45,17.08-15.06,10.21-12.19,21.59-24,28.81-37.93,11.77-22.67,4.79-45.54-16.08-60.48-12.64-9-26.2-16.18-42.72-15.26C668.5,251.45,658.23,251,647.3,251Z"/><path class="cls-1" d="M921.26,586.35c0-.17.07-.34.11-.5,6.29,0,12.66-.67,18.84.12,20.78,2.66,32.6-10.67,43.4-24.66,6.5-8.42,3.6-14.49-6.52-17.95-15.65-5.35-31.23-11-47.06-15.73-8.22-2.47-14-6.32-17.49-14.55-6-14.28-17.33-22.3-32.45-25.06-23-4.2-46-8.57-69.06-12.44-22.4-3.76-47.77,13.48-53.34,35.75-2.2,8.79.33,13,9.37,14.47,6.19,1,12.56,2.34,18.71,1.83C809.22,525.7,822.44,538,831.18,558c6,13.78,17.65,20.79,32.16,22.53C882.6,582.86,902,584.45,921.26,586.35Z"/><path class="cls-1" d="M189.19,660c-2.7-8.86-3-17.7-13.11-19.67-18.49-3.59-36.86-7.94-55.44-11-10.56-1.74-16.07,4.25-15.75,14.87.78,26,12.22,41.55,37.14,48.87a299.35,299.35,0,0,0,96.55,11.51,54,54,0,0,0,25.59-8.33c23.44-14.88,35.66-38,42.18-64.2,2.76-11.06-.19-14.06-11.6-16.25-16.25-3.12-32.54-6.08-48.78-9.24-11.55-2.25-16.65.3-21.32,11.23-3.8,8.9-7.43,17.89-11.27,26.78C209.1,654.52,201.25,659,189.19,660Z"/><path class="cls-1" d="M147.34,791.79c-3.51,8.81-6,14.37-8,20.13q-10,30-38.27,44c-7.14,3.57-14.65,6.39-21.76,10-3.74,1.9-7,4.77-10.36,7.14,1.44,3.22,1.72,5.25,2.88,6.2,15,12.26,30.3,24.15,45.14,36.59,12.35,10.37,24.15,6.92,36-.36,27.31-16.76,42.32-42.36,51.71-72.07,2.51-8-.3-13.12-6.8-17.33-8.14-5.28-16.17-10.73-24.2-16.18S158,799.11,147.34,791.79Z"/><path d="M647.3,251c10.93,0,21.2.47,31.41-.11,16.52-.92,30.08,6.22,42.72,15.26,20.87,14.94,27.85,37.81,16.08,60.48-7.22,13.9-18.6,25.74-28.81,37.93-4.69,5.61-11,9.83-17.08,15.06,37.9,47.75,36.62,103.64,32.39,159.09-4.47,58.7-12.78,117.1-18.82,175.69C702.66,739,702.67,763.66,713,787c2.76,6.22,5.93,12.54,10.19,17.77a25.9,25.9,0,0,0,42.35-2.45c3-4.72,4.85-10.32,6.65-15.71,1.94-5.82.61-10.28-4.36-15.09-15-14.53-13-32.88,3.93-44.93,15-10.69,30.59-12.36,46.34-1.95a101.9,101.9,0,0,1,17.22,13.94c22.27,23,35.74,80,10.72,115.18-8.6,12.09-17.66,23.91-27.33,35.16-8.45,9.82-19.2,16.22-34,15.32-.5,5.81-.37,11.45-1.56,16.8-4.26,19.18-13.94,35.15-30.69,45.84-37.08,23.66-76.41,25-116.58,9.46-23.55-9.1-38.31-28.23-51-49.07-5.57-9.16-11.06-18.36-16.2-26.9-19.88,22.16-38.08,44-57.91,64.2-29,29.56-65.82,42.78-106.42,45.43-27.43,1.78-46.5-11-58.25-37.14-6.3-1.09-13-2.32-19.7-3.4-88-14.17-113.76-113.79-72.26-172.52,6.43-9.11,15.43-16.89,24.56-23.47,9.46-6.82,20.69-6.23,30.79-.12,9.06,5.48,10.42,14.9,4,23.37-1.38,1.81-3.16,3.31-4.62,5.06-11.41,13.67-12.36,27.21-3,42.39,8.58,14,21.14,19,38.3,15.23,35.82-7.75,62.72-35.88,69.43-72.05a146.14,146.14,0,0,0-8.22-82.58c-9-22.2-20.7-43.29-31.11-64.91-13.14-27.29-27-54.25-39-82-10.7-24.79-12.26-51-4.84-79-4.83-1.45-9.43-3.15-14.18-4.22-15.74-3.55-31-8.33-44.1-18.1-20.49-15.22-26.71-37.5-16.39-60.85,8.8-19.9,23.52-35,41.2-47.29,8.86-6.15,18.14-11.7,28.57-18.39-4.07-11.23-7.3-22.12-11.89-32.4-15.81-35.49-32.11-70.77-48.21-106.14-7.42-16.3-5.48-33,1.92-48A134.4,134.4,0,0,1,292.21,109c29.67-29.84,66.67-47.9,106-61.35,43.26-14.79,87.62-21.94,133.38-16.24,24.82,3.09,48,9.91,65.56,29.79a57.05,57.05,0,0,1,13.6,27c10.83,51.45,22.17,102.81,33.39,154.18C644.6,244.58,645.67,246.64,647.3,251ZM346.47,943.35c.51-2.82.81-5.58,1.52-8.23,4.46-16.89,11.12-32.5,26-43.08,18.33-13,36.38-7.2,43.25,13.94,1.54,4.73,2.77,9.58,4.2,14.57,17.5-.67,29.26-9.45,36.69-23a204.36,204.36,0,0,0,16.6-39.3c4.72-15.82,6.83-32.4,10.58-48.54,2-8.41,5-16.57,7.55-24.84l3.57.57c.61,3.12,1.88,6.28,1.71,9.36-.8,14.83-1,29.8-3.27,44.42-3.85,24.56-13.41,47.25-26.74,68.21-8.23,12.93-19.26,22.74-34.45,26.67s-25.38-1.84-27.83-16.41c-1.15-6.84-3.18-12.36-9.66-14.82-7.56-2.86-13.75,1.3-18.14,6.6C367,922.83,361,938,366.79,955.5c5.68,17.12,18.68,26.19,35.86,27.57,23.82,1.9,47-1.58,66.8-16.49,14.61-11,29.21-22.15,42.76-34.41,24.86-22.49,42-49.7,46.29-83.72,2.1-16.43,4-32.89,6-49.33.89-7.18.2-15.09,10.61-20.47,2.2,5.19,5.88,9.91,6,14.68.31,20,.86,40.11-1.28,59.9-1.51,14,1,25.94,7.64,37.59,5.68,9.91,11.33,19.86,17.54,29.44,8.73,13.46,18,26.77,32.59,34.56,31.79,16.95,64,15.67,95.16-.93a71.78,71.78,0,0,0,24-21.18c18.31-25.84-.21-48.57-22-57a18.06,18.06,0,0,0-24.18,12.79c-.91,4.21,1.29,9.76,3.73,13.66.79,1.26,7-.44,10.49-1.41,3-.82,5.77-2.51,8.91-3.94,3,15.91-1,23.27-14.6,26-15.27,3.09-29.68.39-42.09-9.56-16-12.87-27.73-29-33.15-48.91-7.91-29.1-9-58.68-4.09-88.42.48-3,2.55-5.66,5.57-12,1.17,8.2,1.94,12.41,2.35,16.67,1.92,19.89,2.77,39.94,5.84,59.65,4,25.86,20.26,43.46,42.4,57.65,2.94-43.58,42.45-47.64,64-27.95,8.28,7.57,15.47,16.34,23.24,24.65,21.58-9.28,34.65-28,46.2-48,19.47-33.68,12.71-66-6.7-96.93-3.49-5.57-9.53-9.75-14.92-13.88-7.72-5.91-15.8-5.26-23.91-.09-7.9,5-13.1,11-9.76,21.07,15.46,9.08,18.73,15.16,14.07,32-2.69,9.73-6.63,19.63-12.26,27.94-10.85,16-28.19,20.88-46.92,16.26-16.21-4-24.34-16-31.49-29.38-13.44-25.09-16.73-52.55-14.69-80,3.34-45,8.77-89.91,14-134.77,5-42.65,9.78-85.15,4.61-128.24-3.09-25.69-10.34-48.91-28.81-68.18-100.15,59.46-207.81,89.17-325.49,88.3-.95,6.07-2.26,12-2.78,18.07-2.26,26.24,7.83,49.28,19.16,71.94,20.45,40.9,41.56,81.48,61.17,122.78,13.3,28,16.19,58.12,12.52,88.91C432,825.54,395,876.35,339.74,880.44c-23.19,1.72-43.53-9.06-51.18-29.3-8.08-21.34-9.4-44.7,14.13-59.17.48-.3.06-2.06.06-3.45-7-4.88-14.09-4.2-20.51.68-5.87,4.46-11.79,9.22-16.44,14.88-23.83,29-23.45,74.1,2,102.7C277.54,917.69,290.32,926,302,935,315.08,945.06,330,946.78,346.47,943.35ZM333.28,211.12c10.72,20.63,21.9,41.17,32.09,62.18a131.26,131.26,0,0,1,9.95,29c2,9.23.18,19.5,11.24,24.75,1.8.86,3.14,5.13,2.84,7.6-2.31,19.18,7,35.4,12.62,53.31,10.43,1.64,20.7,3.63,31.69-.2-4-13-4.79-27.39-12.16-36.17-10-12-10.15-21.66-1.95-34.54-15.17-7.53-19-21.1-22.06-35.43-2.86-13.39-7.1-26.49-10-39.88-2.6-12.1-4.18-24.42-6.33-37.39,7.17-1.8,12.54-3.37,18-4.51,55.19-11.5,107.9-29.81,156.28-59,12-7.24,22.26-17.64,32.42-27.51,4.85-4.71,8.71-11.37,4.9-19.46-7.85,8.8-14,17.83-22.19,24.36a285.28,285.28,0,0,1-37,24.62C496.55,163.9,456,175.73,415,186.3c-39.28,10.12-78.88,12.48-119,6.21-3.64-.57-7.35-.64-14.75-1.25C296.73,209,314.17,211.05,333.28,211.12Zm96.6,201.17c-12.18-1.11-23.32-2.68-34.48-2.85-3.82-.05-8.24,2.71-11.44,5.35C370.37,426,357.1,437.61,343.8,449.18c-2.66,2.32-4.95,5.08-10.36,10.7,20.85.67,37.75,1.43,54.65,1.53a12.32,12.32,0,0,0,8.53-4.36C407.65,442.76,418.21,428.11,429.88,412.29ZM459,399.35c11.16,9,20.95,6.22,29.93,4.61,42-7.52,80.85-23.61,117.36-45.22a127.76,127.76,0,0,0,43.57-42.82c3.28-5.27,5-11.55,7.38-17.37l-3.33-1.64c-2.22,3-4.25,6.21-6.67,9.06-9.52,11.22-17.74,24.1-29,33.14-29.76,23.82-63.46,40.11-101.59,46.21-12.37,2-24.67,4.56-36.88,7.35C473.4,394.11,467.34,396.61,459,399.35Z"/><path d="M921.26,586.35c-19.31-1.9-38.66-3.49-57.92-5.8-14.51-1.74-26.16-8.75-32.16-22.53-8.74-20-22-32.32-45.41-30.39-6.15.51-12.52-.82-18.71-1.83-9-1.49-11.57-5.68-9.37-14.47,5.57-22.27,30.94-39.51,53.34-35.75,23.07,3.87,46.05,8.24,69.06,12.44,15.12,2.76,26.48,10.78,32.45,25.06,3.45,8.23,9.27,12.08,17.49,14.55,15.83,4.75,31.41,10.38,47.06,15.73,10.12,3.46,13,9.53,6.52,17.95-10.8,14-22.62,27.32-43.4,24.66-6.18-.79-12.55-.12-18.84-.12C921.33,586,921.3,586.18,921.26,586.35Zm13.67-12.56c-16.51-15.14-19.11-19.19-29.92-43.43a113.65,113.65,0,0,0-10.61-19.53c-6.6-9.28-12.82-10.55-21.86-4-6.39,4.63-13,10.14-16.85,16.79C851,531.71,845,535.93,835.08,536c4.19,7.42,6.7,14.08,11.1,19.08,4.7,5.34,10.6,11.6,17,13.11A224.49,224.49,0,0,0,934.93,573.79Zm-69-78.74c-25-3.19-47.5-6.23-70.09-8.74a12,12,0,0,0-9,3.44c-5.48,6.26-10.1,13.27-16.22,21.57l71.31,9.4Zm58.58,43.59c4.23,19.55,16.73,25.29,31.46,27.56,8.32,1.28,13.4-3.59,16.8-12.16Z"/><path d="M189.19,660c12.06-1,19.91-5.51,24.19-15.43,3.84-8.89,7.47-17.88,11.27-26.78,4.67-10.93,9.77-13.48,21.32-11.23,16.24,3.16,32.53,6.12,48.78,9.24,11.41,2.19,14.36,5.19,11.6,16.25-6.52,26.17-18.74,49.32-42.18,64.2a54,54,0,0,1-25.59,8.33A299.35,299.35,0,0,1,142,693.1c-24.92-7.32-36.36-22.89-37.14-48.87-.32-10.62,5.19-16.61,15.75-14.87,18.58,3.06,37,7.41,55.44,11C186.22,642.33,186.49,651.17,189.19,660Zm5.35,11c16.67,25.49,40.78,31.93,61.64,16.72,19.75-14.41,30.1-34.63,35.93-59.19L238.49,617.6C227.22,640.14,222.35,665.1,194.54,671Zm-22.12-19.18-55.3-10.18c1.85,15.05,3.9,28.18,15.9,34.65,17.44,9.4,36.66,13.62,56.55,14.15Z"/><path d="M147.34,791.79c10.65,7.32,18.49,12.77,26.39,18.13s16.06,10.9,24.2,16.18c6.5,4.21,9.31,9.36,6.8,17.33-9.39,29.71-24.4,55.31-51.71,72.07-11.85,7.28-23.65,10.73-36,.36-14.84-12.44-30.15-24.33-45.14-36.59-1.16-.95-1.44-3-2.88-6.2,3.37-2.37,6.62-5.24,10.36-7.14,7.11-3.61,14.62-6.43,21.76-10q28.17-14.05,38.27-44C141.32,806.16,143.83,800.6,147.34,791.79ZM91.11,878.24c10.88,8.69,20.56,16.59,30.43,24.25,12.14,9.43,13.77,9.39,26.87.89,24.24-15.75,36.71-39.59,46.81-66.43-7.11-4.29-13.42-8.07-19.7-11.88-6.67-4.05-13.31-8.13-20-12.25C135,853.22,132.79,855.49,91.11,878.24Z"/><path class="cls-1" d="M346.47,943.35C330,946.78,315.08,945.06,302,935c-11.7-9-24.48-17.3-34.19-28.21-25.48-28.6-25.86-73.69-2-102.7,4.65-5.66,10.57-10.42,16.44-14.88,6.42-4.88,13.51-5.56,20.51-.68,0,1.39.42,3.15-.06,3.45-23.53,14.47-22.21,37.83-14.13,59.17,7.65,20.24,28,31,51.18,29.3,55.25-4.09,92.29-54.9,97.44-98.15,3.67-30.79.78-60.9-12.52-88.91-19.61-41.3-40.72-81.88-61.17-122.78-11.33-22.66-21.42-45.7-19.16-71.94.52-6,1.83-12,2.78-18.07,117.68.87,225.34-28.84,325.49-88.3,18.47,19.27,25.72,42.49,28.81,68.18,5.17,43.09.41,85.59-4.61,128.24-5.27,44.86-10.7,89.75-14,134.77-2,27.47,1.25,54.93,14.69,80,7.15,13.34,15.28,25.39,31.49,29.38,18.73,4.62,36.07-.25,46.92-16.26,5.63-8.31,9.57-18.21,12.26-27.94,4.66-16.86,1.39-22.94-14.07-32-3.34-10,1.86-16,9.76-21.07,8.11-5.17,16.19-5.82,23.91.09,5.39,4.13,11.43,8.31,14.92,13.88,19.41,31,26.17,63.25,6.7,96.93-11.55,20-24.62,38.74-46.2,48-7.77-8.31-15-17.08-23.24-24.65-21.54-19.69-61-15.63-64,27.95-22.14-14.19-38.37-31.79-42.4-57.65-3.07-19.71-3.92-39.76-5.84-59.65-.41-4.26-1.18-8.47-2.35-16.67-3,6.39-5.09,9.09-5.57,12-4.89,29.74-3.82,59.32,4.09,88.42,5.42,19.94,17.11,36,33.15,48.91,12.41,9.95,26.82,12.65,42.09,9.56,13.55-2.74,17.57-10.1,14.6-26-3.14,1.43-5.91,3.12-8.91,3.94-3.54,1-9.7,2.67-10.49,1.41-2.44-3.9-4.64-9.45-3.73-13.66a18.06,18.06,0,0,1,24.18-12.79c21.75,8.47,40.27,31.2,22,57a71.78,71.78,0,0,1-24,21.18c-31.21,16.6-63.37,17.88-95.16.93C622.94,947,613.7,933.72,605,920.26c-6.21-9.58-11.86-19.53-17.54-29.44-6.66-11.65-9.15-23.63-7.64-37.59,2.14-19.79,1.59-39.93,1.28-59.9-.08-4.77-3.76-9.49-6-14.68-10.41,5.38-9.72,13.29-10.61,20.47-2,16.44-3.9,32.9-6,49.33-4.33,34-21.43,61.23-46.29,83.72-13.55,12.26-28.15,23.4-42.76,34.41-19.79,14.91-43,18.39-66.8,16.49-17.18-1.38-30.18-10.45-35.86-27.57-5.82-17.54.19-32.67,11.26-46,4.39-5.3,10.58-9.46,18.14-6.6,6.48,2.46,8.51,8,9.66,14.82,2.45,14.57,12.63,20.34,27.83,16.41s26.22-13.74,34.45-26.67c13.33-21,22.89-43.65,26.74-68.21,2.29-14.62,2.47-29.59,3.27-44.42.17-3.08-1.1-6.24-1.71-9.36l-3.57-.57c-2.55,8.27-5.59,16.43-7.55,24.84-3.75,16.14-5.86,32.72-10.58,48.54a204.36,204.36,0,0,1-16.6,39.3c-7.43,13.55-19.19,22.33-36.69,23-1.43-5-2.66-9.84-4.2-14.57C410.37,884.84,392.32,879,374,892c-14.88,10.58-21.54,26.19-26,43.08C347.28,937.77,347,940.53,346.47,943.35ZM483.84,553.42c-36.58,1.21-60.91,24.09-59.75,56.18,1.19,32.94,25.3,55.61,57.88,54.43,31.3-1.13,53.1-25.19,52.47-57.91C533.86,575.35,511.91,552.49,483.84,553.42Zm81.44,136.23c-27.12-9.76-32.81-7.67-47,15.22-5.3,8.54-12.75,14.48-24,14.63-2-3.83-3.93-7.43-6.2-11.7-11.69,18-8.17,28.41,10.44,31.72a80,80,0,0,0,27,.13c16.32-2.78,32.19-7.57,43.67-20.16,22.83,10.66,42.53,12.51,58.77,5.86,17.2-7.05,25.16-20.26,22.22-37.85-.43-2.54-3.32-4.67-5.48-7.52-2.17,2.5-3.51,3.59-4.26,5-7.93,14.77-19.14,17.19-31.33,6.69C591.26,676.32,583.43,675.86,565.28,689.65Zm25.1-125.83c-3,5.35-5,7.47-5.42,9.85-2.55,16.46,8.14,32.73,24.64,38.24,13.83,4.61,25.9,1.39,36.16-8.44,11.48-11,20-23.71,17.28-40.61-.57-3.6-4.27-6.69-8-12.2-2.85,5.86-5,8.61-5.54,11.65-2.22,11.63-10.39,18.82-18.91,25.45-13.32,10.36-24.17,7.83-32.07-6.91C596,576.17,593.91,571.26,590.38,563.82Z"/><path class="cls-1" d="M333.28,211.12c-19.11-.07-36.55-2.16-52-19.86,7.4.61,11.11.68,14.75,1.25,40.11,6.27,79.71,3.91,119-6.21,41-10.57,81.57-22.4,118.65-43.49a285.28,285.28,0,0,0,37-24.62c8.17-6.53,14.34-15.56,22.19-24.36,3.81,8.09-.05,14.75-4.9,19.46-10.16,9.87-20.42,20.27-32.42,27.51-48.38,29.2-101.09,47.51-156.28,59-5.47,1.14-10.84,2.71-18,4.51,2.15,13,3.73,25.29,6.33,37.39,2.88,13.39,7.12,26.49,10,39.88,3.06,14.33,6.89,27.9,22.06,35.43-8.2,12.88-8.09,22.57,1.95,34.54,7.37,8.78,8.11,23.13,12.16,36.17-11,3.83-21.26,1.84-31.69.2-5.63-17.91-14.93-34.13-12.62-53.31.3-2.47-1-6.74-2.84-7.6-11.06-5.25-9.21-15.52-11.24-24.75a131.26,131.26,0,0,0-9.95-29C355.18,252.29,344,231.75,333.28,211.12Z"/><path class="cls-1" d="M429.88,412.29c-11.67,15.82-22.23,30.47-33.26,44.76a12.32,12.32,0,0,1-8.53,4.36c-16.9-.1-33.8-.86-54.65-1.53,5.41-5.62,7.7-8.38,10.36-10.7C357.1,437.61,370.37,426,384,414.79c3.2-2.64,7.62-5.4,11.44-5.35C406.56,409.61,417.7,411.18,429.88,412.29Z"/><path class="cls-1" d="M459,399.35c8.37-2.74,14.43-5.24,20.74-6.68,12.21-2.79,24.51-5.37,36.88-7.35,38.13-6.1,71.83-22.39,101.59-46.21,11.29-9,19.51-21.92,29-33.14,2.42-2.85,4.45-6,6.67-9.06l3.33,1.64c-2.42,5.82-4.1,12.1-7.38,17.37a127.76,127.76,0,0,1-43.57,42.82c-36.51,21.61-75.39,37.7-117.36,45.22C479.92,405.57,470.13,408.4,459,399.35Z"/><path class="cls-2" d="M934.93,573.79a224.49,224.49,0,0,1-71.75-5.6c-6.4-1.51-12.3-7.77-17-13.11-4.4-5-6.91-11.66-11.1-19.08,9.94-.07,15.9-4.29,20.61-12.38,3.87-6.65,10.46-12.16,16.85-16.79,9-6.55,15.26-5.28,21.86,4A113.65,113.65,0,0,1,905,530.36C915.82,554.6,918.42,558.65,934.93,573.79Z"/><path class="cls-2" d="M866,495.05l-24,25.67-71.31-9.4c6.12-8.3,10.74-15.31,16.22-21.57a12,12,0,0,1,9-3.44C818.45,488.82,841,491.86,866,495.05Z"/><path class="cls-2" d="M924.53,538.64,972.79,554c-3.4,8.57-8.48,13.44-16.8,12.16C941.26,563.93,928.76,558.19,924.53,538.64Z"/><path class="cls-2" d="M194.54,671c27.81-5.9,32.68-30.86,44-53.4l53.62,10.93c-5.83,24.56-16.18,44.78-35.93,59.19C235.32,702.93,211.21,696.49,194.54,671Z"/><path class="cls-2" d="M172.42,651.82l17.15,38.62c-19.89-.53-39.11-4.75-56.55-14.15-12-6.47-14.05-19.6-15.9-34.65Z"/><path class="cls-2" d="M91.11,878.24c41.68-22.75,43.9-25,64.37-65.42,6.73,4.12,13.37,8.2,20,12.25,6.28,3.81,12.59,7.59,19.7,11.88-10.1,26.84-22.57,50.68-46.81,66.43-13.1,8.5-14.73,8.54-26.87-.89C111.67,894.83,102,886.93,91.11,878.24Z"/><path d="M483.84,553.42c28.07-.93,50,21.93,50.6,52.7.63,32.72-21.17,56.78-52.47,57.91-32.58,1.18-56.69-21.49-57.88-54.43C422.93,577.51,447.26,554.63,483.84,553.42ZM506.45,576c-3.9-5.11-8-7.52-13.74-2.25C475,590.18,457.17,606.55,439,623.34l8.45,10.17Zm15.64,25.93-44.86,46.51c3.72,1.85,8.81-.24,13.66-4.94,8.21-8,16.21-16.21,25-23.48C522.63,614.45,524.43,608.41,522.09,601.94Z"/><path d="M565.28,689.65c18.15-13.79,26-13.33,43.79,2,12.19,10.5,23.4,8.08,31.33-6.69.75-1.4,2.09-2.49,4.26-5,2.16,2.85,5.05,5,5.48,7.52,2.94,17.59-5,30.8-22.22,37.85-16.24,6.65-35.94,4.8-58.77-5.86-11.48,12.59-27.35,17.38-43.67,20.16a80,80,0,0,1-27-.13c-18.61-3.31-22.13-13.7-10.44-31.72,2.27,4.27,4.17,7.87,6.2,11.7,11.29-.15,18.74-6.09,24-14.63C532.47,682,538.16,679.89,565.28,689.65Z"/><path d="M590.38,563.82c3.53,7.44,5.62,12.35,8.13,17,7.9,14.74,18.75,17.27,32.07,6.91,8.52-6.63,16.69-13.82,18.91-25.45.58-3,2.69-5.79,5.54-11.65,3.74,5.51,7.44,8.6,8,12.2,2.7,16.9-5.8,29.61-17.28,40.61-10.26,9.83-22.33,13-36.16,8.44-16.5-5.51-27.19-21.78-24.64-38.24C585.33,571.29,587.36,569.17,590.38,563.82Z"/><path class="cls-1" d="M506.45,576l-59,57.5L439,623.34c18.2-16.79,36-33.16,53.74-49.58C498.41,568.49,502.55,570.9,506.45,576Z"/><path class="cls-1" d="M522.09,601.94c2.34,6.47.54,12.51-6.19,18.09-8.8,7.27-16.8,15.52-25,23.48-4.85,4.7-9.94,6.79-13.66,4.94Z"/></svg>