<svg id="Capa_1" data-name="Capa 1" xmlns="http://www.w3.org/2000/svg" viewBox="0 0 1024 1024"><defs><style>.cls-1{fill:#fff;}.cls-2{fill:#c90606;}</style></defs><title>IMG Normal</title><path class="cls-1" d="M387.27,857.54c63.1,14.69,128.19,29.45,193.06,45.08,53.92,13,107.5,27.36,161.41,40.35a95.6,95.6,0,0,0,67.53-8.61c21.85-11.56,38.49-29.54,41.35-56.33a67.34,67.34,0,0,1,1.69-7.9c7.28-31.32,4.16-37-26-48.13-20.48-7.56-40.89-15.33-62.45-23.42,10.88-36.41,21.46-72.53,32.46-108.52,16.84-55.1,34.29-110,50.81-165.23,5.64-18.85,12-38.11,3.17-57.57,21.09-10.82,33-20.84,41.22-32.2,28.36-39.34,4.33-108.19-47.33-118.29-30-5.87-60.13-5.24-90.09-1.08-34.9,4.84-67.74,17.5-100.22,30.44-20,8-40.59,10.48-61.52,12-9.76.7-19.76-.82-26.82-8.64-14-15.56-20.66-33.5-16.41-54.82,5.49-2.34,10.6-4.09,15.3-6.61,25.73-13.74,38.93-35.28,37.5-64.48C600.58,195,585.85,175.21,559.54,164c-5.64-2.4-11.83-2.73-14.93-10.48-18.87-47.22-54.52-77-102-92C380.67,42,321.88,51.21,268.37,87.68c-41,27.91-66.38,66.44-74.69,116.26C182.61,270.3,203.91,327.25,242.88,379c11.6,15.4,20.43,31.59,25.61,49.83q6.61,23.28,11.64,47c4.68,22.26,6.19,44.65,2.93,67.44C274,606.45,243.2,660,208.83,711.82c-5.52,8.32-14.05,14.79-21.78,21.44-4,3.4-9.91,3.78-12.74-1.24-2-3.57-1.42-8.72-1.45-13.17,0-1.21,2.14-2.32,3-3.67,8.32-13.15,3.84-25.33-11.15-30.15-13.46-4.32-25.64-.67-36.71,7-25.41,17.6-34.18,58.91-18.65,85.62,12.2,21,30.87,33.08,54.06,37.4,16.74,3.12,33.95,3.69,50.92,5.4-1.52,8.91-4,18.37-4.6,27.95-1.21,18.12,3.43,35,18.82,45.81,38.32,27,85.64,32,124.3.68C365.08,885,374.5,871.6,387.27,857.54Z"/><path d="M387.27,857.54C374.5,871.6,365.08,885,352.84,894.89c-38.66,31.3-86,26.33-124.3-.68-15.39-10.84-20-27.69-18.82-45.81.64-9.58,3.08-19,4.6-27.95-17-1.71-34.18-2.28-50.92-5.4-23.19-4.32-41.86-16.41-54.06-37.4-15.53-26.71-6.76-68,18.65-85.62,11.07-7.67,23.25-11.32,36.71-7,15,4.82,19.47,17,11.15,30.15-.85,1.35-3,2.46-3,3.67,0,4.45-.55,9.6,1.45,13.17,2.83,5,8.79,4.64,12.74,1.24,7.73-6.65,16.26-13.12,21.78-21.44C243.2,660,274,606.45,283.06,543.28c3.26-22.79,1.75-45.18-2.93-67.44q-5-23.68-11.64-47c-5.18-18.24-14-34.43-25.61-49.83-39-51.75-60.27-108.7-49.2-175.06,8.31-49.82,33.74-88.35,74.69-116.26C321.88,51.21,380.67,42,442.57,61.53c47.52,15,83.17,44.75,102,92,3.1,7.75,9.29,8.08,14.93,10.48,26.31,11.23,41,31.05,42.43,59.58,1.43,29.2-11.77,50.74-37.5,64.48-4.7,2.52-9.81,4.27-15.3,6.61-4.25,21.32,2.38,39.26,16.41,54.82,7.06,7.82,17.06,9.34,26.82,8.64,20.93-1.5,41.53-4,61.52-12,32.48-12.94,65.32-25.6,100.22-30.44,30-4.16,60.09-4.79,90.09,1.08,51.66,10.1,75.69,79,47.33,118.29-8.19,11.36-20.13,21.38-41.22,32.2,8.8,19.46,2.47,38.72-3.17,57.57C830.65,580,813.2,635,796.36,690.06c-11,36-21.58,72.11-32.46,108.52,21.56,8.09,42,15.86,62.45,23.42,30.12,11.12,33.24,16.81,26,48.13a67.34,67.34,0,0,0-1.69,7.9c-2.86,26.79-19.5,44.77-41.35,56.33A95.6,95.6,0,0,1,741.74,943c-53.91-13-107.49-27.37-161.41-40.35C515.46,887,450.37,872.23,387.27,857.54Zm14.55-232.69,3.77.48c3.86-12.67,7.91-25.29,11.56-38,14-48.64,27.53-97.4,41.78-146,8.4-28.63,22-37.31,51.37-33.19q34.37,4.83,68.47,11.43c26.89,5.18,53.6,11.24,79.79,16.8,16.06-17.63,35.17-28.34,56.82-34.27,21.28-5.83,42.83-10.69,64.29-15.82a53.14,53.14,0,0,1,26-.15c-.76,9-5.94,8.74-11.68,9.51A226.42,226.42,0,0,0,684.83,441c-20.3,15.53-24.8,38.1-24.71,62.07,0,2.49,1.3,5.26,2.72,7.43a65.2,65.2,0,0,0,43,29.06c15.33,3.06,35.4-11.92,37.4-26.63,1.1-8.09-3.22-16.87-9.76-18.52-8.44-2.14-9.84,4.38-11.17,10.24-1.06,4.63-3.26,9.51-8.07,7.63-3.57-1.39-7.24-6.56-7.81-10.49-.63-4.3,1.45-9.58,3.76-13.62,7-12.28,17.81-20.33,31.69-23.1,21.63-4.32,43.29-8.71,65.14-11.56,15.68-2,30.87-5.06,44.94-12.16,12.71-6.42,23.62-14.73,28.29-29.39,11.2-35.12-7.75-68.89-44.17-75.81a210.45,210.45,0,0,0-99.25,4.71c-32,9.39-63.13,21.71-95,31.43a276.45,276.45,0,0,1-50.36,10.06c-16,1.74-31.49-2.32-42.86-14.73-15.1-16.47-23.9-35.71-22.24-58.75.3-4.11,0-8.26,0-11.92-7.5-2.44-13.8-4-19.72-6.48-35.16-14.75-50.83-55-34.09-87.09,2.28-4.37,4.61-9.3,10.77-7,5.31,2,4.27,6.45,3.16,10.94A55.06,55.06,0,0,0,491.68,248c9.67,17.83,28.63,27,49,23.91,18.25-2.72,33.38-18.38,36.83-38.11,5.49-31.32-24.62-60.92-56.33-55.68-5.3.87-10.88.12-16.33.12l-1.57-3.6,13.53-14.12c-21-48.61-79.64-86.09-142.09-82-73.16,4.76-132.06,54.6-151.8,125.25-7.4,26.48-5.91,52.07,2.18,77.86,10.06,32.11,25.47,61.76,42.71,90.36,12.89,21.4,23.7,43.51,30.63,67.46,10.43,36,14.93,72.27,10.2,110.12-3.62,29-9.75,57.28-15.7,85.71-11.28,53.85-11.4,106,21.85,153.66,7.74,11.1,11.2,24.39,11.69,38.21.74,20.82-9.24,31.38-28,38.65-12.67,4.9-28.87-.68-36.44-10.91-8.25-11.17-4.61-23.71,9-29.22.28,2.22.46,4.28.8,6.32,2.13,13,13,17.19,23.26,9.11,8.5-6.73,5.87-15.26,4.12-23.72-1.68-8.09-5.41-13.41-14.62-14.6-31.06-4-59.54,28.54-50.74,58.5a26.89,26.89,0,0,0,13.87,17c15,7.8,30.32,13,47.76,12.61,39.71-.94,68.67-29.69,70.37-69.38,1.27-29.71-6.07-57.73-13.74-85.78-9.46-34.6-8.67-69.5-1.79-104.07,6.47-32.49,17.88-63.31,41.5-88,4-4.23,8.23-10.5,14.54-7.29,7.23,3.67,3.17,10.65.89,15.74C396.66,575.83,397.59,600.2,401.82,624.85Zm25.83,120.36c107.15,19.94,250.16,53.92,266.05,63.53-1,7.36-2.15,15.26-3.25,23.17-2.83,20.36-5.78,40.65,5,60,5.39,9.63,11.09,17.87,22.79,21.2s23,8.87,34.51,13.23c15.86,6,30.58,3.12,44.29-6.28,24.55-16.83,29.17-43.28,35.61-70.6-26.25-5.36-48.18-19-73.61-22.6-12.34,33.79,4.24,56.24,27.18,76.63-7.68,8.18-16.11,7.73-23.94,3.3-5.93-3.35-11.84-8-15.71-13.48C734.16,875.61,726.42,856,731,834c5.21-24.72,11.39-49.26,18-73.65,7.28-26.84,15.54-53.41,23.62-80.94l-29.19-8c1.12-5.43,2-9.9,3.24-15.67l32.52,7c16.16-59.58,39.93-116.65,52.92-177.1C805.62,473.45,781,473.1,755.67,483c14.19,20.08,13.93,28.79.72,48.83-23.47,35.61-64.71,34.56-92.17,14.78-19.47-14-31.09-33-27.48-58.16,1.39-9.75,4.65-19.23,7.21-29.41-3.07-.76-6.12-1.72-9.24-2.24-40.81-6.9-81.69-13.39-122.42-20.69-27.15-4.86-28.93-4.95-36.44,21.72-10.8,38.35-20.33,77-30.3,115.63-.88,3.41-1,7-1.6,11l36.87,9.11c-2,6.1-3.71,11.38-5.51,16.88l-34.77-7.46c-2.41,4.67-4.89,8.26-6.18,12.23-5.68,17.4-11.19,34.86-16.41,52.4-2.6,8.75-4.43,17.73-6.68,26.59-3.28,12.9-6.48,25.82-10,38.66-3.39,12.4-8.93,24.51-10.27,37.09-2.09,19.72-1.43,39.73-2,59.61-.21,7.81,4.43,8.73,11.43,7.61C402.6,804.89,410.27,773.92,427.65,745.21Zm-5.31,97.34c27.31,10.14,242.36,64.64,254.41,64.21-13.65-29-15.34-59-7.07-90.29L431.79,760.69C424.51,787.81,416.83,814.52,422.34,842.55ZM262,678.07l-3.22-.42c-3,5-6,10.1-9.06,15.13-11.47,18.89-22.62,38.05-40.2,52.22-4.18,3.37-8.37,6.9-13,9.44-13.15,7.15-29.39,3.62-37.7-7.71-8.95-12.19-7.58-22.48,4.47-35.31,1.26-1.34,1.64-3.52,2.45-5.38-12.51-4.27-22.4-2.53-29,6.88-16.78,23.85-20.54,49.61,10.79,69,24.15,15,51.15,15.57,77.92,6.55,7-2.36,13-7.61,19.8-10.8,10.46-4.89,21-7.64,29.71,3.66.16.2,1.77-.71,4.32-1.78C264.48,747.47,258.83,713.49,262,678.07Zm117.58-62.23c-12.44,23.16-15.26,83.7-3.69,109.33,5.75-20.64,11-38.95,15.82-57.38.72-2.8-.71-6.26-1.46-9.33C386.77,644.46,383.22,630.5,379.54,615.84Z"/><path class="cls-1" d="M401.82,624.85c-4.23-24.65-5.16-49,5.46-72.75,2.28-5.09,6.34-12.07-.89-15.74-6.31-3.21-10.5,3.06-14.54,7.29-23.62,24.73-35,55.55-41.5,88-6.88,34.57-7.67,69.47,1.79,104.07,7.67,28,15,56.07,13.74,85.78-1.7,39.69-30.66,68.44-70.37,69.38-17.44.41-32.77-4.81-47.76-12.61a26.89,26.89,0,0,1-13.87-17c-8.8-30,19.68-62.52,50.74-58.5,9.21,1.19,12.94,6.51,14.62,14.6,1.75,8.46,4.38,17-4.12,23.72C284.9,849.18,274,845,271.86,832c-.34-2-.52-4.1-.8-6.32-13.63,5.51-17.27,18.05-9,29.22,7.57,10.23,23.77,15.81,36.44,10.91,18.77-7.27,28.75-17.83,28-38.65-.49-13.82-3.95-27.11-11.69-38.21-33.25-47.7-33.13-99.81-21.85-153.66,5.95-28.43,12.08-56.72,15.7-85.71,4.73-37.85.23-74.1-10.2-110.12-6.93-23.95-17.74-46.06-30.63-67.46-17.24-28.6-32.65-58.25-42.71-90.36-8.09-25.79-9.58-51.38-2.18-77.86,19.74-70.65,78.64-120.49,151.8-125.25,62.45-4.06,121.09,33.42,142.09,82l-13.53,14.12,1.57,3.6c5.45,0,11,.75,16.33-.12,31.71-5.24,61.82,24.36,56.33,55.68-3.45,19.73-18.58,35.39-36.83,38.11-20.38,3.05-39.34-6.08-49-23.91a55.06,55.06,0,0,1-5.18-40.71c1.11-4.49,2.15-8.95-3.16-10.94-6.16-2.32-8.49,2.61-10.77,7-16.74,32.11-1.07,72.34,34.09,87.09,5.92,2.48,12.22,4,19.72,6.48,0,3.66.26,7.81,0,11.92-1.66,23,7.14,42.28,22.24,58.75C560,380,575.49,384.07,591.44,382.33a276.45,276.45,0,0,0,50.36-10.06c31.91-9.72,63-22,95-31.43a210.45,210.45,0,0,1,99.25-4.71c36.42,6.92,55.37,40.69,44.17,75.81-4.67,14.66-15.58,23-28.29,29.39-14.07,7.1-29.26,10.12-44.94,12.16-21.85,2.85-43.51,7.24-65.14,11.56-13.88,2.77-24.65,10.82-31.69,23.1-2.31,4-4.39,9.32-3.76,13.62.57,3.93,4.24,9.1,7.81,10.49,4.81,1.88,7-3,8.07-7.63,1.33-5.86,2.73-12.38,11.17-10.24,6.54,1.65,10.86,10.43,9.76,18.52-2,14.71-22.07,29.69-37.4,26.63a65.2,65.2,0,0,1-43-29.06c-1.42-2.17-2.71-4.94-2.72-7.43-.09-24,4.41-46.54,24.71-62.07A226.42,226.42,0,0,1,794,395.66c5.74-.77,10.92-.54,11.68-9.51a53.14,53.14,0,0,0-26,.15c-21.46,5.13-43,10-64.29,15.82-21.65,5.93-40.76,16.64-56.82,34.27-26.19-5.56-52.9-11.62-79.79-16.8Q544.7,413,510.3,408.16c-29.38-4.12-43,4.56-51.37,33.19-14.25,48.56-27.82,97.32-41.78,146-3.65,12.73-7.7,25.35-11.56,38Zm32.3-369.2c0-38.73-30.89-70.31-69.12-70.65-38.53-.34-72.09,33-72.45,71.95-.36,38.43,30.66,69.57,69.6,69.86C402.29,327.11,434.11,295.65,434.12,255.65Zm-105.81,112c-3.26,8.95,1.84,13.49,6.24,17.8,15.08,14.79,45.21,17.93,63.23,6.84,1.81-1.11,4.17-2.2,5-3.9a10.6,10.6,0,0,0,.6-7.31c-.44-1.27-3.62-2.31-5.46-2.18-2.57.2-5,1.69-7.57,2.46-18.7,5.65-36.06,3-52.13-8.26C335.35,371.09,332.11,369.7,328.31,367.63Zm213.3-139.74c-10.48-.22-18.47,6.29-19,15.46-.46,8.44,5.75,14.84,14.85,15.32a17,17,0,0,0,18-16.35A13.92,13.92,0,0,0,541.61,227.89Z"/><path class="cls-2" d="M427.65,745.21c-17.38,28.71-25,59.68-27.18,92.06-7,1.12-11.64.2-11.43-7.61.55-19.88-.11-39.89,2-59.61,1.34-12.58,6.88-24.69,10.27-37.09,3.5-12.84,6.7-25.76,10-38.66,2.25-8.86,4.08-17.84,6.68-26.59,5.22-17.54,10.73-35,16.41-52.4,1.29-4,3.77-7.56,6.18-12.23l34.77,7.46c1.8-5.5,3.52-10.78,5.51-16.88L444,584.55c.57-4,.72-7.64,1.6-11,10-38.58,19.5-77.28,30.3-115.63,7.51-26.67,9.29-26.58,36.44-21.72,40.73,7.3,81.61,13.79,122.42,20.69,3.12.52,6.17,1.48,9.24,2.24-2.56,10.18-5.82,19.66-7.21,29.41-3.61,25.18,8,44.12,27.48,58.16,27.46,19.78,68.7,20.83,92.17-14.78,13.21-20,13.47-28.75-.72-48.83,25.35-9.94,50-9.59,76.48,2.6-13,60.45-36.76,117.52-52.92,177.1l-32.52-7c-1.19,5.77-2.12,10.24-3.24,15.67l29.19,8c-8.08,27.53-16.34,54.1-23.62,80.94-6.61,24.39-12.79,48.93-18,73.65-4.62,22,3.12,41.62,15.56,59.29,3.87,5.5,9.78,10.13,15.71,13.48,7.83,4.43,16.26,4.88,23.94-3.3-22.94-20.39-39.52-42.84-27.18-76.63,25.43,3.56,47.36,17.24,73.61,22.6-6.44,27.32-11.06,53.77-35.61,70.6-13.71,9.4-28.43,12.28-44.29,6.28-11.53-4.36-22.71-9.87-34.51-13.23s-17.4-11.57-22.79-21.2c-10.81-19.32-7.86-39.61-5-60,1.1-7.91,2.21-15.81,3.25-23.17C677.81,799.13,534.8,765.15,427.65,745.21Zm78.22-127.16,58.66,13.74c2.27-6.57,4.06-11.78,6.28-18.21l-58-12.91C510.36,606.73,508.61,611.14,505.87,618.05Zm142.92,13.49-53-12c-1.44,7-2.53,12.39-3.82,18.74L642,649.65C644.39,643.23,646.22,638.38,648.79,631.54Zm24.6,25.33,34.44,7.4,6.61-16.91-36.61-8.64c-1.42,4.66-2.28,7.14-2.92,9.68C674.4,650.42,674.15,652.52,673.39,656.87Z"/><path class="cls-2" d="M422.34,842.55c-5.51-28,2.17-54.74,9.45-81.86l237.89,55.78c-8.27,31.3-6.58,61.27,7.07,90.29C664.7,907.19,449.65,852.69,422.34,842.55Z"/><path class="cls-1" d="M262,678.07c-3.13,35.42,2.52,69.4,17.22,101.5-2.55,1.07-4.16,2-4.32,1.78-8.69-11.3-19.25-8.55-29.71-3.66-6.8,3.19-12.79,8.44-19.8,10.8-26.77,9-53.77,8.41-77.92-6.55-31.33-19.41-27.57-45.17-10.79-69,6.61-9.41,16.5-11.15,29-6.88-.81,1.86-1.19,4-2.45,5.38-12,12.83-13.42,23.12-4.47,35.31,8.31,11.33,24.55,14.86,37.7,7.71,4.68-2.54,8.87-6.07,13-9.44,17.58-14.17,28.73-33.33,40.2-52.22,3-5,6-10.09,9.06-15.13Z"/><path class="cls-1" d="M379.54,615.84c3.68,14.66,7.23,28.62,10.67,42.62.75,3.07,2.18,6.53,1.46,9.33-4.78,18.43-10.07,36.74-15.82,57.38C364.28,699.54,367.1,639,379.54,615.84Z"/><path d="M434.12,255.65c0,40-31.83,71.46-72,71.16-38.94-.29-70-31.43-69.6-69.86.36-39,33.92-72.29,72.45-71.95C403.23,185.34,434.13,216.92,434.12,255.65ZM387.2,298.87c24.25-12.6,33.22-39.31,21.56-64.23-11.52-24.63-40.69-35.55-67.07-25.11-22.57,8.94-34.57,38-25.72,62.27,11.1,30.5,45.26,43.19,71.62,26.62Z"/><path d="M328.31,367.63c3.8,2.07,7,3.46,9.87,5.45,16.07,11.26,33.43,13.91,52.13,8.26,2.55-.77,5-2.26,7.57-2.46,1.84-.13,5,.91,5.46,2.18a10.6,10.6,0,0,1-.6,7.31c-.79,1.7-3.15,2.79-5,3.9-18,11.09-48.15,8-63.23-6.84C330.15,381.12,325.05,376.58,328.31,367.63Z"/><path d="M541.61,227.89a13.92,13.92,0,0,1,13.85,14.43,17,17,0,0,1-18,16.35c-9.1-.48-15.31-6.88-14.85-15.32C523.14,234.18,531.13,227.67,541.61,227.89Z"/><path d="M505.87,618.05c2.74-6.91,4.49-11.32,6.9-17.38l58,12.91c-2.22,6.43-4,11.64-6.28,18.21Z"/><path d="M648.79,631.54c-2.57,6.84-4.4,11.69-6.82,18.11l-50.05-11.34c1.29-6.35,2.38-11.7,3.82-18.74Z"/><path d="M673.39,656.87c.76-4.35,1-6.45,1.52-8.47.64-2.54,1.5-5,2.92-9.68l36.61,8.64-6.61,16.91Z"/><path class="cls-1" d="M387.59,298.42C361.23,315,327.07,302.3,316,271.8c-8.85-24.29,3.15-53.33,25.72-62.27,26.38-10.44,55.55.48,67.07,25.11,11.66,24.92,2.69,51.63-21.53,64.2,2.95-3.73,6.28-7.17,8.71-11.16,4-6.63,3.41-17.59-2.32-22.38-3.63-3-9.5-5.25-14.09-4.83-7.88.73-15,11.88-14.88,20.61.08,7.84,4.31,12.67,13.75,15.4C381.4,297.35,384.52,297.79,387.59,298.42Z"/><path d="M387.59,298.42c-3.07-.63-6.19-1.07-9.19-1.94-9.44-2.73-13.67-7.56-13.75-15.4-.1-8.73,7-19.88,14.88-20.61,4.59-.42,10.46,1.81,14.09,4.83,5.73,4.79,6.36,15.75,2.32,22.38-2.43,4-5.76,7.43-8.71,11.16Z"/></svg>