<svg id="Capa_1" data-name="Capa 1" xmlns="http://www.w3.org/2000/svg" viewBox="0 0 1024 1024"><defs><style>.cls-1{fill:#fff;}.cls-2{fill:#c90606;}</style></defs><title>IMG online</title><path class="cls-1" d="M872.66,654.35c-.9,3.19-.92,4.4-1.51,5.16-38.16,49.77-113.9,48.78-150.28-2.24a47.77,47.77,0,0,1-8.5-20.5,446.18,446.18,0,0,1-4.16-53.14c-.42-38.77-.57-77.58.65-116.33,1.27-40.89,4.26-81.72,6.51-122.57.06-1.07.41-2.14.4-3.21-.14-19.88,1.72-40-.82-59.6C700,166.31,601.05,80,483.11,78.6c-116.38-1.41-217.66,82.94-235.95,197.08-2.28,14.26-1.59,29-2.46,43.5C244,331.3,243,343.41,242,356.88c-7.43,0-13.3,0-19.17,0-18.33.12-36.67-.07-55,.48-15.32.45-17.18,2.75-17.73,18.45-.17,4.85-.14,9.71,0,14.56q1.14,55,2.31,110c.12,5.66,0,11.33,0,18.36-22.26-1.12-42.1-2.4-62-3-31.57-1-56.67,13.85-58.43,48.41-.48,9.3,3.56,18.83,5.51,28.25,11.19,53.83,22.72,107.59,33.44,161.52,7.57,38.06,13.76,76.39,21.11,114.5,4.21,21.78,11.2,28.69,33.16,30.81q101.43,9.81,203,18.34c78.45,6.57,156.92,12.86,235.44,18.39,19.15,1.35,39.22,2.27,57.66-1.91,25-5.69,49.28-15.61,73.24-25.28,36-14.52,71.45-30.34,107.07-45.77,6.9-3,13.55-6.57,20.17-10.17,7.43-4,10.08-10.63,9.82-18.92-.49-15.27-7.54-23.17-24.17-24.54-32.25-2.64-64.52-5.13-96.83-6.68-13.26-.64-24.25-3.37-34.77-12.57-9.28-8.11-14.82-17.24-20.58-30.79,6.87,4.06,10.92,6.52,15,8.86,22.33,12.7,46,21.77,71.92,22.12,30.86.42,61.36-2.82,91-12.36,57-18.35,116.29-76.32,112.81-151.28-.29-6.2,1.78-10.11,6.69-13.46,12.86-8.75,17.27-21.78,16.72-36.51a284.24,284.24,0,0,0-3.5-37c-3.06-18-11.08-24.92-29.62-26-14-.82-28-.28-42-.5-6.43-.1-12.86-.48-19.28-.91-23.61-1.56-47.25-5-70.78-4.26-18.63.56-37.24,5.49-55.6,9.61C731.1,521.51,714,540.93,719.23,563c2.69,11.32,2.07,23.61,1.74,35.43-.73,26.51,20.09,59.71,54.73,64.89C807.92,668.15,840,669.27,872.66,654.35Z"/><path class="cls-1" d="M801.39,473c-7.44-20,1.64-34.86,13.37-49,2.4-2.9,4.83-5.78,7.26-8.66,18.53-22,19.09-46,6.9-70.78a107.17,107.17,0,0,0-15.86-24.23c-15.14-16.9-16.33-35.73-9.34-55.77,3.52-10.09,8.74-19.58,13.22-29.33,1.66-3.64,3.39-7.26,5.08-10.88-10.72,3.95-15.86,12.61-20.67,21.06-16.42,28.89-22.65,58.18-1.16,87.73,1.89,2.6,3.25,5.57,4.92,8.34,15,25,15.34,49.48-1.68,74.08a81.73,81.73,0,0,0-12.13,26.07C788.46,453,788.71,465,801.39,473Z"/><path d="M872.66,654.35c-32.64,14.92-64.74,13.8-97,9C741.06,658.15,720.24,625,721,598.44c.33-11.82.95-24.11-1.74-35.43-5.26-22.08,11.87-41.5,29.31-45.42,18.36-4.12,37-9.05,55.6-9.61,23.53-.7,47.17,2.7,70.78,4.26,6.42.43,12.85.81,19.28.91,14,.22,28.06-.32,42,.5,18.54,1.09,26.56,8,29.62,26a284.24,284.24,0,0,1,3.5,37c.55,14.73-3.86,27.76-16.72,36.51-4.91,3.35-7,7.26-6.69,13.46,3.48,75-55.85,132.93-112.81,151.28-29.6,9.54-60.1,12.78-91,12.36-26-.35-49.59-9.42-71.92-22.12-4.11-2.34-8.16-4.8-15-8.86,5.76,13.55,11.3,22.68,20.58,30.79,10.52,9.2,21.51,11.93,34.77,12.57,32.31,1.55,64.58,4,96.83,6.68,16.63,1.37,23.68,9.27,24.17,24.54.26,8.29-2.39,14.88-9.82,18.92-6.62,3.6-13.27,7.18-20.17,10.17-35.62,15.43-71.09,31.25-107.07,45.77-24,9.67-48.2,19.59-73.24,25.28-18.44,4.18-38.51,3.26-57.66,1.91-78.52-5.53-157-11.82-235.44-18.39q-101.53-8.49-203-18.34c-22-2.12-28.95-9-33.16-30.81-7.35-38.11-13.54-76.44-21.11-114.5C60.22,699.93,48.69,646.17,37.5,592.34c-2-9.42-6-19-5.51-28.25,1.76-34.56,26.86-49.44,58.43-48.41,19.87.64,39.71,1.92,62,3,0-7,.1-12.7,0-18.36q-1.12-55-2.31-110c-.1-4.85-.13-9.71,0-14.56.55-15.7,2.41-18,17.73-18.45,18.32-.55,36.66-.36,55-.48,5.87,0,11.74,0,19.17,0,1-13.47,2-25.58,2.71-37.7.87-14.5.18-29.24,2.46-43.5,18.29-114.14,119.57-198.49,236-197.08C601.05,80,700,166.31,715,281.92c2.54,19.58.68,39.72.82,59.6,0,1.07-.34,2.14-.4,3.21-2.25,40.85-5.24,81.68-6.51,122.57-1.22,38.75-1.07,77.56-.65,116.33a446.18,446.18,0,0,0,4.16,53.14,47.77,47.77,0,0,0,8.5,20.5c36.38,51,112.12,52,150.28,2.24C871.74,658.75,871.76,657.54,872.66,654.35Zm25.87-30.56c-1.44,5.63-3,10.7-4,15.88-5.1,25.2-19.17,44.14-40.55,57.83-24.75,15.85-52,20.59-80.65,15.82-44.83-7.46-86.71-41.05-88.73-96.37-.55-15.07-.72-30.16-.8-45.25-.09-17.78-.15-35.57.23-53.35.58-26.88,1.09-53.78,2.47-80.62,2.11-41.39,6.92-82.73,7.07-124.11.34-99.49-69-185.11-165.4-207.13-96.6-22.07-195.3,25.87-238.42,115.68-20.18,42-24.34,86.38-20.19,134.26,6.39,0,12.14,0,17.9,0,18.86.11,37.73.06,56.59.43,15.36.3,17.31,2.5,17.74,18.19.12,4.31,0,8.62,0,12.94q0,66.3,0,132.6c0,2,.71,4,1.26,7h14.66c0-6.39,0-11.7,0-17,.08-45.28-.1-90.55.37-135.82.19-18.78,2.14-20.3,20.84-20.05,46.88.64,93.76,1.55,140.64,2.38,15.09.27,30.18.52,45.26,1,11,.37,13.16,2.53,14.07,13.19.23,2.68.12,5.39.09,8.08q-.76,87.31-1.57,174.64c0,2.69,0,5.4-.29,8.07-.69,7.53-5,11.78-12.38,12.57-4.81.51-9.68.41-14.53.62l-41.36,1.87c14.14,73.49,27.9,145.06,41.69,216.74l80.19,4.3c-25-37.88-34.47-77.81-42-118.6,9.74,9.5,19.27,19,26.9,29.75C660.84,745,695.72,761.76,738,770.47c66.41,13.7,150.82-37.17,173.71-83.13,4.32-8.66,8.74-17.4,11.75-26.55,3.82-11.63,6.6-23.7,3.24-37Zm-85.83,210-1.77-4.15c-5.08.64-10.35.62-15.22,2-49.2,14.05-98.3,28.52-147.54,42.46-18.64,5.28-37.43,10.3-56.44,14-17.76,3.42-25.64-3.22-29.16-20.77-5.2-25.89-11.28-51.61-16.1-77.57-13-70-25.51-140-38.24-210-2.8-15.37-8.39-20.06-23.82-20.5-10.78-.3-21.57-.47-32.31-1.26-57-4.2-114-8.61-170.93-12.85-9.67-.72-19.37-1.28-29.07-1.42-57.67-.86-115.35-1.53-173-2.36-20.75-.29-28.94,9.21-24.39,29,8,34.68,15.63,69.43,24.24,104,15.4,61.74,30.84,123.44,39.73,186.56.66,4.63,2.25,9.13,3.42,13.73h22.44c-1.38-6.34-2.67-11.54-3.61-16.8-1.12-6.36-2.5-12.74-2.79-19.16-.77-16.71,2.92-20.18,19.3-19.34,1.08.06,2.16.13,3.23.21q126.59,9.26,253.17,18.54c18.7,1.38,37.39,2.94,56.48,4.45,5,20.18,9.71,39.29,14.46,58.48l33.85,2.44c-1.17-6.55-1.87-11.17-2.82-15.74C498,801.66,480.24,715.62,468.42,628.47c-1.49-11-4.91-21.8-7.46-32.84-21.3-1.17-41.15-2.23-61-3.37q-92.84-5.35-185.67-10.71c-44.13-2.48-88.29-4.67-132.43-7.09-4.35-.24-9.63.79-12.57-7.51,6.29-.33,11.36-1,16.39-.8,23.16.93,46.31,2.09,69.46,3.2,59.24,2.83,118.46,5.86,177.7,8.47,36.64,1.61,73.3,2.51,109.94,3.93,7,.27,13.94,1.4,20.89,2.31,6.57.85,10.81,4.45,12.3,11.05,3.1,13.65,6.57,27.22,9.26,40.94C498.35,702.69,511,769.41,524.39,836c3.92,19.51,9.39,38.74,15,57.84,1.32,4.51,5.73,10.94,9.43,11.46,24.38,3.48,48.94,7.26,73.27-1q82.65-28.18,165.37-56.18a163.24,163.24,0,0,0,19.44-7.92C809.31,839,810.8,836,812.7,833.79ZM437.58,531.35c-5.82-6.23-9.3-10.06-12.88-13.79-34.38-35.93-25.76-93.78,17.34-115.5,7.39-3.73,15.11-7.32,26.67-2.74-5.44,4.38-9.25,6.94-12.45,10.11-6.83,6.76-14.7,13-19.74,20.94-13.84,21.87-10.79,50.79,5.92,69.13,15.94,17.48,41.1,22.67,62.12,12.82,21.85-10.24,34-34,30.92-60.39-.32-2.66-1.65-5.83-.66-7.87,1.71-3.5,4.46-8.19,7.54-8.87s7.81,2.19,10.65,4.78c2.08,1.9,2.62,5.77,3.31,8.89,6.91,31.32-6,62.41-33.14,79.84-4.32,2.78-8.73,5.42-13.27,8.23,4.76,5.5,8.43,10.16,12.58,14.35,2.09,2.13,5.07,4.88,7.61,4.83,16-.31,31.91-1.33,49.19-2.18V373.49H395.41V529.33ZM823.08,525c-.13-.64-.25-1.28-.38-1.92-22.82,3.51-45.79,6.33-68.43,10.78-14.2,2.8-18.14,8.29-17.58,22.84.62,16.12,1.71,32.41,4.81,48.19,3.41,17.28,13.61,31.14,31.11,36.34,24,7.14,48.69,9.66,73.33,2.33,15-4.46,28.32-12.31,34.18-27.33,4.36-11.18,11.19-11.92,21.38-11.76,12.24.19,24.65-1.55,36.73-3.81,9.2-1.72,15.29-8,15.48-18.12.26-12.93.73-25.88.11-38.78-.21-4.42-2.55-9.43-5.47-12.85-3.6-4.22-48.05-5-51.59-.44-6,7.59-11.12,5.39-18.16,2.17A73,73,0,0,0,857,526.9C845.75,525.59,834.38,525.6,823.08,525Zm-478.67.53V375.09c-17.89-2.86-62-1.34-72.86,2.64,5.59,11.16,16.42,3.45,23.76,6.94,7.84,3.73,17.84,4,22.21,16.39-7.33.55-13.49,1.41-19.65,1.37-9.29-.06-18.39.36-26.17,6.18-18.75,14-27.59,33.29-25.61,56.13,1.81,21,11.21,38.27,32.89,45.59,9.45,3.19,20.66,2.67,26,13.71.48,1,2.83,1.45,4.33,1.47C320.55,525.63,331.76,525.57,344.41,525.57ZM167.64,375.65c3.35,48.85,2.46,96,6.84,143.68,23.06,1.13,44.5,2.21,66,3.2,1.94.09,3.9-.38,7.81-.79-3.85-5-6.8-8.57-9.42-12.35-22-31.77-22.4-67.39,0-97.85,9.07-12.34,10.55-22.25,4.58-35.89ZM748.39,828.53c0-1.12-.11-2.24-.17-3.37L577,812.67c-.93,11.17,10.92,48.53,19.46,61.58Z"/><path d="M801.39,473c-12.68-8-12.93-20-10.09-31.39a81.73,81.73,0,0,1,12.13-26.07c17-24.6,16.72-49,1.68-74.08-1.67-2.77-3-5.74-4.92-8.34-21.49-29.55-15.26-58.84,1.16-87.73,4.81-8.45,9.95-17.11,20.67-21.06-1.69,3.62-3.42,7.24-5.08,10.88-4.48,9.75-9.7,19.24-13.22,29.33-7,20-5.8,38.87,9.34,55.77a107.17,107.17,0,0,1,15.86,24.23c12.19,24.79,11.63,48.77-6.9,70.78-2.43,2.88-4.86,5.76-7.26,8.66C803,438.09,794,453,801.39,473Z"/><path class="cls-1" d="M898.53,623.79H926.7c3.36,13.3.58,25.37-3.24,37-3,9.15-7.43,17.89-11.75,26.55-22.89,46-107.3,96.83-173.71,83.13-42.28-8.71-77.16-25.52-102.38-61.16-7.63-10.79-17.16-20.25-26.9-29.75,7.52,40.79,17,80.72,42,118.6l-80.19-4.3C556.73,722.18,543,650.61,528.83,577.12l41.36-1.87c4.85-.21,9.72-.11,14.53-.62,7.4-.79,11.69-5,12.38-12.57.25-2.67.26-5.38.29-8.07q.79-87.32,1.57-174.64c0-2.69.14-5.4-.09-8.08-.91-10.66-3.06-12.82-14.07-13.19-15.08-.5-30.17-.75-45.26-1-46.88-.83-93.76-1.74-140.64-2.38-18.7-.25-20.65,1.27-20.84,20.05-.47,45.27-.29,90.54-.37,135.82,0,5.31,0,10.62,0,17H363c-.55-2.93-1.26-4.95-1.26-7q-.07-66.3,0-132.6c0-4.32.1-8.63,0-12.94-.43-15.69-2.38-17.89-17.74-18.19-18.86-.37-37.73-.32-56.59-.43-5.76,0-11.51,0-17.9,0-4.15-47.88,0-92.22,20.19-134.26,43.12-89.81,141.82-137.75,238.42-115.68,96.39,22,165.74,107.64,165.4,207.13-.15,41.38-5,82.72-7.07,124.11-1.38,26.84-1.89,53.74-2.47,80.62-.38,17.78-.32,35.57-.23,53.35.08,15.09.25,30.18.8,45.25,2,55.32,43.9,88.91,88.73,96.37,28.61,4.77,55.9,0,80.65-15.82,21.38-13.69,35.45-32.63,40.55-57.83C895.54,634.49,897.09,629.42,898.53,623.79Z"/><path class="cls-1" d="M812.7,833.79c-1.9,2.18-3.39,5.2-5.78,6.37a163.24,163.24,0,0,1-19.44,7.92q-82.65,28.17-165.37,56.18c-24.33,8.29-48.89,4.51-73.27,1-3.7-.52-8.11-6.95-9.43-11.46-5.63-19.1-11.1-38.33-15-57.84-13.4-66.58-26-133.3-39.15-199.94-2.69-13.72-6.16-27.29-9.26-40.94-1.49-6.6-5.73-10.2-12.3-11.05-6.95-.91-13.91-2-20.89-2.31-36.64-1.42-73.3-2.32-109.94-3.93-59.24-2.61-118.46-5.64-177.7-8.47-23.15-1.11-46.3-2.27-69.46-3.2-5-.2-10.1.47-16.39.8,2.94,8.3,8.22,7.27,12.57,7.51,44.14,2.42,88.3,4.61,132.43,7.09q92.85,5.21,185.67,10.71c19.84,1.14,39.69,2.2,61,3.37,2.55,11,6,21.81,7.46,32.84,11.82,87.15,29.59,173.19,47.37,259.24,1,4.57,1.65,9.19,2.82,15.74L484.76,901c-4.75-19.19-9.47-38.3-14.46-58.48-19.09-1.51-37.78-3.07-56.48-4.45q-126.58-9.32-253.17-18.54c-1.07-.08-2.15-.15-3.23-.21-16.38-.84-20.07,2.63-19.3,19.34.29,6.42,1.67,12.8,2.79,19.16.94,5.26,2.23,10.46,3.61,16.8H122.08c-1.17-4.6-2.76-9.1-3.42-13.73-8.89-63.12-24.33-124.82-39.73-186.56-8.61-34.52-16.27-69.27-24.24-104-4.55-19.83,3.64-29.33,24.39-29,57.67.83,115.35,1.5,173,2.36,9.7.14,19.4.7,29.07,1.42,57,4.24,114,8.65,170.93,12.85,10.74.79,21.53,1,32.31,1.26,15.43.44,21,5.13,23.82,20.5,12.73,70,25.24,140,38.24,210,4.82,26,10.9,51.68,16.1,77.57,3.52,17.55,11.4,24.19,29.16,20.77,19-3.66,37.8-8.68,56.44-14,49.24-13.94,98.34-28.41,147.54-42.46,4.87-1.39,10.14-1.37,15.22-2Z"/><path class="cls-1" d="M437.58,531.35l-42.17-2V373.49H579.29V553.93c-17.28.85-33.23,1.87-49.19,2.18-2.54,0-5.52-2.7-7.61-4.83-4.15-4.19-7.82-8.85-12.58-14.35,4.54-2.81,8.95-5.45,13.27-8.23,27.12-17.43,40.05-48.52,33.14-79.84-.69-3.12-1.23-7-3.31-8.89-2.84-2.59-7.52-5.47-10.65-4.78s-5.83,5.37-7.54,8.87c-1,2,.34,5.21.66,7.87,3.11,26.36-9.07,50.15-30.92,60.39-21,9.85-46.18,4.66-62.12-12.82-16.71-18.34-19.76-47.26-5.92-69.13,5-8,12.91-14.18,19.74-20.94,3.2-3.17,7-5.73,12.45-10.11-11.56-4.58-19.28-1-26.67,2.74-43.1,21.72-51.72,79.57-17.34,115.5C428.28,521.29,431.76,525.12,437.58,531.35Zm30.35-25.75a14.19,14.19,0,0,0,13-13.91c-.14-8-11.91-17.42-20.81-16.59-6,.57-10.07,5.94-9.49,12.65C451.52,498,459.31,506.05,467.93,505.6Z"/><path class="cls-2" d="M823.08,525c11.3.56,22.67.55,33.89,1.86a73,73,0,0,1,21.63,5.78c7,3.22,12.18,5.42,18.16-2.17,3.54-4.51,48-3.78,51.59.44,2.92,3.42,5.26,8.43,5.47,12.85.62,12.9.15,25.85-.11,38.78-.19,10.15-6.28,16.4-15.48,18.12-12.08,2.26-24.49,4-36.73,3.81-10.19-.16-17,.58-21.38,11.76-5.86,15-19.19,22.87-34.18,27.33-24.64,7.33-49.31,4.81-73.33-2.33-17.5-5.2-27.7-19.06-31.11-36.34-3.1-15.78-4.19-32.07-4.81-48.19-.56-14.55,3.38-20,17.58-22.84,22.64-4.45,45.61-7.27,68.43-10.78C822.83,523.76,823,524.4,823.08,525ZM925,549.51c-14.42-8.39-29.56-9.07-44.8-3-17.08,6.85-24,24.05-17.09,41,5.39,13.19,16.71,17,28.17,8.91,7.31-5.18,14.11-8.65,23.68-6.07a16,16,0,0,0,19.07-8.71c6.17-12.76,7.77-26.16,2.25-39.3-1.75-.28-2.46-.61-2.71-.4C930.85,544.34,928.17,546.75,925,549.51Z"/><path class="cls-1" d="M344.41,525.57c-12.65,0-23.86.06-35.07-.06-1.5,0-3.85-.49-4.33-1.47-5.37-11-16.58-10.52-26-13.71C257.3,503,247.9,485.7,246.09,464.74c-2-22.84,6.86-42.12,25.61-56.13,7.78-5.82,16.88-6.24,26.17-6.18,6.16,0,12.32-.82,19.65-1.37-4.37-12.37-14.37-12.66-22.21-16.39-7.34-3.49-18.17,4.22-23.76-6.94,10.83-4,55-5.5,72.86-2.64ZM312.16,511c8.31,0,14.09-5,13.92-12-.19-7.5-10.51-16.62-18.87-16.67-7.59-.05-13.85,6.8-13.48,14.76S301.92,511,312.16,511Z"/><path class="cls-1" d="M167.64,375.65h75.75c6,13.64,4.49,23.55-4.58,35.89-22.39,30.46-22,66.08,0,97.85,2.62,3.78,5.57,7.32,9.42,12.35-3.91.41-5.87.88-7.81.79-21.45-1-42.89-2.07-66-3.2C170.1,471.65,171,424.5,167.64,375.65Z"/><path class="cls-1" d="M748.39,828.53l-152,45.72c-8.54-13-20.39-50.41-19.46-61.58l171.26,12.49C748.28,826.29,748.34,827.41,748.39,828.53Z"/><path d="M467.93,505.6c-8.62.45-16.41-7.59-17.29-17.85-.58-6.71,3.45-12.08,9.49-12.65,8.9-.83,20.67,8.55,20.81,16.59A14.19,14.19,0,0,1,467.93,505.6Z"/><path d="M925,549.51c3.14-2.76,5.82-5.17,8.57-7.49.25-.21,1,.12,2.71.4,5.52,13.14,3.92,26.54-2.25,39.3A16,16,0,0,1,915,590.43c-9.57-2.58-16.37.89-23.68,6.07-11.46,8.14-22.78,4.28-28.17-8.91-6.94-17,0-34.19,17.09-41C895.47,540.44,910.61,541.12,925,549.51Zm-43.36,32.74c12.32-7.33,25.23-11.76,38.68-5,6-8.91.17-12.6-5.23-16.27-8.72-5.94-22-7-28.73-1.36C879.92,565,876.29,572,881.67,582.25Z"/><path d="M312.16,511c-10.24,0-18.05-5.92-18.43-13.89s5.89-14.81,13.48-14.76c8.36.05,18.68,9.17,18.87,16.67C326.25,506.09,320.47,511.07,312.16,511Z"/><path class="cls-1" d="M881.67,582.25c-5.38-10.22-1.75-17.21,4.72-22.6,6.77-5.65,20-4.58,28.73,1.36,5.4,3.67,11.27,7.36,5.23,16.27C906.9,570.49,894,574.92,881.67,582.25Z"/></svg>