<svg id="Capa_1" data-name="Capa 1" xmlns="http://www.w3.org/2000/svg" viewBox="0 0 1024 1024"><defs><style>.cls-1{fill:#fff;}.cls-2{fill:#c90606;}</style></defs><title>IMG Taller</title><path class="cls-1" d="M825.75,368.18,813.9,360.9c-16.91,11-25.88,9.33-31.42-13.47H758.33c-1.06,4.1-1.71,7.44-2.78,10.65a14.14,14.14,0,0,1-18.73,8.27c-12.68-5.71-12.46-5.49-21.66,4-4.86,5-5.77,9-1.61,15.25,6.08,9.21,2.28,18.05-7.92,21.19-2.78.86-5.6,1.61-9.18,2.63V433.8c6.84,3.42,14.58,1.65,19,10.29,5.07,10-5.28,14.05-5,23.54l16.8,16c9.16-8.16,17.72-11.19,27-2.61,1.43,4.76,2.95,9.8,4.53,15h23.39c6.65-23,13.38-24.75,32.06-14l18.54-15.62-7.83-13.27c-.8-15.89,10-16.89,20-19.22V409.3l-16.13-4.61c-1.82-4.53-3.44-8.58-5.05-12.6,2.81-4.89,5.41-9.45,7.88-13.76l-6.3-10.67C842,368.09,844,372,837,389.26c3.61,4.65,7.12,9.15,10.18,13.08,15.91-7.56,18.9-8.69,26.58,9.48h16.34c6.65-16.54,8.36-17.65,26.67-9.68l11.85-11.31c-3.57-6.92-6.24-13.29-4.28-17.52s8.53-6.48,13.29-9.74V350c-5.73-4.63-12.11-7.34-13.71-11.78s1.6-10.59,2.89-17l-9.3-10.74c-19.15,7.44-20,7.1-27.85-9.85H873.25c-6.27,16.86-7.78,17.47-25.47,10.46l-11.95,10.3c8.41,18,6.65,20.28-10.08,26.76Z"/><path class="cls-1" d="M882.83,689.45c.17-1,.39-2.89.84-4.75,6.61-27.62,13.42-55.19,19.81-82.86,3-12.87,5.61-25.85,7.44-38.92,1.3-9.24-2-12.75-11.26-13a115.68,115.68,0,0,0-19,1.46C834.07,557.76,787.47,564,741,571c-8.94,1.35-15.07-1-21-6.83-17.72-17.27-33.55-36.36-42.28-59.42-4.82-12.71-6.08-27.79-5-41.48,1.38-16.9,7-33.44,10.59-50.17,1.63-7.55,4.15-14.94-1-22.67-1.66-2.51-.21-7.55.67-11.22,3.78-15.68,8.85-31.12,11.63-47,4.14-23.59,8-47.35,9.69-71.21,2.32-33.94-7.88-65.55-20.73-96.74C668.28,127.21,643.68,99.53,607.74,82c-43.09-21-88.29-25.16-134.65-14.55-74.37,17-129.35,58.65-160.27,129.6C302,221.87,298,248,302.08,274.71c4.21,27.53,9.45,54.94,15.08,82.22,1.52,7.34,1.17,12.3-3.72,18.53-23.67,30.22-20.55,68.75,7,95.72,2.73,2.67,5.54,5.27,8.11,7.71-11.81,25.45-53.82,31.77-93.75,25.5-1-4.2-1.92-8.49-3-12.75-7-28-13.64-56.12-21.18-84-5.14-19-18.47-27.34-37.77-23.74a70.91,70.91,0,0,0-22.95,9c-15.31,9.19-18.49,17.33-14.73,34.5,4,18.17,8.54,36.21,12.65,54.35,2.69,11.84,5,23.74,7.41,35-43.07,29.17-48.07,46.08-40.88,87.06,6.81,38.83,38.91,49.3,73.54,49.41,7.13,14.83,8.68,30.67,22.93,40-3.47,2.8-5.66,4.7-8,6.42-23.64,17.57-41.25,40-55.44,65.72-32.47,58.88,4,128,58.63,148.87,42.33,16.16,85.83,18.19,130.18,10.79,26-4.35,47.3-18.36,68.09-33.06,5.89-4.17,10.76-4.86,17.31-3.68,27,4.87,54,8.49,81.64,9,17.15.31,31.83-3.09,44.78-14.56,25.22,19.79,54,22,82.52,13.6,30.41-8.94,45.85-32.65,49.53-64.71,9.47,7.44,17.49,14.57,26.31,20.52,26.58,18,57.07,22.22,88.14,24.07,17.32,1,34.2-.81,50.49-7.14,27.71-10.77,43.91-30.28,46-60.47.37-5.27,0-10.59,0-16.29,3.09-2.61,6.51-5.37,9.78-8.28,12.77-11.35,18.66-25.28,13.91-42.14C912.08,732.55,909,723,904,714.81,898.45,705.8,890.4,698.32,882.83,689.45Z"/><path d="M882.83,689.45c7.57,8.87,15.62,16.35,21.18,25.36,5,8.14,8.07,17.74,10.69,27.06,4.75,16.86-1.14,30.79-13.91,42.14-3.27,2.91-6.69,5.67-9.78,8.28,0,5.7.32,11,0,16.29-2.06,30.19-18.26,49.7-46,60.47-16.29,6.33-33.17,8.17-50.49,7.14-31.07-1.85-61.56-6.12-88.14-24.07-8.82-6-16.84-13.08-26.31-20.52-3.68,32.06-19.12,55.77-49.53,64.71-28.57,8.41-57.3,6.19-82.52-13.6-13,11.47-27.63,14.87-44.78,14.56-27.6-.48-54.65-4.1-81.64-9-6.55-1.18-11.42-.49-17.31,3.68-20.79,14.7-42.07,28.71-68.09,33.06-44.35,7.4-87.85,5.37-130.18-10.79-54.65-20.85-91.1-90-58.63-148.87,14.19-25.73,31.8-48.15,55.44-65.72,2.32-1.72,4.51-3.62,8-6.42-14.25-9.36-15.8-25.2-22.93-40-34.63-.11-66.73-10.58-73.54-49.41-7.19-41-2.19-57.89,40.88-87.06-2.37-11.28-4.72-23.18-7.41-35-4.11-18.14-8.66-36.18-12.65-54.35-3.76-17.17-.58-25.31,14.73-34.5a70.91,70.91,0,0,1,22.95-9c19.3-3.6,32.63,4.77,37.77,23.74,7.54,27.87,14.18,56,21.18,84,1.07,4.26,2,8.55,3,12.75,39.93,6.27,81.94-.05,93.75-25.5-2.57-2.44-5.38-5-8.11-7.71-27.51-27-30.63-65.5-7-95.72,4.89-6.23,5.24-11.19,3.72-18.53-5.63-27.28-10.87-54.69-15.08-82.22C298,248,302,221.87,312.82,197.07c30.92-70.95,85.9-112.57,160.27-129.6C519.45,56.86,564.65,61,607.74,82c35.94,17.51,60.54,45.19,75.82,82.28,12.85,31.19,23.05,62.8,20.73,96.74-1.64,23.86-5.55,47.62-9.69,71.21-2.78,15.84-7.85,31.28-11.63,47-.88,3.67-2.33,8.71-.67,11.22,5.13,7.73,2.61,15.12,1,22.67-3.6,16.73-9.21,33.27-10.59,50.17-1.11,13.69.15,28.77,5,41.48,8.73,23.06,24.56,42.15,42.28,59.42,6,5.83,12.11,8.18,21,6.83,46.48-7,93.08-13.24,139.66-19.63a115.68,115.68,0,0,1,19-1.46c9.24.26,12.56,3.77,11.26,13-1.83,13.07-4.48,26.05-7.44,38.92-6.39,27.67-13.2,55.24-19.81,82.86C883.22,686.56,883,688.47,882.83,689.45ZM341.05,487.28c-1.78,4.05-3,7.84-5,11.16-9.77,16.43-24,25.53-43.46,25.17-17.57-.33-35.05-.12-52.39,3.18,1.58,9.37,1.58,9.37,8.24,11.52,23.68,7.64,33.61,23.37,30.37,47.92-.16,1.24.56,2.6.83,3.76,19.87,2.67,28.85,1.37,47.8-5.47,7.84-2.83,13.8-6.8,16.54-15.12,1.26-3.83,3.85-7.23,6.43-11.9C360.91,594,324.21,660.85,265,680.19c-.48,4.41-.7,9.26-1.58,14-1.25,6.71-2.23,13.61-4.66,19.92-4.79,12.46-12.35,14.39-22.62,6.12-5.61-4.53-10.62-9.81-16.34-15.16a222.37,222.37,0,0,0-57,71.15c-27.71,53.84,3.42,105.28,47.83,121.7,61,22.56,121.28,18.86,178.54-13.16,10.34-5.78,20.32-14.41,26.95-24.13,11.24-16.48,14.53-36.39,14.35-56.14-.16-16.68-18.78-28.66-35-22.54,2.5,3.79,4.9,7.25,7.1,10.83,2.56,4.15,5.78,8.14,7.18,12.68,1.83,5.9,3.88,12.55-1.47,18-5.19,5.27-10.18.35-14.87-1.19-22.38-7.32-31,.82-33.61,24.35-1,8.61,2.66,16.42,8.92,22.48,3.33,3.23,6.5,6.07,4.63,11.23s-6.44,5-10.9,5.49a380.16,380.16,0,0,1-119.85-4.67,163.33,163.33,0,0,1-61.72-26.44c-7.23-5.07-14.94-10.66-15.55-20.37-1.3-20.75,5-46.93,29.28-57.69,11.93-5.29,24.36-7.49,37.28-5.12,7.63,1.4,15.12,3.51,22.83,5.33,14.74-18.67,33.3-32.74,53.49-45.11,14.16-8.68,27.36-18.93,41.39-27.86,9.13-5.82,12.84-14,13.93-24.18.64-6,.85-12.29,6.11-18,1.19,2.25,2.19,3.35,2.34,4.56,2.72,22.13,2.4,44.07-5.43,65.27-5.09,13.77-10.93,27.27-16.06,41C347.33,781,343,789.36,344,799.4c14.09,2,27.32,2.3,39.88-1.69-.91-7.2-2.24-12.5-2.06-17.75.18-5.54,2.54-11.53,8.59-12.27,11.08-1.37,22.64-2.73,32.39,5.08C435.59,783,445.16,794.84,443,812.7a84.42,84.42,0,0,0-.36,13.21c.24,6.53,8.48,17.91,14.4,18.54,10.44,1.13,21,1.19,35.37,1.88-25.91-28.28-37-60-45.87-92.58-11-40.29-12.92-88.17-4.33-99.88,1.36,8.88,2.47,17.08,3.9,25.23,3,17.34,4.76,35.08,9.75,51.85,5.56,18.68,13.38,36.82,21.65,54.53,6.39,13.66,13.84,27.16,22.9,39.16,9.62,12.74,21.11,24.54,39.48,24,2.37-.06,4.8.91,7.16,1.57,9.49,2.65,10.82,4.57,10,14.64-.19,2.29-.81,4.55-1.3,7.15,21.59,11.16,43.91,12.66,66.37,8.53C641.57,877,657.46,859,660.48,840.4c1.26-7.77.31-14.72-6.6-19.65-9.82-7-20.84-11.13-32.83-11.29-4.56-.07-9.72,1.92-13.64,4.46-7.63,5-7.67,13.69-.74,19.56,3.24,2.76,6.72,5.24,10.12,7.87-3.46,7-8,8.32-13.92,6.34-8-2.7-13.28-7.93-15.47-16.24-.84-3.19-1.31-7.26-3.48-9.17-14-12.29-20.18-28.39-23-46.17l-79.57-28.35c.37-7.27.68-13.4,1-20.13l75.92-13.38c-6.39-5.46-10.75-9.16-15.07-12.9-13.8-12-26.32-25-33.78-42-1.14-2.6-1-5.77-1.53-9.39,2.45.83,3.54.91,4.21,1.48,21.31,18,42.43,36.19,64,53.88,3.37,2.77,8.77,4.76,13,4.42,12.63-1,25.15-3.36,39-5.37,3.73-15.18,7.4-30.16,10.94-44.59-37.46-27.11-50.41-45.3-46.12-65.48,16.05,16,29.29,34.52,51.5,44.57,4.12-14,8.08-26.92,11.75-40,2.79-9.87,8.24-16.12,19.1-17.4,8.47-1,16.79-3.25,26.81-5.27-28.05-31.1-49.83-63.16-51.41-105.75-10,0-18.77.49-27.43-.14s-14.14,2.16-20,8.84c-28.85,32.92-80.38,37-111.75,6.51-13.28-12.91-25.93-16.86-42.56-14.89a11.13,11.13,0,0,1-2.94,0c-8.24-1.37-14.83,1.31-21.48,6.49a74.49,74.49,0,0,1-50.85,15.82C363.06,492.49,352.58,489.41,341.05,487.28Zm320.36-99.44c5.48-29.22,12.12-56.92,15.6-85,6-48.18,5.55-96-19.66-140-12-21-24.58-41.36-46.3-53.92-27.69-16-57.14-23.91-89.55-24-48.44-.13-91.69,13.89-130.33,42.26-47.06,34.56-71.41,80.54-68.93,140,1.22,29.08,8.18,57,13.93,85.27.15.71,1.43,1.2,1.44,1.2,14-2.9,27.24-7.44,40.7-8.06,20.81-1,39.62,6.52,54.34,21.69,5.93,6.11,11.88,9.31,20.45,9,10.74-.42,21.53.39,32.28.19,3.14-.06,6.9-.92,9.27-2.8,28.52-22.67,83.24-16.93,106.35,10.65a14.34,14.34,0,0,0,12.79,5.53C628.92,388.94,644.07,388.51,661.41,387.84ZM623.9,718.77,513.71,739.48c5.77,2.69,8.65,4.2,11.65,5.4q43.6,17.45,87.25,34.77c2.23.88,4.84,2,7,1.58,10.45-1.79,20.82-4,30.78-6,2.25-10.18,4.2-18.76,6-27.36,1.16-5.45,4.26-8.14,9.93-9.08,51.69-8.6,103.34-17.49,155-26.08,8.83-1.46,11.39,1.68,9.52,11.05-1.29,6.49-3.28,12.85-5.45,21.16l25-3.77c15.09-58.59,29.81-115.72,44.86-174.12l-226,30.51c-1,5.09-1.76,9.43-2.65,13.73-9.61,46-19.14,92.07-29,138a56.26,56.26,0,0,1-6.33,16.21c-1.36,2.35-6.26,5-8,4.24-3-1.42-5.53-5.13-6.71-8.44-.85-2.39.86-5.67,1.36-8.56C619.91,742.24,621.69,731.74,623.9,718.77ZM658.53,789c22.26,16.9,42,32.71,62.72,47.18a68.54,68.54,0,0,0,26.83,11.29c21.62,3.69,43.51,6.61,65.39,7.54,14.16.6,27.66-5,39.86-13.08,12.62-8.37,17.41-20.65,19.12-34.76.71-5.82-.66-11-6.9-13-5.88-1.85-11.75.11-13.35,5.86-3.19,11.48-12,11.66-20.78,11.88-9.76.26-19.71.75-29.3-.71-21.68-3.3-40.76-11.19-49-34.19a19.33,19.33,0,0,0-1.75-3.22ZM356.34,812.68c-44-2.33-84.42-13.22-124.64-25.1a53.66,53.66,0,0,0-20.2-1.9c-14.65,1.51-26,8.85-30.91,23.31-4.8,14-3.85,28,11.34,34.91,16,7.22,31.78,15.27,48.47,20.24,34.45,10.25,70.37,10.43,106,12.15,1.11.05,2.27-1,4.47-2.13C337.52,852.81,343.18,832.84,356.34,812.68ZM230.39,565.18c-2.93-13.86-5.55-26.27-8.16-38.68-7.87-37.35-15.61-74.72-23.65-112-2.56-11.85-9.89-16.07-21.61-13a70.9,70.9,0,0,0-10.89,4.32c-15.1,6.78-14.87,7.33-11.17,23.17,7.46,31.9,14.35,63.93,21.35,95.94C180,542,183.5,559.1,187.17,576.53,203.56,577.68,216.28,572.11,230.39,565.18Zm-70.28-26.27c-21.83,9.85-31.44,26.51-31.6,48.14-.15,21.42,12.55,37.08,30.81,44.56,45.86,18.8,87.54-.69,103.4-48.75,4.81-14.55-.51-22.59-17-29.09,0,4.17.52,8.14-.17,11.89-.48,2.6-2,6-4.12,7.16-15.47,8.52-31.2,16.57-49.68,15.62-13.82-.71-22.5-8.21-25.42-21.74C164.39,557.72,162.32,548.76,160.11,538.91ZM610.66,402.15c0,6.77.16,13.06,0,19.34-.16,4.92-2.51,8.68-7.81,8.87s-7.6-3.67-8.72-8.28c-.34-1.41-.3-2.91-.51-4.36-4.32-30.5-31.73-48.19-62.46-39.17,26.11,8.77,40.64,25.89,41.69,53,1,26.7-12,44.8-35.77,56.46,21.66,3.05,40.21-2.75,53.17-19.92,6.22-8.24,12.83-10.64,22.14-10.8,14.56-.25,29.12-1.23,44.37-1.94,3-17.87,5.86-34.89,8.93-53.19ZM810.39,763.3c-3.93-5.75-6.91-9.62-9.37-13.81-4.07-7-10.63-8.6-17.66-7.78-7.56.88-11.85,6.21-14,13.36-4,13.42.42,24.09,12.94,30.65,13.8,7.23,28.57,9.76,44.05,9.12,6.16-.26,10.81-1.84,15-7.19,6.69-8.55,15.89-12.46,27.29-10.44,14,2.47,28.59-9.46,28.47-23.64-.14-16.65-6.63-30.91-19.86-44.79-3.12,11.16-6.17,20.29-8.15,29.64s-7.58,14.63-16.42,16.53C838.86,757.94,824.93,760.46,810.39,763.3Zm-439.22-289c3.15.89,4.56,1.63,6,1.62,15.69,0,30.54-4,41.54-15.25,7.41-7.6,15.38-9.18,24.92-9.17,7.53,0,15.06-.79,20.76-1.13,1.86-18.45,3.48-34.57,5.18-51.46l-20.75-1.44c0,7.11.19,12.37-.06,17.62-.23,4.88-2.42,8.72-7.87,8.71-5.69,0-7.17-4.21-7.35-9-.22-5.81,1-12-.65-17.38-5.62-18.76-33.15-36-53.8-34.64C430.75,390.76,419,454.69,371.17,474.31ZM321.31,797c8.93-24.12,17.26-46.62,26.78-72.31-28.19,21.72-60.14,32.11-83.57,58.85C285.1,789.83,303.35,795.66,321.31,797ZM515.89,443.23c0,6,2.94,13.59,9.75,19.27,6.59,5.49,16,6.38,21.55,2.34,12.26-8.91,17.52-30.24,10.79-43.77-5.82-11.71-18.92-15.09-29.54-7.32C519.49,420.3,515.73,429.54,515.89,443.23ZM371.43,380.31c-13.81-5.24-26.76-2.18-36.7,8.68-11.88,13-14.3,34.47-5.7,50.61,7.28,13.67,18.9,19.7,34.62,18C342,429.57,346.13,405.35,371.43,380.31ZM272,604.63c-2.15,2.91-3.34,5.08-5,6.74-6.55,6.38-8.44,13.38-5.62,22.47s4.12,19,6.39,30c22.74-15.27,41.07-33.72,58-58.33C305.81,610.86,289.42,610.19,272,604.63ZM529.57,397.25c-16.93-6.51-37.18,3.68-43.66,22.27-6.36,18.26.57,44.2,23.76,49.7C496.78,432.64,505.66,414.13,529.57,397.25Zm-145.81-9.64c-15.64,10-22.31,23.05-19.75,38.26,1.24,7.42,4.09,14.1,10.77,18.39,6.88,4.41,11.34,3.34,15.83-3.63C400.61,425.1,398,402.8,383.76,387.61ZM245.84,637.24l-36.52,17.47c1.9,4.89,3.8,9.74,5.5,14.13C245,671.55,256.08,659.77,245.84,637.24ZM477.1,861.86c14.49,9,27.13,16.29,42,18.06,12.3,1.46,18.34-4.11,19.54-18.06ZM472,878.62l-34.85-29.26c-3.65,6.7-7.48,13.76-12,22.08C440.68,876.11,454.73,880.65,472,878.62Zm108.07-95.5a39.37,39.37,0,0,0,11.08,24.43l24.91-14.93ZM223.55,686.58l19.86,21.57,5.14-27.23Zm414,105.65-.22,3c3.15.64,6.28,1.4,9.47,1.75.34,0,.94-2.31,1.88-4.75Z"/><path d="M825.28,367.68c2,3.32,3.91,6.63,6.28,10.65-2.47,4.31-5.07,8.87-7.88,13.76,1.61,4,3.23,8.07,5.05,12.6l16.13,4.61V434c-10,2.33-20.78,3.33-20,19.22l7.83,13.27-18.54,15.62c-18.68-10.79-25.41-9.05-32.06,14H758.72c-1.58-5.23-3.1-10.27-4.53-15-9.29-8.58-17.85-5.55-27,2.61l-16.8-16c-.25-9.49,10.1-13.56,5-23.54-4.38-8.64-12.12-6.87-19-10.29V409.43c3.58-1,6.4-1.77,9.18-2.63,10.2-3.14,14-12,7.92-21.19-4.16-6.29-3.25-10.24,1.61-15.25,9.2-9.5,9-9.72,21.66-4a14.14,14.14,0,0,0,18.73-8.27c1.07-3.21,1.72-6.55,2.78-10.65h24.15C788,370.23,797,371.92,813.9,360.9l11.85,7.28ZM771,384.09a37.57,37.57,0,1,0,37.21,37.51A37.27,37.27,0,0,0,771,384.09Z"/><path d="M825.75,368.18v-20c16.73-6.48,18.49-8.71,10.08-26.76l11.95-10.3c17.69,7,19.2,6.4,25.47-10.46h16.43c7.87,17,8.7,17.29,27.85,9.85l9.3,10.74c-1.29,6.4-4.48,12.56-2.89,17s8,7.15,13.71,11.78v13.56c-4.76,3.26-11.31,5.45-13.29,9.74s.71,10.6,4.28,17.52l-11.85,11.31c-18.31-8-20-6.86-26.67,9.68H873.78c-7.68-18.17-10.67-17-26.58-9.48-3.06-3.93-6.57-8.43-10.18-13.08,7-17.31,4.93-21.17-11.75-21.59Zm84.58-11.36c.35-15.11-12.29-28.24-27.62-28.69a28.07,28.07,0,0,0-29,27C853,371,866,384.71,881.76,384.77,896.71,384.83,910,371.84,910.33,356.82Z"/><path class="cls-1" d="M341.05,487.28c11.53,2.13,22,5.21,32.63,5.78a74.49,74.49,0,0,0,50.85-15.82c6.65-5.18,13.24-7.86,21.48-6.49a11.13,11.13,0,0,0,2.94,0c16.63-2,29.28,2,42.56,14.89,31.37,30.5,82.9,26.41,111.75-6.51,5.85-6.68,11.45-9.47,20-8.84s17.41.14,27.43.14c1.58,42.59,23.36,74.65,51.41,105.75-10,2-18.34,4.27-26.81,5.27-10.86,1.28-16.31,7.53-19.1,17.4-3.67,13-7.63,26-11.75,40-22.21-10.05-35.45-28.56-51.5-44.57-4.29,20.18,8.66,38.37,46.12,65.48-3.54,14.43-7.21,29.41-10.94,44.59-13.88,2-26.4,4.36-39,5.37-4.24.34-9.64-1.65-13-4.42-21.55-17.69-42.67-35.89-64-53.88-.67-.57-1.76-.65-4.21-1.48.55,3.62.39,6.79,1.53,9.39,7.46,17,20,30,33.78,42,4.32,3.74,8.68,7.44,15.07,12.9l-75.92,13.38c-.35,6.73-.66,12.86-1,20.13l79.57,28.35c2.86,17.78,9.06,33.88,23,46.17,2.17,1.91,2.64,6,3.48,9.17,2.19,8.31,7.49,13.54,15.47,16.24,5.87,2,10.46.64,13.92-6.34-3.4-2.63-6.88-5.11-10.12-7.87-6.93-5.87-6.89-14.61.74-19.56,3.92-2.54,9.08-4.53,13.64-4.46,12,.16,23,4.29,32.83,11.29,6.91,4.93,7.86,11.88,6.6,19.65-3,18.6-18.91,36.6-38.39,40.17-22.46,4.13-44.78,2.63-66.37-8.53.49-2.6,1.11-4.86,1.3-7.15.85-10.07-.48-12-10-14.64-2.36-.66-4.79-1.63-7.16-1.57-18.37.5-29.86-11.3-39.48-24-9.06-12-16.51-25.5-22.9-39.16-8.27-17.71-16.09-35.85-21.65-54.53-5-16.77-6.72-34.51-9.75-51.85-1.43-8.15-2.54-16.35-3.9-25.23-8.59,11.71-6.63,59.59,4.33,99.88,8.85,32.57,20,64.3,45.87,92.58-14.38-.69-24.93-.75-35.37-1.88-5.92-.63-14.16-12-14.4-18.54A84.42,84.42,0,0,1,443,812.7c2.16-17.86-7.41-29.72-20.17-39.93-9.75-7.81-21.31-6.45-32.39-5.08-6.05.74-8.41,6.73-8.59,12.27-.18,5.25,1.15,10.55,2.06,17.75-12.56,4-25.79,3.69-39.88,1.69-1.06-10,3.3-18.36,6.45-26.83,5.13-13.75,11-27.25,16.06-41,7.83-21.2,8.15-43.14,5.43-65.27-.15-1.21-1.15-2.31-2.34-4.56-5.26,5.67-5.47,12-6.11,18-1.09,10.19-4.8,18.36-13.93,24.18-14,8.93-27.23,19.18-41.39,27.86-20.19,12.37-38.75,26.44-53.49,45.11-7.71-1.82-15.2-3.93-22.83-5.33-12.92-2.37-25.35-.17-37.28,5.12-24.26,10.76-30.58,36.94-29.28,57.69.61,9.71,8.32,15.3,15.55,20.37a163.33,163.33,0,0,0,61.72,26.44,380.16,380.16,0,0,0,119.85,4.67c4.46-.52,9-.23,10.9-5.49s-1.3-8-4.63-11.23c-6.26-6.06-9.87-13.87-8.92-22.48,2.59-23.53,11.23-31.67,33.61-24.35,4.69,1.54,9.68,6.46,14.87,1.19,5.35-5.43,3.3-12.08,1.47-18-1.4-4.54-4.62-8.53-7.18-12.68-2.2-3.58-4.6-7-7.1-10.83,16.26-6.12,34.88,5.86,35,22.54.18,19.75-3.11,39.66-14.35,56.14-6.63,9.72-16.61,18.35-26.95,24.13-57.26,32-117.52,35.72-178.54,13.16-44.41-16.42-75.54-67.86-47.83-121.7a222.37,222.37,0,0,1,57-71.15c5.72,5.35,10.73,10.63,16.34,15.16,10.27,8.27,17.83,6.34,22.62-6.12,2.43-6.31,3.41-13.21,4.66-19.92.88-4.73,1.1-9.58,1.58-14,59.18-19.34,95.88-86.23,85.42-122.69-2.58,4.67-5.17,8.07-6.43,11.9-2.74,8.32-8.7,12.29-16.54,15.12-19,6.84-27.93,8.14-47.8,5.47-.27-1.16-1-2.52-.83-3.76,3.24-24.55-6.69-40.28-30.37-47.92-6.66-2.15-6.66-2.15-8.24-11.52,17.34-3.3,34.82-3.51,52.39-3.18,19.42.36,33.69-8.74,43.46-25.17C338.07,495.12,339.27,491.33,341.05,487.28Zm76.68,38.34c-2.05,7.82-1.65,10.54,6,13.22,16.45,5.72,33.37,7.45,49.67-.54,4.61-2.26,8.66-6.31,12-10.35,3.17-3.85,4.93-9.31-.3-12.84-4.37-2.94-8.31-.21-11.14,3.74-6.08,8.45-14.91,10.69-24.53,10.06C438.92,528.23,428.44,526.77,417.73,525.62Z"/><path class="cls-1" d="M661.41,387.84c-17.34.67-32.49,1.1-47.62,1.93A14.34,14.34,0,0,1,601,384.24c-23.11-27.58-77.83-33.32-106.35-10.65-2.37,1.88-6.13,2.74-9.27,2.8-10.75.2-21.54-.61-32.28-.19-8.57.34-14.52-2.86-20.45-9-14.72-15.17-33.53-22.65-54.34-21.69-13.46.62-26.73,5.16-40.7,8.06,0,0-1.29-.49-1.44-1.2-5.75-28.24-12.71-56.19-13.93-85.27-2.48-59.42,21.87-105.4,68.93-140C429.81,98.8,473.06,84.78,521.5,84.91c32.41.08,61.86,8,89.55,24,21.72,12.56,34.31,33,46.3,53.92,25.21,44.05,25.63,91.83,19.66,140C673.53,330.92,666.89,358.62,661.41,387.84ZM626.25,208.61c-10.28.88-12.08,5.25-12.33,12.1-.8,22-2.06,43.94-3.47,65.89-.4,6.09.09,14.31-8.84,14.26-7.81,0-8-7.85-8.38-13.33-.6-8.21.25-16.53.34-24.8,0-4.86-1.79-9.57-7.12-8.93-2.8.34-7.14,4.64-7.3,7.36-.73,12.6-1.63,25.47.19,37.86,2,13.69,9.79,19,22,18.85,13.46-.14,21.08-5.76,24.45-18.63a60.39,60.39,0,0,0,2.09-14.44q.45-30.76.24-61.54C628.06,218.65,627,214,626.25,208.61ZM578.13,232l10.34,7.43c1.55-2.73,4.34-5.51,4.26-8.19s-3.18-5-5-7.47Z"/><path class="cls-2" d="M623.9,718.77c-2.21,13-4,23.47-5.8,34-.5,2.89-2.21,6.17-1.36,8.56,1.18,3.31,3.74,7,6.71,8.44,1.7.81,6.6-1.89,8-4.24a56.26,56.26,0,0,0,6.33-16.21c9.83-46,19.36-92,29-138,.89-4.3,1.67-8.64,2.65-13.73l226-30.51c-15.05,58.4-29.77,115.53-44.86,174.12l-25,3.77c2.17-8.31,4.16-14.67,5.45-21.16,1.87-9.37-.69-12.51-9.52-11.05-51.7,8.59-103.35,17.48-155,26.08-5.67.94-8.77,3.63-9.93,9.08-1.83,8.6-3.78,17.18-6,27.36-10,2-20.33,4.25-30.78,6-2.2.37-4.81-.7-7-1.58q-43.67-17.29-87.25-34.77c-3-1.2-5.88-2.71-11.65-5.4Z"/><path class="cls-1" d="M658.53,789l92.85-15.19a19.33,19.33,0,0,1,1.75,3.22c8.23,23,27.31,30.89,49,34.19,9.59,1.46,19.54,1,29.3.71,8.8-.22,17.59-.4,20.78-11.88,1.6-5.75,7.47-7.71,13.35-5.86,6.24,2,7.61,7.16,6.9,13-1.71,14.11-6.5,26.39-19.12,34.76-12.2,8.09-25.7,13.68-39.86,13.08-21.88-.93-43.77-3.85-65.39-7.54a68.54,68.54,0,0,1-26.83-11.29C700.55,821.67,680.79,805.86,658.53,789Z"/><path class="cls-1" d="M356.34,812.68c-13.16,20.16-18.82,40.13-5.49,61.48-2.2,1.09-3.36,2.18-4.47,2.13-35.61-1.72-71.53-1.9-106-12.15-16.69-5-32.51-13-48.47-20.24C176.74,837,175.79,823,180.59,809c4.95-14.46,16.26-21.8,30.91-23.31a53.66,53.66,0,0,1,20.2,1.9C271.92,799.46,312.3,810.35,356.34,812.68Zm-28.3,45c-.24-1.47-.47-3-.71-4.42-4.63-.89-9.24-2-13.91-2.61-6.28-.88-12.64-1.27-18.92-2.16a425,425,0,0,1-85.16-21.06c-4.06-1.48-8.78-4.23-14.17.17,2.05,1.9,3.18,3.52,4.73,4.3,37.8,19,78.41,26.52,120.16,29.15C322.64,861.24,325.38,858.89,328,857.71Zm-115.8-55.13c28.81,19.54,62,25.75,95.41,31.36,6.79,1.14,13.88,3.14,21.25-.64l-2.51-4.74Z"/><path class="cls-2" d="M230.39,565.18c-14.11,6.93-26.83,12.5-43.22,11.35C183.5,559.1,180,542,176.26,524.89c-7-32-13.89-64-21.35-95.94-3.7-15.84-3.93-16.39,11.17-23.17A70.9,70.9,0,0,1,177,401.46c11.72-3.06,19.05,1.16,21.61,13,8,37.31,15.78,74.68,23.65,112C224.84,538.91,227.46,551.32,230.39,565.18Z"/><path class="cls-1" d="M160.11,538.91c2.21,9.85,4.28,18.81,6.22,27.79,2.92,13.53,11.6,21,25.42,21.74,18.48.95,34.21-7.1,49.68-15.62,2.1-1.16,3.64-4.56,4.12-7.16.69-3.75.17-7.72.17-11.89,16.49,6.5,21.81,14.54,17,29.09-15.86,48.06-57.54,67.55-103.4,48.75-18.26-7.48-31-23.14-30.81-44.56C128.67,565.42,138.28,548.76,160.11,538.91Z"/><path class="cls-1" d="M610.66,402.15h55c-3.07,18.3-5.93,35.32-8.93,53.19-15.25.71-29.81,1.69-44.37,1.94-9.31.16-15.92,2.56-22.14,10.8-13,17.17-31.51,23-53.17,19.92,23.8-11.66,36.8-29.76,35.77-56.46-1-27.1-15.58-44.22-41.69-53,30.73-9,58.14,8.67,62.46,39.17.21,1.45.17,2.95.51,4.36,1.12,4.61,3.41,8.48,8.72,8.28s7.65-3.95,7.81-8.87C610.82,415.21,610.66,408.92,610.66,402.15Z"/><path class="cls-1" d="M810.39,763.3c14.54-2.84,28.47-5.36,42.29-8.35,8.84-1.9,14.44-7.16,16.42-16.53s5-18.48,8.15-29.64c13.23,13.88,19.72,28.14,19.86,44.79.12,14.18-14.51,26.11-28.47,23.64-11.4-2-20.6,1.89-27.29,10.44-4.18,5.35-8.83,6.93-15,7.19-15.48.64-30.25-1.89-44.05-9.12-12.52-6.56-16.95-17.23-12.94-30.65,2.14-7.15,6.43-12.48,14-13.36,7-.82,13.59.83,17.66,7.78C803.48,753.68,806.46,757.55,810.39,763.3Z"/><path class="cls-1" d="M371.17,474.31c47.81-19.62,59.58-83.55,7.88-111.53,20.65-1.4,48.18,15.88,53.8,34.64,1.61,5.37.43,11.57.65,17.38.18,4.8,1.66,9,7.35,9,5.45,0,7.64-3.83,7.87-8.71.25-5.25.06-10.51.06-17.62l20.75,1.44c-1.7,16.89-3.32,33-5.18,51.46-5.7.34-13.23,1.15-20.76,1.13-9.54,0-17.51,1.57-24.92,9.17-11,11.29-25.85,15.21-41.54,15.25C375.73,475.94,374.32,475.2,371.17,474.31Z"/><path class="cls-1" d="M321.31,797c-18-1.38-36.21-7.21-56.79-13.46,23.43-26.74,55.38-37.13,83.57-58.85C338.57,750.42,330.24,772.92,321.31,797Z"/><path class="cls-1" d="M515.89,443.23c-.16-13.69,3.6-22.93,12.55-29.48,10.62-7.77,23.72-4.39,29.54,7.32,6.73,13.53,1.47,34.86-10.79,43.77-5.55,4-15,3.15-21.55-2.34C518.83,456.82,515.87,449.27,515.89,443.23Z"/><path class="cls-1" d="M371.43,380.31c-25.3,25-29.42,49.26-7.78,77.26-15.72,1.73-27.34-4.3-34.62-18-8.6-16.14-6.18-37.63,5.7-50.61C344.67,378.13,357.62,375.07,371.43,380.31Z"/><path class="cls-1" d="M272,604.63c17.43,5.56,33.82,6.23,53.73.85-16.93,24.61-35.26,43.06-58,58.33-2.27-11-3.53-20.74-6.39-30s-.93-16.09,5.62-22.47C268.65,609.71,269.84,607.54,272,604.63Z"/><path class="cls-1" d="M529.57,397.25c-23.91,16.88-32.79,35.39-19.9,72-23.19-5.5-30.12-31.44-23.76-49.7C492.39,400.93,512.64,390.74,529.57,397.25Z"/><path class="cls-1" d="M383.76,387.61c14.23,15.19,16.85,37.49,6.85,53-4.49,7-8.95,8-15.83,3.63-6.68-4.29-9.53-11-10.77-18.39C361.45,410.66,368.12,397.59,383.76,387.61Z"/><path class="cls-2" d="M245.84,637.24c10.24,22.53-.82,34.31-31,31.6-1.7-4.39-3.6-9.24-5.5-14.13Z"/><path class="cls-1" d="M477.1,861.86h61.53c-1.2,13.95-7.24,19.52-19.54,18.06C504.23,878.15,491.59,870.9,477.1,861.86Z"/><path class="cls-1" d="M472,878.62c-17.27,2-31.32-2.51-46.86-7.18,4.53-8.32,8.36-15.38,12-22.08Z"/><path class="cls-1" d="M580.07,783.12l36,9.5-24.91,14.93A39.37,39.37,0,0,1,580.07,783.12Z"/><path class="cls-1" d="M223.55,686.58l25-5.66-5.14,27.23Z"/><path class="cls-1" d="M637.5,792.23h11.13c-.94,2.44-1.54,4.79-1.88,4.75-3.19-.35-6.32-1.11-9.47-1.75Z"/><path d="M417.73,525.62c10.71,1.15,21.19,2.61,31.71,3.29,9.62.63,18.45-1.61,24.53-10.06,2.83-4,6.77-6.68,11.14-3.74,5.23,3.53,3.47,9,.3,12.84-3.32,4-7.37,8.09-12,10.35-16.3,8-33.22,6.26-49.67.54C416.08,536.16,415.68,533.44,417.73,525.62Z"/><path d="M626.25,208.61c.71,5.43,1.81,10,1.84,14.65q.18,30.77-.24,61.54a60.39,60.39,0,0,1-2.09,14.44c-3.37,12.87-11,18.49-24.45,18.63-12.18.14-20-5.16-22-18.85-1.82-12.39-.92-25.26-.19-37.86.16-2.72,4.5-7,7.3-7.36,5.33-.64,7.16,4.07,7.12,8.93-.09,8.27-.94,16.59-.34,24.8.41,5.48.57,13.29,8.38,13.33,8.93.05,8.44-8.17,8.84-14.26,1.41-22,2.67-43.91,3.47-65.89C614.17,213.86,616,209.49,626.25,208.61Z"/><path d="M578.13,232l9.65-8.23c1.77,2.49,4.88,4.93,5,7.47s-2.71,5.46-4.26,8.19Z"/><path d="M328,857.71c-2.66,1.18-5.4,3.53-8,3.37-41.75-2.63-82.36-10.19-120.16-29.15-1.55-.78-2.68-2.4-4.73-4.3,5.39-4.4,10.11-1.65,14.17-.17a425,425,0,0,0,85.16,21.06c6.28.89,12.64,1.28,18.92,2.16,4.67.65,9.28,1.72,13.91,2.61C327.57,854.76,327.8,856.24,328,857.71Z"/><path d="M212.24,802.58l114.15,26,2.51,4.74c-7.37,3.78-14.46,1.78-21.25.64C274.27,828.33,241.05,822.12,212.24,802.58Z"/></svg>