<svg width="180" height="55" viewBox="0 0 180 55" fill="none" xmlns="http://www.w3.org/2000/svg">
<path d="M137 34.3306H131V37.3306H125V17.3306H131V20.3306H137V14.3306L133 11.3306H123L119 14.3306V40.3306L123 43.3306H133L137 40.3306V34.3306Z" fill="#222222"/>
<path fill-rule="evenodd" clip-rule="evenodd" d="M158 14.3306L154 11.3306H143L139 14.3306V40.3306L143 43.3306H154L158 40.3306V14.3306ZM145 37.3306V17.3306H152V37.3306H145Z" fill="#222222"/>
<path d="M180 11.3306V43.3306H174L167 26.3306V43.3306H161V11.3306H168L174 28.3306V11.3306H180Z" fill="#222222"/>
<path d="M0 17.3306H6V43.3306H12V17.3306H18V11.3306H0V17.3306Z" fill="#222222"/>
<path d="M61 40.3306L57 43.3306H46L42 40.3306V14.3306L46 11.3306H57L61 14.3306V20.3306H55V17.3306H48V37.3306H55V30.3306H51V24.3306H61V40.3306Z" fill="#222222"/>
<path fill-rule="evenodd" clip-rule="evenodd" d="M35 11.3306L39 14.3306V26.3306L36 29.3306L39 32.3306V43.3306H33V34.3306L28 30.3306H26V43.3306H20V11.3306H35ZM33 17.3306H26V24.3306H33V17.3306Z" fill="#222222"/>
<path opacity="0.2" d="M90.0004 27.4545V51.455L68.9885 39.4679L68.9883 15.4541L90.0004 27.4545Z" fill="#222222"/>
<path fill-rule="evenodd" clip-rule="evenodd" d="M114 13.7143L89.9999 0L66 13.7143V41.1962L89.9999 54.9105L114 41.1962V13.7143ZM111 15.4549L100.498 9.45373L100.5 9.45508L90 15.4551L79.5 9.45508L79.5024 9.4535L69 15.4549V27.4551L79.5 33.4551V45.4549L90 51.4548V27.4551L111 15.4549ZM111 39.4549L100.5 45.4548V33.4551L111 27.4551V39.4549Z" fill="#222222"/>
</svg>
