<svg width="638" height="162" viewBox="0 0 638 162" fill="none" xmlns="http://www.w3.org/2000/svg">
<path d="M127.584 44.5318L70.5632 11.6144L66.049 9L61.5349 11.6144L4.51415 44.5318L0 47.1462V52.3749V118.21V123.438L4.51415 126.053L61.5349 158.97L66.049 161.585L70.5632 158.97L127.584 126.053L132.098 123.438V118.21V52.3749V47.1462L127.584 44.5318ZM36.9447 134.371V103.118L8.90949 86.956V52.4938L37.895 35.738L66.2866 52.0184L94.203 35.738L122.595 52.1372L94.4406 68.4177L66.1678 84.9358V151.127H66.049L36.9447 134.371ZM95.2722 134.253V101.097L123.07 85.0547V118.329L95.2722 134.253Z" fill="black"/>
<path opacity="0.2" d="M9.02832 52.375L66.1678 84.9359V151.127L66.0491 151.246L36.9447 134.371V103.118L9.02832 86.8373V52.375Z" fill="black"/>
<path d="M608.025 108.008H560.793V96.2319L606.233 39.3999H621.337V96.2319H634.265V108.008H621.337V129H608.025V108.008ZM608.025 96.2319V54.6319L574.489 96.2319H608.025Z" fill="black"/>
<path d="M495.169 69.224C494.998 62.9946 496.108 57.576 498.497 52.968C500.972 48.2746 504.513 44.6906 509.121 42.216C513.814 39.656 519.276 38.376 525.505 38.376C531.308 38.376 536.47 39.528 540.993 41.832C545.516 44.0506 549.057 47.208 551.617 51.304C554.177 55.4 555.457 60.136 555.457 65.512C555.457 71.4853 553.665 76.8613 550.081 81.64C546.582 86.4186 541.377 90.5573 534.465 94.056L521.281 100.712L519.489 101.608C515.99 103.656 513.089 106.003 510.785 108.648C508.566 111.293 507.457 114.152 507.457 117.224H555.713V129H494.401V119.4C494.316 112.488 496.406 106.557 500.673 101.608C505.025 96.5733 510.017 92.648 515.649 89.832L529.601 82.792C533.868 80.6586 536.982 78.184 538.945 75.368C540.908 72.4666 541.889 69.1386 541.889 65.384C541.889 60.6053 540.353 56.808 537.281 53.992C534.294 51.176 530.369 49.768 525.505 49.768C520.214 49.768 516.033 51.56 512.961 55.144C509.889 58.6426 508.481 63.336 508.737 69.224H495.169Z" fill="black"/>
<path d="M444.591 130.024C436.826 130.024 429.658 128.275 423.087 124.776C416.516 121.277 411.226 116.115 407.215 109.288C403.204 102.376 401.199 94.0133 401.199 84.2C401.199 74.3866 403.204 66.0666 407.215 59.24C411.311 52.328 416.687 47.1226 423.343 43.624C430.084 40.1253 437.338 38.376 445.103 38.376C452.015 38.376 458.33 39.656 464.047 42.216C469.764 44.776 474.372 48.36 477.871 52.968C481.37 57.4906 483.418 62.696 484.015 68.584H470.319C469.722 65 468.228 61.8 465.839 58.984C463.535 56.168 460.548 53.992 456.879 52.456C453.295 50.92 449.327 50.152 444.975 50.152C439.087 50.152 433.839 51.5173 429.231 54.248C424.623 56.8933 420.996 60.776 418.351 65.896C415.706 70.9306 414.383 77.032 414.383 84.2C414.383 91.368 415.706 97.5546 418.351 102.76C420.996 107.88 424.623 111.805 429.231 114.536C433.839 117.267 439.044 118.632 444.847 118.632C449.455 118.632 453.764 117.779 457.775 116.072C461.786 114.365 464.986 112.019 467.375 109.032C469.85 105.96 471.087 102.547 471.087 98.792C471.087 97.0853 470.532 95.6773 469.423 94.568C468.314 93.4586 466.82 92.904 464.943 92.904H445.615V82.152H468.399C470.874 82.152 473.306 82.7493 475.695 83.944C478.084 85.1386 480.047 86.888 481.583 89.192C483.119 91.496 483.887 94.184 483.887 97.256V129H471.727V113.896C469.764 118.76 466.308 122.685 461.359 125.672C456.41 128.573 450.82 130.024 444.591 130.024Z" fill="black"/>
<path d="M327.12 39.3999H362.192C368.165 39.3999 373.328 40.5519 377.68 42.8559C382.032 45.0746 385.36 48.2319 387.664 52.3279C390.053 56.3386 391.248 60.9892 391.248 66.2799C391.248 71.4852 389.797 75.9226 386.896 79.5919C383.995 83.1759 380.027 85.9066 374.992 87.7839C370.043 89.5759 364.496 90.4719 358.352 90.4719H340.432V129H327.12V39.3999ZM361.808 81.8959C367.269 81.8959 371.323 80.4452 373.968 77.5439C376.613 74.5572 377.936 70.8026 377.936 66.2799C377.936 61.7572 376.613 58.0879 373.968 55.2719C371.323 52.3706 367.269 50.9199 361.808 50.9199H340.432V81.8959H361.808ZM338.128 83.0479H364.752C371.835 83.0479 377.552 85.1812 381.904 89.4479C386.341 93.7146 388.816 99.2612 389.328 106.088L391.12 129H378.192L376.4 107.24C376.059 103.229 374.651 99.9866 372.176 97.5119C369.701 94.9519 366.587 93.6719 362.832 93.6719H338.128V83.0479Z" fill="black"/>
<path d="M276.755 51.1759H248.723V39.3999H318.099V51.1759H290.067V129H276.755V51.1759Z" fill="black"/>
<path d="M182.096 102.888H166.096V93.2879H184.144L188.24 75.1119H171.728V65.5119H190.288L196.048 39.3999H206.16L200.528 65.5119H219.728L225.616 39.3999H235.728L229.968 65.5119H245.84V75.1119H227.92L223.824 93.2879H240.336V102.888H221.776L216.016 129H205.904L211.664 102.888H192.208L186.448 129H176.336L182.096 102.888ZM213.712 93.2879L217.808 75.1119H198.352L194.256 93.2879H213.712Z" fill="black"/>
</svg>
