<svg width="527" height="203" viewBox="0 0 527 203" fill="none" xmlns="http://www.w3.org/2000/svg">
<g clip-path="url(#clip0_322_438)">
<path d="M255.082 194.56L248.472 176.654H251.375L256.376 190.643L261.377 176.654H264.315L258.614 192.252L255.502 201.415H252.809L255.082 194.56Z" fill="black"/>
<path d="M238.833 194.559C237.621 194.559 236.478 194.268 235.406 193.685C234.333 193.102 233.529 192.333 232.993 191.377V194.279H230.195V169.414H232.993V179.521C233.529 178.588 234.333 177.831 235.406 177.248C236.478 176.665 237.632 176.374 238.868 176.374C240.64 176.374 242.167 176.77 243.449 177.563C244.732 178.355 245.699 179.439 246.352 180.815C247.028 182.191 247.366 183.741 247.366 185.466C247.366 187.192 247.028 188.742 246.352 190.118C245.699 191.493 244.732 192.577 243.449 193.37C242.167 194.163 240.628 194.559 238.833 194.559ZM238.588 192.041C240.383 192.041 241.806 191.447 242.855 190.258C243.927 189.068 244.464 187.471 244.464 185.466C244.464 183.461 243.927 181.864 242.855 180.675C241.806 179.486 240.383 178.892 238.588 178.892C236.816 178.892 235.394 179.486 234.322 180.675C233.272 181.864 232.748 183.461 232.748 185.466C232.748 187.471 233.272 189.068 234.322 190.258C235.394 191.447 236.816 192.041 238.588 192.041Z" fill="black"/>
<path d="M209.224 194.559C207.429 194.559 205.89 194.163 204.608 193.37C203.349 192.577 202.381 191.493 201.705 190.118C201.052 188.742 200.726 187.192 200.726 185.466C200.726 183.741 201.052 182.191 201.705 180.815C202.381 179.439 203.349 178.355 204.608 177.563C205.89 176.77 207.429 176.374 209.224 176.374C210.46 176.374 211.602 176.665 212.652 177.248C213.724 177.831 214.528 178.588 215.065 179.521V169.414H217.862V194.279H215.065V191.377C214.528 192.333 213.724 193.102 212.652 193.685C211.602 194.268 210.46 194.559 209.224 194.559ZM209.469 192.041C211.241 192.041 212.652 191.447 213.701 190.258C214.773 189.068 215.31 187.471 215.31 185.466C215.31 183.461 214.773 181.864 213.701 180.675C212.652 179.486 211.241 178.892 209.469 178.892C207.697 178.892 206.275 179.486 205.203 180.675C204.153 181.864 203.629 183.461 203.629 185.466C203.629 187.471 204.153 189.068 205.203 190.258C206.275 191.447 207.697 192.041 209.469 192.041Z" fill="black"/>
<path d="M190.461 194.56C188.782 194.56 187.278 194.152 185.949 193.336C184.62 192.52 183.583 191.412 182.837 190.013C182.114 188.591 181.753 187.041 181.753 185.362C181.753 183.637 182.091 182.098 182.767 180.746C183.466 179.37 184.446 178.297 185.705 177.528C186.987 176.759 188.467 176.374 190.146 176.374C191.825 176.374 193.282 176.735 194.518 177.458C195.753 178.158 196.698 179.137 197.35 180.396C198.026 181.655 198.365 183.065 198.365 184.627C198.341 185.024 198.318 185.443 198.295 185.886H183.361V183.613H195.497C195.38 182.121 194.844 180.944 193.888 180.081C192.955 179.195 191.708 178.752 190.146 178.752C188.397 178.752 187.022 179.335 186.019 180.501C185.04 181.643 184.539 183.252 184.516 185.327C184.516 186.609 184.772 187.763 185.285 188.789C185.798 189.815 186.509 190.619 187.418 191.202C188.327 191.785 189.342 192.077 190.461 192.077C191.883 192.077 193.037 191.785 193.923 191.202C194.809 190.596 195.392 189.733 195.672 188.614H198.539C198.236 190.41 197.35 191.855 195.881 192.951C194.436 194.023 192.629 194.56 190.461 194.56Z" fill="black"/>
<path d="M178.761 179.137C177.083 179.137 175.894 179.802 175.194 181.131C174.495 182.436 174.145 184.232 174.145 186.516V194.28H171.347V176.654H174.145V180.221C174.518 179.009 175.089 178.111 175.859 177.529C176.651 176.946 177.677 176.654 178.936 176.654H181.174V179.137H178.761Z" fill="black"/>
<path d="M159.893 194.56C158.214 194.56 156.71 194.152 155.381 193.336C154.053 192.52 153.015 191.412 152.269 190.013C151.546 188.591 151.185 187.041 151.185 185.362C151.185 183.637 151.523 182.098 152.199 180.746C152.898 179.37 153.878 178.297 155.137 177.528C156.419 176.759 157.899 176.374 159.578 176.374C161.257 176.374 162.714 176.735 163.95 177.458C165.185 178.158 166.13 179.137 166.782 180.396C167.459 181.655 167.797 183.065 167.797 184.627C167.773 185.024 167.75 185.443 167.727 185.886H152.794V183.613H164.929C164.812 182.121 164.276 180.944 163.32 180.081C162.388 179.195 161.14 178.752 159.578 178.752C157.83 178.752 156.454 179.335 155.451 180.501C154.472 181.643 153.971 183.252 153.948 185.327C153.948 186.609 154.204 187.763 154.717 188.789C155.23 189.815 155.941 190.619 156.85 191.202C157.76 191.785 158.774 192.077 159.893 192.077C161.315 192.077 162.469 191.785 163.355 191.202C164.241 190.596 164.824 189.733 165.104 188.614H167.972C167.668 190.41 166.782 191.855 165.314 192.951C163.868 194.023 162.061 194.56 159.893 194.56Z" fill="black"/>
<path d="M125.095 176.654H127.893L131.774 190.643L136.111 176.654H138.839L143.105 190.643L146.987 176.654H149.82L144.469 194.28H141.776L137.44 180.256L133.138 194.28H130.445L125.095 176.654Z" fill="black"/>
<path d="M114.747 194.56C113.045 194.56 111.506 194.175 110.131 193.406C108.755 192.613 107.683 191.529 106.913 190.153C106.167 188.778 105.794 187.215 105.794 185.467C105.794 183.718 106.167 182.156 106.913 180.781C107.683 179.405 108.755 178.332 110.131 177.563C111.506 176.77 113.045 176.374 114.747 176.374C116.472 176.374 118.011 176.77 119.363 177.563C120.739 178.332 121.811 179.405 122.581 180.781C123.35 182.156 123.735 183.718 123.735 185.467C123.735 187.215 123.35 188.778 122.581 190.153C121.811 191.529 120.739 192.613 119.363 193.406C118.011 194.175 116.472 194.56 114.747 194.56ZM114.747 192.042C115.936 192.042 116.997 191.762 117.93 191.202C118.862 190.643 119.573 189.862 120.063 188.859C120.576 187.857 120.832 186.726 120.832 185.467C120.832 184.208 120.576 183.077 120.063 182.075C119.573 181.072 118.862 180.291 117.93 179.731C116.997 179.172 115.936 178.892 114.747 178.892C113.558 178.892 112.497 179.172 111.565 179.731C110.655 180.291 109.944 181.072 109.431 182.075C108.918 183.077 108.662 184.208 108.662 185.467C108.662 186.726 108.918 187.857 109.431 188.859C109.944 189.862 110.655 190.643 111.565 191.202C112.497 191.762 113.558 192.042 114.747 192.042Z" fill="black"/>
<path d="M87.7461 169.798H96.9788C98.5642 169.798 99.9398 170.101 101.105 170.707C102.295 171.313 103.204 172.164 103.833 173.26C104.463 174.356 104.778 175.615 104.778 177.037C104.778 178.459 104.463 179.718 103.833 180.814C103.204 181.91 102.295 182.761 101.105 183.367C99.9398 183.973 98.5642 184.276 96.9788 184.276H90.7537V194.278H87.7461V169.798ZM96.9438 181.618C98.5758 181.618 99.7766 181.187 100.546 180.325C101.315 179.462 101.7 178.366 101.7 177.037C101.7 175.708 101.315 174.612 100.546 173.75C99.7766 172.887 98.5758 172.456 96.9438 172.456H90.7537V181.618H96.9438Z" fill="black"/>
<path d="M357.187 162.841V162.128H357.306V154.047H361.701C362.889 154.047 363.958 154.522 364.79 155.354C365.621 156.186 366.096 157.255 366.096 158.444C366.096 159.632 365.621 160.702 364.79 161.534C364.077 162.247 363.126 162.722 362.057 162.841H357.187Z" fill="black"/>
<path d="M374.531 190.411C377.382 193.382 380.351 194.808 383.559 194.808C385.935 194.808 387.717 193.857 387.717 192.074C387.717 190.648 386.766 190.173 384.39 189.104L380.945 187.677C375.006 185.301 372.155 182.568 372.155 177.814C372.155 171.754 377.025 168.188 384.034 168.188C388.905 168.188 392.706 169.852 395.676 173.061L391.28 178.527C389.142 176.507 386.766 175.437 384.034 175.437C381.896 175.437 380.589 176.269 380.589 177.695C380.589 178.884 381.421 179.478 384.034 180.547L387.123 181.855C393.419 184.35 396.151 186.964 396.151 191.718C396.151 194.926 394.963 197.422 392.587 199.323C390.211 201.106 387.241 202.057 383.559 202.057C377.857 202.057 373.105 199.68 370.254 195.758L374.531 190.411Z" fill="black"/>
<path fill-rule="evenodd" clip-rule="evenodd" d="M337.942 194.451C333.309 194.451 329.983 192.193 328.914 188.034L351.722 188.153C352.079 186.489 352.316 184.825 352.316 183.281C352.316 174.843 346.02 168.307 337.111 168.307C327.845 168.188 320.004 175.913 320.242 185.182C320.004 194.451 327.845 202.294 337.823 202.057C342.575 202.057 346.852 200.393 350.653 197.184L346.971 191.243C344.12 193.382 341.15 194.451 337.942 194.451ZM336.517 175.319C340.437 175.319 343.407 177.933 343.526 181.855H328.795C329.864 177.814 332.597 175.319 336.517 175.319Z" fill="black"/>
<path d="M357.187 168.901H365.977V201.106H357.187V168.901Z" fill="black"/>
<path fill-rule="evenodd" clip-rule="evenodd" d="M416.94 194.451C412.307 194.451 408.981 192.193 407.911 188.034L430.72 188.153C431.076 186.489 431.314 184.825 431.314 183.281C431.314 174.843 425.018 168.307 416.108 168.307C406.842 168.188 399.002 175.913 399.24 185.182C399.002 194.451 406.842 202.294 416.821 202.057C421.573 202.057 425.849 200.393 429.651 197.184L425.968 191.243C423.117 193.382 420.147 194.451 416.94 194.451ZM415.514 175.319C419.434 175.319 422.404 177.933 422.523 181.855H407.793C408.862 177.814 411.713 175.319 415.514 175.319Z" fill="black"/>
<path d="M456.142 176.626H453.766C448.539 176.626 445.094 179.478 445.094 185.063V201.106H436.303V168.901H444.381V172.704C446.519 169.971 449.608 168.426 453.29 168.426C454.36 168.426 455.31 168.545 456.142 168.783V176.626Z" fill="black"/>
<path d="M306.106 169.02H296.246C295.177 169.02 294.226 169.139 293.276 169.258V169.139C284.367 170.327 278.308 176.507 278.308 185.063C278.308 193.738 284.485 199.799 293.276 200.868V200.987C294.226 201.106 295.177 201.225 296.246 201.225H314.896V154.047H306.106V169.02Z" fill="black"/>
<path d="M397.914 98.7519H380.214V106.476H361.207V46.1078H380.214V53.238H397.914V38.6212L386.273 28.5202H354.792L343.507 38.6212V114.201L354.792 124.183H386.273L397.796 114.201V98.7519H397.914ZM461.944 38.5024L450.54 28.4014H417.634L406.349 38.5024V114.082L417.634 124.064H450.54L461.944 114.082V38.5024ZM424.049 106.476V46.1078H444.244V106.476H424.049ZM526.33 124.183V124.064V28.5202H508.748V78.6687L489.385 28.5202H470.497V124.183H488.078V74.0342L507.323 124.183H526.33Z" fill="black"/>
<path d="M183.849 114.201L172.089 124.184H139.42L127.897 114.201V38.741L139.658 28.7588H172.089L183.849 38.741V53.7142H165.674V46.3464H146.073V106.596H165.674V85.3244H153.319V67.618H183.849V114.201Z" fill="black"/>
<path d="M0.669922 46.3461H18.7265V124.183H37.0206V46.3461H55.0772V28.6396H0.669922V46.3461Z" fill="black"/>
<path d="M119.107 38.741L107.821 28.7588H63.6304V124.184H81.9245V85.3244H86.6763L100.456 98.634V124.065H119.107V91.1474L109.841 82.2347L119.107 73.9162V38.741ZM81.9245 46.2276H100.813V67.618H81.9245V46.2276Z" fill="black"/>
<path d="M325.213 35.5318L268.192 2.61438L263.678 0L259.164 2.61438L202.143 35.5318L197.629 38.1462V43.3749V109.21V114.438L202.143 117.053L259.164 149.97L263.678 152.585L268.192 149.97L325.213 117.053L329.727 114.438V109.21V43.3749V38.1462L325.213 35.5318ZM234.574 125.371V94.1176L206.539 77.956V43.4938L235.524 26.738L263.916 43.0184L291.832 26.738L320.224 43.1372L292.07 59.4177L263.797 75.9358V142.127H263.678L234.574 125.371ZM292.901 125.253V92.0974L320.699 76.0547V109.329L292.901 125.253Z" fill="black"/>
<path opacity="0.2" d="M206.657 43.375L263.797 75.9359V142.127L263.678 142.246L234.574 125.371V94.1177L206.657 77.8373V43.375Z" fill="black"/>
</g>
<defs>
<clipPath id="clip0_322_438">
<rect width="527" height="203" fill="white"/>
</clipPath>
</defs>
</svg>
